<svg width="159" height="90" viewBox="0 0 159 90" fill="none" xmlns="http://www.w3.org/2000/svg">
<path d="M50.944 0.399994L80.384 90H68.608L59.648 63.12H21.376L12.672 90H0.768L29.44 0.399994H50.944ZM24.448 53.392H56.32L40.192 5.008L24.448 53.392ZM130.405 38.416C149.008 38.8427 158.309 47.632 158.309 64.784C158.309 71.696 155.834 77.6267 150.885 82.576C146.021 87.5253 140.09 90 133.093 90H88.805V0.399994H128.741C132.922 0.399994 136.592 1.03999 139.749 2.31999C142.992 3.6 145.509 5.17867 147.301 7.056C149.093 8.93333 150.501 11.024 151.525 13.328C152.634 15.5467 153.317 17.552 153.573 19.344C153.914 21.136 154 22.672 153.829 23.952C153.488 27.024 152.592 29.584 151.141 31.632C149.69 33.5947 147.77 35.0453 145.381 35.984C143.077 36.9227 140.773 37.5627 138.469 37.904C136.165 38.2453 133.477 38.416 130.405 38.416ZM99.941 10.128V38.288H128.741C132.666 38.288 135.994 37.0507 138.725 34.576C141.456 32.016 142.821 28.816 142.821 24.976C142.821 21.0507 141.413 17.5947 138.597 14.608C135.866 11.6213 132.581 10.128 128.741 10.128H99.941ZM133.093 80.272C137.36 80.272 140.773 78.6933 143.333 75.536C145.893 72.2933 147.173 68.496 147.173 64.144C147.173 60.1333 145.765 56.464 142.949 53.136C140.133 49.808 136.848 48.144 133.093 48.144H99.941V80.272H133.093Z" fill="#2F1664"/>
</svg>
