<svg width="220" height="100" viewBox="0 0 220 100" fill="none" xmlns="http://www.w3.org/2000/svg">
<path d="M99.0264 8.11015C93.0827 12.0991 88.3671 17.6398 85.3813 24.1107C81.6922 21.0332 77.2677 18.9389 72.5217 18.0423C67.0685 17.0122 61.4322 17.6091 56.3165 19.7586C51.2007 21.9082 46.832 25.5152 43.7561 30.1297C40.6802 34.7441 39.0334 40.1615 39.0216 45.7052V45.7084C39.0216 46.131 39.0333 46.5468 39.0532 46.9563C35.1045 48.8399 31.6431 51.6164 28.9469 55.0714C26.3902 58.3476 24.5937 62.1414 23.6774 66.1788C21.1922 65.5054 18.5805 65.3902 16.0322 65.851C12.4796 66.467 9.20327 68.1622 6.65008 70.706C4.09548 73.2511 2.38926 76.5218 1.76463 80.0717C1.13999 83.6216 1.62745 87.2775 3.16034 90.5403C4.69322 93.8032 7.19673 96.5138 10.3289 98.3026L10.6746 98.5H11.0728H200.496H201.185L201.634 97.9769L204.198 94.99C208.323 94.2181 212.042 91.9916 214.669 88.7046C217.43 85.2502 218.782 80.8803 218.451 76.4719C218.12 72.0635 216.132 67.9436 212.887 64.9387C209.871 62.1464 205.976 60.5089 201.889 60.2945C200.188 49.9266 194.605 40.5714 186.244 34.1437C177.851 27.6919 167.32 24.6965 156.811 25.7407C154 18.8335 149.255 12.871 143.134 8.57374C136.691 4.05052 129.027 1.58492 121.152 1.50215C113.278 1.41939 105.563 3.72335 99.0264 8.11015Z" fill="#F9F4F2" stroke="#2F1664" stroke-width="3"/>
</svg>
