<svg width="438" height="266" viewBox="0 0 438 266" fill="none" xmlns="http://www.w3.org/2000/svg">
<path d="M436.092 62.71C430.492 42.85 402.882 33.49 354.002 34.95C341.322 35.32 327.602 36.42 313.122 38.18C309.873 34.9289 306.459 31.8481 302.892 28.95C283.345 13.2533 259.715 3.47849 234.792 0.780043L232.642 0.560043L230.532 0.370043C229.082 0.260043 227.622 0.170043 226.162 0.100043H224.912C223.262 0.0400433 221.612 4.3338e-05 219.912 4.3338e-05C157.532 -0.0499567 105.002 43.17 90.8018 101.25C78.4218 106.95 67.0018 112.77 56.8918 118.58C14.7518 142.73 -4.59825 165.85 0.921753 185.46C6.08175 203.73 31.4618 213.38 74.3318 213.38C85.9918 213.38 98.8418 212.66 112.562 211.29C124.888 228.217 141.04 241.991 159.701 251.489C178.361 260.988 199.003 265.943 219.942 265.95C289.522 265.95 346.782 212.22 352.442 144.07C362.542 139.24 371.992 134.32 380.652 129.35C423.052 104.95 441.702 82.58 436.092 62.71ZM234.852 182.01C175.382 198.78 116.852 208.4 74.3518 208.4C46.1818 208.4 11.4118 204.18 5.74175 184.11C-0.788247 160.95 36.0818 132.64 89.4418 107.51C88.4937 112.438 87.8259 117.416 87.4418 122.42C40.8918 145.32 14.2018 167.78 17.8418 180.7C20.5918 190.45 40.4618 195.86 72.8418 195.86C75.8418 195.86 78.8418 195.86 82.0818 195.72C123.762 194.52 176.822 185.36 231.492 169.94C286.162 154.52 336.132 134.66 371.992 114.1C410.352 92.1 421.572 75.58 419.282 67.47C417.212 60.13 401.472 52.29 363.502 52.29C360.632 52.29 357.642 52.29 354.592 52.42C345.922 52.68 336.722 53.3 327.122 54.24C324.157 50.199 320.965 46.3294 317.562 42.65C330.502 41.17 342.802 40.22 354.232 39.89C357.502 39.8 360.682 39.75 363.752 39.75C404.072 39.75 426.752 47.91 431.352 64.06C436.252 81.45 418.352 101.94 378.222 124.97C341.462 146.04 290.562 166.29 234.852 182.01ZM87.0018 132.95C86.985 152.611 91.3509 172.028 99.7818 189.79C93.6318 190.26 87.6518 190.6 81.9118 190.79C43.4818 191.9 24.4418 185.87 22.6218 179.4C20.2118 170.95 41.7318 150.58 87.0818 127.95C87.0018 129.57 87.0018 131.24 87.0018 132.95ZM349.322 102.12C349.326 102.047 349.326 101.973 349.322 101.9C349.212 101.43 349.072 100.97 348.952 100.5C348.782 99.8 348.602 99.11 348.412 98.42C348.072 97.16 347.722 95.91 347.342 94.67C347.162 94.05 346.972 93.43 346.772 92.82C346.522 92.01 346.252 91.19 345.982 90.38C345.612 89.29 345.232 88.2 344.832 87.13C344.552 86.37 344.262 85.61 343.972 84.86L343.072 82.62C342.652 81.62 342.222 80.62 341.792 79.62L340.792 77.35C340.482 76.7 340.182 76.04 339.872 75.35C339.342 74.25 338.792 73.15 338.232 72.07C337.882 71.4 337.532 70.73 337.172 70.07C336.812 69.41 336.312 68.51 335.882 67.73C335.332 66.73 334.762 65.79 334.192 64.83L333.192 63.25C332.345 61.8767 331.472 60.52 330.572 59.18L330.392 58.91C338.872 58.13 347.012 57.62 354.732 57.4C357.732 57.31 360.672 57.27 363.492 57.27C402.652 57.27 413.572 65.6 414.492 68.81C415.492 72.44 409.432 86.87 369.492 109.76C364.052 112.88 358.295 115.98 352.222 119.06C351.616 113.349 350.637 107.684 349.292 102.1L349.322 102.12Z" fill="#2F1664"/>
</svg>
