<svg width="375" height="484" viewBox="0 0 375 484" fill="none" xmlns="http://www.w3.org/2000/svg">
<path d="M358.918 396.527C349.309 389.485 335.672 383.189 318.393 377.86C283.34 366.982 236.882 361 187.5 361C138.118 361 91.6254 366.94 56.6065 377.86C39.3279 383.223 25.6914 389.519 16.0817 396.527C5.41185 404.368 -5.74324e-06 412.929 -4.95174e-06 421.983C-4.46957e-06 427.498 2.06898 432.92 6.13856 438.105C12.7645 446.497 24.5799 454.125 41.2772 460.769C57.3589 467.175 77.1169 472.36 99.9954 476.186C126.73 480.641 156.987 483 187.5 483C218.013 483 248.27 480.641 274.97 476.169C297.883 472.343 317.641 467.158 333.723 460.752C350.42 454.108 362.244 446.514 368.861 438.088C372.931 432.937 375 427.498 375 421.983C375 412.929 369.588 404.368 358.918 396.527ZM187.5 477.264C159.142 477.372 130.82 475.221 102.808 470.832C108.436 452.901 119.687 437.222 134.921 426.08C150.155 414.938 168.576 408.915 187.5 408.89C206.416 408.924 224.826 414.95 240.051 426.091C255.275 437.233 266.518 452.908 272.14 470.832C244.146 475.219 215.841 477.37 187.5 477.264V477.264ZM365.484 432.87C356.935 423.222 340.639 414.457 317.658 407.329C282.862 396.527 236.643 390.579 187.5 390.579C138.357 390.579 92.1299 396.519 57.3418 407.329C34.3606 414.457 18.0994 423.222 9.51564 432.87C7.18568 429.701 5.88256 425.904 5.77949 421.983C5.77949 407.762 24.939 393.668 58.3335 383.299C92.8053 372.599 138.699 366.702 187.5 366.702C236.301 366.702 282.186 372.599 316.666 383.299C350.061 393.668 369.221 407.762 369.221 421.983C369.117 425.904 367.814 429.701 365.484 432.87V432.87Z" fill="#2F1664"/>
<path d="M186.899 484C163.005 484 140.478 482.044 123.482 478.498C104.647 474.571 95.1303 469.392 93.63 462.234C93.3487 461.577 93.2036 460.869 93.2034 460.154V171.934C92.8651 171.744 92.571 171.546 92.3283 171.385L92.1003 171.209C91.6149 170.879 91.1589 170.535 90.7544 170.198C88.3642 168.271 80.7229 160.938 85.04 149.172C83.2908 146.62 82.3693 143.595 82.3997 140.505C82.3395 138.201 83.0368 135.94 84.3854 134.066L75.9793 110.278C74.3322 109.628 72.7324 108.864 71.1915 107.993C70.7736 107.771 70.3684 107.527 69.978 107.26L69.6544 107.033C69.1164 106.676 68.5984 106.289 68.1027 105.875C64.883 103.289 62.4277 99.881 60.9982 96.0147H39.332C37.9185 96.0127 36.5634 95.4525 35.5639 94.4569C34.5643 93.4612 34.0019 92.1114 34 90.7033V40.022C34 39.9414 34 39.8681 34 39.7949C34.0132 39.532 34.0427 39.2702 34.0883 39.011C34.0883 38.9377 34.1397 38.8059 34.1618 38.7253C34.2126 38.5108 34.279 38.3002 34.3604 38.0952C34.4045 37.978 34.4486 37.8828 34.4927 37.7802C34.579 37.5849 34.6797 37.3964 34.7943 37.2161L34.9487 36.9744C35.1068 36.7608 35.2813 36.56 35.4709 36.3736L68.3674 1.663C68.8667 1.13871 69.4676 0.720947 70.1339 0.435074C70.8002 0.1492 71.5178 0.00118056 72.2432 0H301.769C302.495 0.0018852 303.214 0.150193 303.881 0.435994C304.548 0.721795 305.151 1.13918 305.652 1.663L338.556 36.3736C338.748 36.5734 338.923 36.7891 339.078 37.0183L339.225 37.2454C339.338 37.4329 339.441 37.6261 339.534 37.8242L339.652 38.1026C339.736 38.3222 339.805 38.5474 339.858 38.7766L339.909 38.9817C339.961 39.2474 339.99 39.517 339.997 39.7876C340.001 39.8534 340.001 39.9195 339.997 39.9854V90.6667C339.995 92.0747 339.433 93.4246 338.433 94.4202C337.434 95.4159 336.079 95.9761 334.665 95.978H312.8C311.355 99.8799 308.868 103.315 305.608 105.912C305.225 106.234 304.688 106.645 304.137 107.018L303.843 107.216C303.284 107.582 302.865 107.824 302.644 107.949C301.132 108.801 299.564 109.552 297.952 110.198L289.56 133.905C290.983 135.805 291.722 138.128 291.656 140.498C291.693 143.662 290.725 146.757 288.891 149.341C293.054 161.011 285.464 168.3 283.007 170.264C282.684 170.535 282.221 170.879 281.743 171.209H281.698L281.64 171.253L281.485 171.355C281.11 171.604 280.794 171.795 280.588 171.912V460.154C280.588 460.871 280.443 461.581 280.161 462.242C278.69 469.399 269.13 474.571 250.31 478.498C233.306 482.051 210.801 484 186.899 484ZM99.8225 459.824C99.948 460.099 100.035 460.39 100.08 460.689C100.308 462.154 102.757 467.421 124.842 472.029C141.405 475.48 163.446 477.385 186.899 477.385C210.353 477.385 232.394 475.48 248.964 472.029C271.027 467.421 273.498 462.183 273.719 460.689C273.766 460.391 273.853 460.1 273.976 459.824V169.963C273.977 169.437 274.104 168.918 274.348 168.45C274.591 167.983 274.942 167.58 275.374 167.275C275.305 166.683 275.398 166.083 275.644 165.539C275.89 164.996 276.279 164.529 276.771 164.189C277.262 163.848 277.837 163.647 278.434 163.606C279.031 163.565 279.628 163.686 280.161 163.956C282.493 161.538 284.802 157.407 282.574 151.385C282.427 150.988 282.255 150.602 282.059 150.227C281.709 149.572 281.592 148.819 281.725 148.089C281.859 147.359 282.235 146.695 282.794 146.205C284.787 144.498 285.001 141.678 285.001 140.535C285.001 138.784 284.449 137.993 283.64 137.341C283.108 136.912 282.723 136.329 282.537 135.673C282.352 135.017 282.375 134.32 282.603 133.678L292.164 106.645C292.323 106.195 292.579 105.786 292.913 105.444C293.247 105.103 293.651 104.837 294.098 104.667C295.89 104.008 297.629 103.212 299.298 102.286L299.371 102.242C299.423 102.242 299.702 102.059 300.107 101.788L300.379 101.604C300.746 101.355 301.114 101.099 301.357 100.872C304.196 98.6716 306.192 95.5689 307.012 92.0806C307.167 91.3373 307.573 90.6697 308.164 90.1906C308.755 89.7114 309.494 89.4501 310.256 89.4506H333.356V40.5275L301.217 6.59341H72.7948L40.619 40.5275V89.4212H63.5135C64.2741 89.4224 65.0111 89.6846 65.6005 90.1636C66.1899 90.6426 66.5956 91.3092 66.7494 92.0513C67.5535 95.5105 69.5172 98.5933 72.3168 100.791C72.6514 101.07 72.9999 101.332 73.3611 101.575L73.442 101.634L73.6553 101.773C73.8906 101.927 74.1407 102.095 74.2804 102.169L74.4569 102.264C76.1647 103.211 77.9451 104.022 79.7815 104.689C80.2281 104.862 80.632 105.129 80.9657 105.471C81.2995 105.814 81.5553 106.224 81.7158 106.674L91.2766 133.729C91.5072 134.369 91.5343 135.064 91.354 135.719C91.1737 136.375 90.7948 136.959 90.269 137.392C89.4894 138.037 88.9673 138.821 88.9599 140.557C88.9599 141.663 89.1585 144.425 91.078 146.147C91.6302 146.635 92.0025 147.293 92.1358 148.017C92.2691 148.74 92.1556 149.487 91.8135 150.139C91.6007 150.548 91.4116 150.969 91.2472 151.399C88.5775 158.623 92.4165 163.121 94.9244 165.143C95.1975 165.372 95.4822 165.587 95.7775 165.788L95.8584 165.839L95.9908 165.927C96.137 166.031 96.2893 166.126 96.4468 166.212L96.6968 166.352C97.0278 166.542 97.4323 166.762 97.9544 167.004C98.5131 167.273 98.9844 167.693 99.3147 168.217C99.645 168.74 99.821 169.345 99.8225 169.963V459.824Z" fill="#2F1664"/>
<path d="M275.263 65.7146H98.5349V460.154H98.7703C98.7703 460.205 98.7703 460.249 98.7703 460.301C98.7703 470.455 138.234 478.689 186.906 478.689C235.578 478.689 275.049 470.455 275.049 460.301C275.053 460.252 275.053 460.203 275.049 460.154H275.285L275.263 65.7146Z" fill="#F9F4F2"/>
<path d="M186.9 480.52C163.233 480.52 140.971 478.594 124.203 475.099C106.942 471.495 97.7932 466.799 96.9916 461.136C96.8051 460.842 96.7057 460.502 96.7047 460.154V65.7146C96.7047 65.2288 96.8985 64.763 97.2433 64.4195C97.5881 64.076 98.0557 63.8831 98.5434 63.8831H275.271C275.759 63.8831 276.226 64.076 276.571 64.4195C276.916 64.763 277.11 65.2288 277.11 65.7146V460.154C277.111 460.501 277.015 460.841 276.83 461.136C276.014 466.799 266.865 471.495 249.619 475.099C232.836 478.594 210.567 480.52 186.9 480.52ZM100.375 459.275C100.544 459.571 100.626 459.909 100.61 460.249C100.61 460.249 100.61 460.359 100.61 460.389C100.61 467.085 131.344 476.872 186.907 476.872C242.47 476.872 273.094 467.121 273.212 460.352C273.209 460.318 273.209 460.283 273.212 460.249C273.197 459.91 273.276 459.573 273.44 459.275V67.5461H100.375V459.275Z" fill="#2F1664"/>
<path d="M114.965 471.355C114.478 471.355 114.01 471.162 113.665 470.819C113.32 470.475 113.127 470.01 113.127 469.524V119.7C113.127 119.214 113.32 118.748 113.665 118.405C114.01 118.061 114.478 117.868 114.965 117.868C115.453 117.868 115.92 118.061 116.265 118.405C116.61 118.748 116.804 119.214 116.804 119.7V469.524C116.804 470.01 116.61 470.475 116.265 470.819C115.92 471.162 115.453 471.355 114.965 471.355Z" fill="#2F1664"/>
<path d="M138.345 476.322C137.857 476.322 137.39 476.129 137.045 475.786C136.7 475.442 136.506 474.977 136.506 474.491V119.7C136.506 119.214 136.7 118.748 137.045 118.405C137.39 118.061 137.857 117.868 138.345 117.868C138.833 117.868 139.3 118.061 139.645 118.405C139.99 118.748 140.184 119.214 140.184 119.7V474.491C140.184 474.977 139.99 475.442 139.645 475.786C139.3 476.129 138.833 476.322 138.345 476.322Z" fill="#2F1664"/>
<path d="M168.064 479.158C167.577 479.158 167.109 478.965 166.764 478.621C166.42 478.278 166.226 477.812 166.226 477.326V119.7C166.226 119.214 166.42 118.748 166.764 118.405C167.109 118.061 167.577 117.868 168.064 117.868C168.552 117.868 169.02 118.061 169.365 118.405C169.709 118.748 169.903 119.214 169.903 119.7V477.326C169.903 477.812 169.709 478.278 169.365 478.621C169.02 478.965 168.552 479.158 168.064 479.158Z" fill="#2F1664"/>
<path d="M205.741 479.158C205.253 479.158 204.785 478.965 204.441 478.621C204.096 478.278 203.902 477.812 203.902 477.326V119.7C203.902 119.214 204.096 118.748 204.441 118.405C204.785 118.061 205.253 117.868 205.741 117.868C206.228 117.868 206.696 118.061 207.041 118.405C207.386 118.748 207.579 119.214 207.579 119.7V477.326C207.579 477.812 207.386 478.278 207.041 478.621C206.696 478.965 206.228 479.158 205.741 479.158Z" fill="#2F1664"/>
<path d="M235.46 476.322C234.973 476.322 234.505 476.129 234.16 475.786C233.815 475.442 233.622 474.977 233.622 474.491V119.7C233.622 119.214 233.815 118.748 234.16 118.405C234.505 118.061 234.973 117.868 235.46 117.868C235.948 117.868 236.416 118.061 236.76 118.405C237.105 118.748 237.299 119.214 237.299 119.7V474.491C237.299 474.977 237.105 475.442 236.76 475.786C236.416 476.129 235.948 476.322 235.46 476.322Z" fill="#2F1664"/>
<path d="M258.834 471.355C258.346 471.355 257.879 471.162 257.534 470.819C257.189 470.475 256.995 470.01 256.995 469.524V119.7C256.995 119.214 257.189 118.748 257.534 118.405C257.879 118.061 258.346 117.868 258.834 117.868C259.322 117.868 259.789 118.061 260.134 118.405C260.479 118.748 260.673 119.214 260.673 119.7V469.524C260.673 470.01 260.479 470.475 260.134 470.819C259.789 471.162 259.322 471.355 258.834 471.355Z" fill="#2F1664"/>
<path d="M308.726 63.8165H65.1829L90.4308 135.135C90.4308 135.135 105.934 150.329 187.01 150.329C268.085 150.329 283.478 135.135 283.478 135.135L308.726 63.8165Z" fill="#F9F4F2"/>
<path d="M186.972 152.161C106.073 152.161 89.7608 137.084 89.1063 136.44C88.9046 136.233 88.7536 135.982 88.665 135.707L63.4171 64.4251C63.3195 64.1488 63.2899 63.8532 63.3306 63.5631C63.3714 63.2731 63.4814 62.997 63.6514 62.758C63.8214 62.519 64.0465 62.3241 64.3077 62.1897C64.569 62.0553 64.8588 61.9853 65.1528 61.9855H308.725C309.019 61.9848 309.309 62.0546 309.57 62.1891C309.832 62.3235 310.056 62.5186 310.226 62.7579C310.395 62.9971 310.505 63.2736 310.544 63.5638C310.584 63.8539 310.553 64.1494 310.454 64.4251L285.206 135.744C285.12 136.018 284.971 136.269 284.772 136.476C284.117 137.077 267.908 152.161 186.972 152.161ZM91.9966 134.066C94.4236 135.912 113.744 148.513 187.002 148.513C260.259 148.513 279.44 135.949 281.874 134.066L306.114 65.6485H67.7783L91.9966 134.066Z" fill="#2F1664"/>
<path d="M307.388 82.8939C303.534 72.4909 288.656 70.1979 288.656 70.1979C288.656 75.7657 253.178 85.1283 186.9 85.1576C120.621 85.1869 85.1432 75.7657 85.1432 70.1979C85.1432 70.1979 70.2725 72.4909 66.4187 82.8939C62.7415 92.9012 68.2059 99.1283 71.5669 101.817C71.9237 102.116 72.2969 102.394 72.6847 102.652H72.7362L72.9495 102.799C73.4864 103.158 73.8173 103.333 73.8173 103.333C85.0329 109.876 125.041 119.07 186.922 119.099C248.802 119.128 288.788 109.89 300.004 103.363C300.004 103.363 300.342 103.187 300.879 102.828L301.092 102.681H301.136C301.525 102.422 301.901 102.143 302.262 101.846C305.601 99.1283 311.094 92.9012 307.388 82.8939Z" fill="#F9F4F2"/>
<path d="M186.899 120.96C123.349 120.96 83.9369 111.37 72.9052 104.953C72.5724 104.772 72.2506 104.571 71.9418 104.352L71.7138 104.205L71.6403 104.154C71.2074 103.863 70.79 103.55 70.39 103.216C67.3011 100.726 60.4982 93.6925 64.7197 82.264C68.9412 70.8354 84.8636 68.3446 85.0254 68.3446C85.2689 68.3318 85.5126 68.3675 85.742 68.4498C85.9715 68.5321 86.1821 68.6592 86.3616 68.8236C86.5411 68.9881 86.6858 69.1866 86.7872 69.4075C86.8886 69.6284 86.9448 69.8673 86.9523 70.1101C87.4597 71.187 93.2183 74.8647 113.105 78.2347C126.762 80.5497 150.613 83.3116 186.87 83.3262C223.128 83.3409 246.985 80.5497 260.635 78.2347C280.492 74.8647 286.28 71.187 286.788 70.1101C286.801 69.8646 286.863 69.6241 286.971 69.4029C287.079 69.1817 287.23 68.9844 287.416 68.8225C287.602 68.6606 287.818 68.5375 288.053 68.4604C288.287 68.3834 288.535 68.3539 288.781 68.3739C288.935 68.3739 304.843 70.8061 309.087 82.2933C313.301 93.6852 306.505 100.762 303.387 103.268C302.988 103.6 302.57 103.911 302.137 104.198L301.85 104.396C301.276 104.777 300.886 104.982 300.842 105.011C289.936 111.356 250.471 120.931 186.899 120.96ZM84.062 72.286C80.4877 73.1211 70.9269 76.0149 68.1395 83.5314C64.8668 92.3739 69.6104 97.8903 72.6993 100.381C73.0191 100.643 73.353 100.888 73.6995 101.114L73.7657 101.165L73.9275 101.275C74.3614 101.561 74.6629 101.707 74.6629 101.729C84.9592 107.744 124.497 117.246 186.892 117.275C249.287 117.304 288.818 107.751 299.07 101.758L299.143 101.722C299.217 101.678 299.474 101.539 299.879 101.282L300.085 101.143C300.436 100.917 300.775 100.672 301.1 100.41C304.233 97.883 308.962 92.3519 305.689 83.5607C302.901 76.0442 293.341 73.1504 289.759 72.3153C287.214 75.7731 278.235 78.9087 262.974 81.5827C249.052 84.0515 224.547 87.0039 186.921 87.0185C149.296 87.0332 124.798 84.0882 110.869 81.5827C95.5937 78.8501 86.614 75.7438 84.062 72.286Z" fill="#2F1664"/>
<path d="M283.786 150.916C280.683 142.549 268.989 141.392 268.989 141.392C268.989 145.868 240.196 152.688 186.906 152.71C133.615 152.732 104.492 145.992 104.492 141.516C104.492 141.516 93.1291 142.564 90.0328 150.93C87.091 158.989 91.5037 163.978 94.1587 166.139C94.4446 166.381 94.7442 166.606 95.0559 166.813L95.2324 166.93C95.659 167.209 95.9679 167.355 95.9679 167.355C104.984 172.615 137.153 180.007 186.906 180.029C236.659 180.051 268.827 172.615 277.851 167.355C277.851 167.355 278.116 167.209 278.55 166.93L278.719 166.813H278.756C279.069 166.604 279.37 166.379 279.66 166.139C282.345 163.978 286.765 158.974 283.786 150.916Z" fill="#F9F4F2"/>
<path d="M186.906 181.89C135.719 181.89 103.926 174.147 95.0417 168.967C94.7674 168.825 94.5022 168.666 94.2474 168.491L94.115 168.396L94.0489 168.352C93.6738 168.103 93.3129 167.834 92.9677 167.546C90.4305 165.502 84.8337 159.685 88.305 150.301C91.7763 140.916 103.808 139.751 104.316 139.7C104.571 139.677 104.828 139.707 105.071 139.788C105.314 139.869 105.537 139.998 105.728 140.169C106.056 140.469 106.265 140.877 106.316 141.319C108.133 143.846 130.895 150.916 186.906 150.916C242.727 150.916 265.371 143.78 267.158 141.224C267.212 140.744 267.454 140.304 267.831 140.001C268.209 139.698 268.691 139.555 269.173 139.605C269.703 139.656 282.066 141.004 285.508 150.293C288.986 159.678 283.382 165.495 280.816 167.568C280.529 167.802 280.176 168.066 279.786 168.301L278.668 166.835L279.705 168.344L279.551 168.447C279.139 168.718 278.815 168.887 278.749 168.938C269.828 174.161 238.042 181.868 186.906 181.89ZM103.389 143.539C100.565 144.073 93.8282 145.927 91.7543 151.561C89.3346 158.154 92.35 162.33 95.3138 164.747C95.5565 164.945 95.8066 165.136 96.0934 165.326L96.2699 165.451C96.4544 165.579 96.6459 165.696 96.8436 165.802C105.11 170.623 136.808 178.257 186.906 178.257C237.005 178.257 268.703 170.623 276.918 165.802H276.991L277.528 165.473L277.631 165.399L277.69 165.355C277.963 165.178 278.226 164.985 278.477 164.777C281.463 162.366 284.485 158.183 282.058 151.59C279.962 145.934 272.998 144.037 270.093 143.48C268.526 145.377 263.621 148.073 248.228 150.594C237.086 152.381 217.398 154.579 186.906 154.579C156.415 154.579 136.624 152.381 125.423 150.608C109.92 148.117 104.97 145.421 103.389 143.539Z" fill="#2F1664"/>
<path d="M277.08 138.579C265.386 142.901 226.804 148.747 187.009 148.769C147.214 148.791 108.626 142.909 96.932 138.579C96.932 138.579 91.3058 136.535 90.8278 135.473C88.4229 136.74 87.6874 138.293 87.6874 140.52C87.6874 142.447 88.1802 145.736 90.894 147.597C98.3587 152.725 132.579 160.469 187.002 160.491C241.425 160.513 275.638 152.718 283.103 147.597C285.817 145.736 286.309 142.469 286.309 140.52C286.309 138.322 285.574 136.755 283.206 135.487C281.448 136.894 277.08 138.579 277.08 138.579Z" fill="#F9F4F2"/>
<path d="M187.01 162.322C133.285 162.3 97.8441 154.579 89.8939 149.106C86.2682 146.623 85.8931 142.271 85.8931 140.513C85.8931 137.407 87.1728 135.385 90.0043 133.854C90.413 133.641 90.8866 133.587 91.3327 133.704C91.7787 133.82 92.1652 134.098 92.4165 134.484C94.0439 135.453 95.7695 136.249 97.5646 136.857C108.685 140.967 146.928 146.916 187.017 146.938C227.106 146.96 265.313 140.967 276.44 136.865C277.587 136.418 280.816 135.062 282.073 134.059C282.355 133.836 282.696 133.7 283.054 133.668C283.412 133.635 283.771 133.707 284.089 133.875C286.898 135.341 288.148 137.421 288.163 140.513C288.163 142.271 287.788 146.623 284.162 149.106C276.168 154.579 240.756 162.3 187.01 162.322ZM90.6662 137.729C90.2618 138.063 89.9467 138.491 89.749 138.975C89.5514 139.46 89.4773 139.986 89.5336 140.506C89.5336 141.678 89.7616 144.571 91.9458 146.073C97.9103 150.161 128.998 158.615 187.01 158.637C245.022 158.659 276.102 150.183 282.066 146.095C284.272 144.63 284.478 141.7 284.478 140.528C284.537 139.987 284.455 139.441 284.24 138.942C284.025 138.443 283.684 138.007 283.25 137.678C281.483 138.685 279.642 139.557 277.742 140.286C266.085 144.593 228.077 150.542 187.032 150.593C145.986 150.645 107.949 144.601 96.2923 140.293C94.3315 139.638 92.4456 138.779 90.6662 137.729Z" fill="#2F1664"/>
<path d="M301.775 5.31143H72.2423L39.3311 40.022H334.679L301.775 5.31143Z" fill="#F9F4F2"/>
<path d="M334.68 41.8535H39.3317C38.9719 41.8543 38.6198 41.75 38.3189 41.5533C38.0181 41.3567 37.7817 41.0765 37.6392 40.7473C37.4967 40.4182 37.4543 40.0546 37.5172 39.7017C37.5802 39.3488 37.7457 39.0221 37.9932 38.7619L70.9045 4.05132C71.0767 3.87029 71.2843 3.72623 71.5145 3.62797C71.7447 3.52971 71.9926 3.47932 72.243 3.47989H301.768C302.019 3.47932 302.267 3.52971 302.497 3.62797C302.727 3.72623 302.935 3.87029 303.107 4.05132L336.018 38.7619C336.266 39.0221 336.431 39.3488 336.494 39.7017C336.557 40.0546 336.515 40.4182 336.372 40.7473C336.23 41.0765 335.993 41.3567 335.693 41.5533C335.392 41.75 335.04 41.8543 334.68 41.8535ZM43.5973 38.1905H330.385L300.967 7.14289H73.0299L43.5973 38.1905Z" fill="#2F1664"/>
<path d="M39.3311 40.022V90.7032H334.679V40.022H39.3311Z" fill="#F9F4F2"/>
<path d="M334.68 92.5347H39.3315C38.8439 92.5347 38.3762 92.3417 38.0314 91.9982C37.6866 91.6548 37.4929 91.1889 37.4929 90.7032V40.0218C37.4919 39.7811 37.5388 39.5425 37.6309 39.3198C37.7229 39.0972 37.8583 38.8949 38.0293 38.7246C38.2002 38.5544 38.4033 38.4195 38.6268 38.3278C38.8503 38.2361 39.0898 38.1894 39.3315 38.1903H334.68C334.921 38.1894 335.161 38.2361 335.384 38.3278C335.608 38.4195 335.811 38.5544 335.982 38.7246C336.153 38.8949 336.288 39.0972 336.38 39.3198C336.472 39.5425 336.519 39.7811 336.518 40.0218V90.7032C336.518 91.1889 336.324 91.6548 335.98 91.9982C335.635 92.3417 335.167 92.5347 334.68 92.5347ZM41.1701 88.8717H332.841V41.8533H41.1701V88.8717Z" fill="#2F1664"/>
</svg>
