<svg width="257" height="845" viewBox="0 0 257 845" fill="none" xmlns="http://www.w3.org/2000/svg">
<path d="M234.901 77.7C249.201 71.5 256.401 63.9 256.501 55.2V38.8C256.501 38.7 256.501 38.6 256.501 38.5C256.401 31.2 251.101 24.7 240.901 19.1C219.401 7.3 176.001 0 127.701 0C109.101 0 91.2008 1.1 74.4008 3.3C53.8008 6 36.4008 10.1 24.0008 15.3C10.4008 20.9 2.80078 27.8 1.30078 35.6C1.10078 36.4 1.10078 37.2 1.10078 38.1C1.10078 38.2 1.10078 38.3 1.10078 38.3V54.7C1.10078 62.1 6.30078 68.6 16.7008 74.3C18.5008 75.3 20.4008 76.2 22.6008 77.2L30.6008 98.4L29.8008 733.1L19.1008 761.2C8.00078 766.5 1.80078 772.7 0.500781 779.7C0.300781 780.5 0.300781 781.3 0.300781 782.2C0.300781 782.3 0.300781 782.4 0.300781 782.4V805.7C0.300781 813 5.50078 819.6 15.9008 825.3C37.5008 837.1 80.9008 844.4 129.101 844.4C147.701 844.4 165.601 843.3 182.401 841.1C204.201 838.3 222.401 833.9 234.901 828.3C248.801 822.1 255.801 814.7 255.801 806.1V782.8C255.801 782.7 255.801 782.6 255.801 782.5C255.701 775.2 250.401 768.7 240.201 763.1C239.201 762.5 238.101 762 236.901 761.4L226.301 733.3L227.101 98.6L234.901 77.7ZM233.501 764.5C235.101 765.2 236.601 766 238.001 766.7C248.701 772.6 251.501 778.4 251.501 782.7C251.501 782.7 251.501 782.7 251.501 782.8V806.1C251.501 819.9 225.301 831.5 181.601 837.2C164.601 839.4 146.601 840.4 128.801 840.4C83.1008 840.4 39.0008 833.5 17.5008 821.8C8.50078 816.9 4.00078 811.5 4.00078 805.7V782.4C4.00078 782.4 4.00078 782.4 4.00078 782.3C4.00078 781.6 4.10078 781 4.20078 780.4C5.30078 774.4 11.6008 768.9 22.1008 764.1L33.6008 733.8L34.4008 97.6L25.6008 74.1C23.0008 73 20.7008 71.9 18.5008 70.7C9.60078 65.9 5.00078 60.5 5.00078 54.7V38.3C5.00078 38.3 5.00078 38.3 5.00078 38.2C5.00078 37.5 5.10078 36.9 5.20078 36.3C7.70078 23.4 33.7008 12.6 75.0008 7.2C92.0008 5 110.001 4 127.801 4C173.501 4 217.601 10.9 239.101 22.6C249.801 28.5 252.601 34.3 252.601 38.6C252.601 38.6 252.601 38.6 252.601 38.7V55.1C252.601 62.4 245.301 69.1 231.901 74.6L222.901 98L222.101 734.2L233.501 764.5Z" fill="#2F1664"/>
<path d="M6.00078 805.7V782.4C6.00078 787.2 10.0008 792.1 18.5008 796.7C48.1008 812.9 121.001 819.6 181.401 811.8C224.501 806.2 249.501 794.7 249.601 782.7V806C249.601 818 224.501 829.5 181.401 835.1C121.001 842.9 48.1008 836.1 18.5008 820C10.0008 815.4 6.00078 810.5 6.00078 805.7Z" fill="#FFF9F3"/>
<path d="M128.801 840.4C83.1008 840.4 39.0008 833.5 17.5008 821.8C8.50078 816.9 4.00078 811.5 4.00078 805.7V782.4C4.00078 781.3 4.90078 780.4 6.00078 780.4C7.10078 780.4 8.00078 781.3 8.00078 782.4C8.00078 786.5 11.9008 790.9 19.4008 795C48.6008 811 121.201 817.7 181.101 809.9C227.001 804 247.501 792 247.501 782.8C247.501 781.7 248.401 780.8 249.501 780.8C250.601 780.8 251.501 781.7 251.501 782.8V806.1C251.501 819.9 225.301 831.5 181.601 837.2C164.601 839.4 146.601 840.4 128.801 840.4ZM8.00078 791.5V805.8C8.00078 809.9 11.9008 814.3 19.4008 818.4C48.6008 834.4 121.201 841.1 181.101 833.3C227.001 827.4 247.501 815.4 247.501 806.2V792C238.601 801.7 215.401 809.6 181.601 814C121.001 821.8 47.4008 814.9 17.5008 798.6C13.4008 796.3 10.3008 793.9 8.00078 791.5Z" fill="#2F1664"/>
<path d="M249.47 782.82C249.502 764.871 195.041 750.224 127.828 750.104C60.6151 749.985 6.10234 764.439 6.07049 782.388C6.03864 800.338 60.4997 814.985 127.713 815.104C194.926 815.224 249.439 800.77 249.47 782.82Z" fill="#FFF9F3"/>
<path d="M128.901 817.1C83.2008 817.1 39.1008 810.2 17.6008 798.5C5.00078 791.7 3.40078 784.9 4.20078 780.4C6.60078 767.5 32.7008 756.6 73.9008 751.3C134.501 743.5 208.101 750.4 238.001 766.7C250.501 773.5 252.201 780.3 251.301 784.8C248.901 797.7 222.801 808.6 181.601 813.9C164.701 816.1 146.601 817.1 128.901 817.1ZM127.001 752.1C109.301 752.1 91.4008 753.1 74.5008 755.3C28.0008 761.3 9.70078 773 8.20078 781.2C7.10078 786.9 13.8008 791.9 19.5008 795C48.7008 811 121.301 817.7 181.201 809.9C227.701 803.9 246.001 792.2 247.501 784C248.601 778.3 241.901 773.3 236.201 770.2C215.101 758.8 171.901 752.1 127.001 752.1Z" fill="#2F1664"/>
<path d="M35.6008 736.8L36.4008 94.6C36.4008 98.2 39.4008 102 45.8008 105.5C68.2008 117.8 123.501 122.9 169.201 117C201.901 112.8 220.801 104.1 220.801 95L220.101 737C220.101 746.1 201.101 754.8 168.501 759C122.801 764.9 67.5008 759.8 45.1008 747.5C38.6008 744.1 35.6008 740.4 35.6008 736.8Z" fill="#FFF9F3"/>
<path d="M128.701 763.5C94.0008 763.5 60.4008 758.3 44.1008 749.3C37.1008 745.5 33.6008 741.3 33.6008 736.7L34.4008 94.5C34.4008 93.4 35.3008 92.5 36.4008 92.5C37.5008 92.5 38.4008 93.4 38.4008 94.5C38.4008 97.4 41.3008 100.6 46.8008 103.6C68.9008 115.7 123.701 120.7 169.001 114.8C203.501 110.3 218.901 101.5 218.901 94.7C218.901 93.6 219.801 92.7 220.901 92.7C222.001 92.7 222.901 93.6 222.901 94.7L222.101 736.9C222.101 747.6 202.101 756.6 168.701 760.9C155.901 762.7 142.201 763.5 128.701 763.5ZM38.4008 102.6L37.6008 736.8C37.6008 739.7 40.5008 742.9 46.0008 745.9C68.1008 758 122.901 763 168.201 757.1C202.701 752.6 218.101 743.8 218.101 737L218.901 102.8C211.501 109.9 194.201 115.6 169.501 118.8C123.501 124.8 67.6008 119.5 44.9008 107.1C42.3008 105.7 40.1008 104.2 38.4008 102.6Z" fill="#2F1664"/>
<path d="M46.8008 769.9C45.7008 769.9 44.8008 769 44.8008 767.9V91.5C44.8008 90.4 45.7008 89.5 46.8008 89.5C47.9008 89.5 48.8008 90.4 48.8008 91.5V767.9C48.8008 769 47.9008 769.9 46.8008 769.9Z" fill="#2F1664"/>
<path d="M60.8008 769.9C59.7008 769.9 58.8008 769 58.8008 767.9V91.5C58.8008 90.4 59.7008 89.5 60.8008 89.5C61.9008 89.5 62.8008 90.4 62.8008 91.5V767.9C62.8008 769 61.9008 769.9 60.8008 769.9Z" fill="#2F1664"/>
<path d="M79.4008 769.9C78.3008 769.9 77.4008 769 77.4008 767.9V91.5C77.4008 90.4 78.3008 89.5 79.4008 89.5C80.5008 89.5 81.4008 90.4 81.4008 91.5V767.9C81.4008 769 80.5008 769.9 79.4008 769.9Z" fill="#2F1664"/>
<path d="M103.001 769.9C101.901 769.9 101.001 769 101.001 767.9V91.5C101.001 90.4 101.901 89.5 103.001 89.5C104.101 89.5 105.001 90.4 105.001 91.5V767.9C105.001 769 104.201 769.9 103.001 769.9Z" fill="#2F1664"/>
<path d="M210.201 769.9C209.101 769.9 208.201 769 208.201 767.9V91.5C208.201 90.4 209.101 89.5 210.201 89.5C211.301 89.5 212.201 90.4 212.201 91.5V767.9C212.201 769 211.301 769.9 210.201 769.9Z" fill="#2F1664"/>
<path d="M129.301 769.9C128.201 769.9 127.301 769 127.301 767.9V91.5C127.301 90.4 128.201 89.5 129.301 89.5C130.401 89.5 131.301 90.4 131.301 91.5V767.9C131.301 769 130.401 769.9 129.301 769.9Z" fill="#2F1664"/>
<path d="M196.201 769.9C195.101 769.9 194.201 769 194.201 767.9V91.5C194.201 90.4 195.101 89.5 196.201 89.5C197.301 89.5 198.201 90.4 198.201 91.5V767.9C198.201 769 197.301 769.9 196.201 769.9Z" fill="#2F1664"/>
<path d="M177.601 769.9C176.501 769.9 175.601 769 175.601 767.9V91.5C175.601 90.4 176.501 89.5 177.601 89.5C178.701 89.5 179.601 90.4 179.601 91.5V767.9C179.601 769 178.801 769.9 177.601 769.9Z" fill="#2F1664"/>
<path d="M154.001 769.9C152.901 769.9 152.001 769 152.001 767.9V91.5C152.001 90.4 152.901 89.5 154.001 89.5C155.101 89.5 156.001 90.4 156.001 91.5V767.9C156.001 769 155.101 769.9 154.001 769.9Z" fill="#2F1664"/>
<path d="M20.5008 773.8C20.9008 772.6 21.5008 771 22.0008 769.9C22.2008 769.3 22.5008 768.5 22.7008 767.9C23.1008 766.7 23.7008 765.1 24.2008 764C24.6008 762.8 25.2008 761.2 25.7008 760.1C25.9008 759.5 26.2008 758.7 26.4008 758.1C26.8008 756.9 27.4008 755.3 27.9008 754.2C28.3008 753 28.9008 751.4 29.4008 750.3C29.6008 749.7 29.9008 748.9 30.1008 748.3C30.5008 747.1 31.1008 745.5 31.6008 744.4C32.0008 743.2 32.6008 741.6 33.1008 740.5C33.3008 739.9 33.6008 739.1 33.8008 738.5C34.2008 737.3 34.8008 735.7 35.3008 734.6C33.6008 739 36.4008 743.7 44.3008 748C66.9008 760.3 122.501 765.5 168.501 759.5C204.301 754.9 223.801 744.9 220.001 734.8C220.401 736 221.001 737.6 221.501 738.7C221.701 739.3 222.001 740.1 222.201 740.7C222.601 741.9 223.201 743.5 223.701 744.6C224.101 745.8 224.701 747.4 225.201 748.5C225.401 749.1 225.701 749.9 225.901 750.5C226.301 751.7 226.901 753.3 227.401 754.4C227.901 755.5 228.401 757.2 228.901 758.3C229.101 758.9 229.401 759.7 229.601 760.3C230.001 761.5 230.601 763.1 231.101 764.2C231.501 765.4 232.101 767 232.601 768.1C232.801 768.7 233.101 769.5 233.301 770.1C233.701 771.3 234.301 772.9 234.801 774C239.201 785.6 216.601 797.3 175.001 802.6C121.601 809.5 57.0008 803.5 30.8008 789.2C21.8008 784.4 18.6008 779 20.5008 773.8Z" fill="#FFF9F3"/>
<path d="M128.801 807.7C88.3008 807.7 49.2008 801.6 30.1008 791.2C17.6008 784.4 17.0008 777.6 18.7008 773.2L33.7008 733.9C34.1008 732.9 35.2008 732.3 36.3008 732.7C37.3008 733.1 37.9008 734.2 37.5008 735.3C35.8008 739.8 41.0008 743.7 45.6008 746.2C67.8008 758.3 123.001 763.4 168.601 757.5C199.701 753.5 214.501 745.9 217.901 740.2C218.901 738.6 219.001 737.1 218.501 735.5C218.101 734.5 218.601 733.3 219.701 732.9C220.701 732.5 221.901 733 222.301 734.1L237.101 773.5C238.201 776.5 237.901 779.7 236.101 782.7C230.201 792.6 208.101 800.7 175.701 804.9C160.501 806.7 144.501 807.7 128.801 807.7ZM22.4008 774.5C20.3008 779.9 26.5008 784.6 32.0008 787.6C57.8008 801.7 122.001 807.6 175.001 800.8C205.301 796.9 227.401 789.1 232.501 780.5C233.701 778.6 233.901 776.7 233.201 774.8L221.001 742.6C215.501 751 196.601 757.9 169.001 761.5C122.701 767.5 66.5008 762.2 43.6008 749.7C39.0008 747.2 36.2008 744.7 34.7008 742.3L22.4008 774.5Z" fill="#2F1664"/>
<path d="M36.3008 97C31.4008 83.9 26.4008 70.8 21.5008 57.6C22.7008 60.9 26.2008 64.2 32.0008 67.4C58.2008 81.7 122.801 87.7 176.201 80.8C210.901 76.3 232.401 67.5 236.001 57.9C233.501 64.5 231.001 71 228.501 77.6C226.001 84.2 223.501 90.7 221.001 97.3C217.901 105.5 199.401 113.1 169.501 117C123.501 123 67.9008 117.8 45.3008 105.5C40.4008 102.7 37.4008 99.9 36.3008 97Z" fill="#FFF9F3"/>
<path d="M129.601 121.5C94.7008 121.5 60.9008 116.2 44.5008 107.3C39.2008 104.4 35.8008 101.2 34.6008 97.8L19.6008 58.4C19.2008 57.4 19.7008 56.2 20.8008 55.8C21.8008 55.4 23.0008 55.9 23.4008 57C24.5008 59.9 27.8008 62.9 33.0008 65.7C58.8008 79.8 123.001 85.7 176.001 78.9C214.701 73.9 231.501 64.5 234.201 57.3C234.601 56.3 235.701 55.7 236.801 56.1C237.801 56.5 238.401 57.6 238.001 58.7L223.001 98C219.401 107.4 200.101 115.1 169.901 119C156.801 120.7 143.101 121.5 129.601 121.5ZM27.1008 66.8L38.2008 96.3C39.1008 98.7 41.9008 101.3 46.3008 103.7C68.5008 115.8 123.701 120.9 169.301 115C202.601 110.7 217.001 102.4 219.201 96.6L230.401 67.2C220.401 74.1 201.701 79.6 176.501 82.9C122.801 89.8 57.5008 83.7 31.0008 69.2C29.6008 68.4 28.3008 67.6 27.1008 66.8Z" fill="#2F1664"/>
<path d="M7.00078 54.7V38.3C7.00078 43.1 11.0008 48 19.5008 52.6C49.1008 68.8 122.001 75.6 182.401 67.8C225.501 62.2 250.501 50.7 250.601 38.7V55.1C250.601 67.1 225.501 78.6 182.401 84.2C122.001 92 49.1008 85.2 19.5008 69.1C11.0008 64.4 7.00078 59.6 7.00078 54.7Z" fill="#FFF9F3"/>
<path d="M129.901 89.4C84.2008 89.4 40.1008 82.5 18.6008 70.8C9.60078 65.9 5.00078 60.5 5.00078 54.7V38.3C5.00078 37.2 5.90078 36.3 7.00078 36.3C8.10078 36.3 9.00078 37.2 9.00078 38.3C9.00078 42.4 12.9008 46.8 20.4008 50.9C49.6008 66.9 122.201 73.6 182.101 65.8C228.001 59.9 248.501 47.9 248.501 38.7C248.501 37.6 249.401 36.7 250.501 36.7C251.601 36.7 252.501 37.6 252.501 38.7V55.1C252.501 68.9 226.301 80.5 182.601 86.2C165.601 88.4 147.601 89.4 129.901 89.4ZM7.00078 54.7H9.00078C9.00078 58.8 12.9008 63.2 20.4008 67.3C49.6008 83.3 122.201 90 182.101 82.2C228.001 76.3 248.501 64.3 248.501 55.1V47.7C239.601 57.4 216.401 65.3 182.601 69.7C122.001 77.6 48.4008 70.7 18.6008 54.4C14.5008 52.2 11.3008 49.8 9.10078 47.4V54.8L7.00078 54.7Z" fill="#2F1664"/>
<path d="M250.503 38.7055C250.535 20.7563 196.074 6.10883 128.861 5.98953C61.648 5.87022 7.13526 20.3243 7.1034 38.2735C7.07154 56.2228 61.5327 70.8702 128.746 70.9895C195.959 71.1088 250.472 56.6548 250.503 38.7055Z" fill="#FFF9F3"/>
<path d="M129.901 73C84.2008 73 40.1008 66.1 18.6008 54.4C6.00078 47.5 4.40078 40.8 5.20078 36.3C7.70078 23.4 33.7008 12.6 75.0008 7.2C135.601 -0.6 209.201 6.3 239.001 22.6C251.501 29.4 253.201 36.2 252.301 40.7C249.901 53.6 223.801 64.5 182.601 69.8C165.701 71.9 147.701 73 129.901 73ZM128.001 8C110.301 8 92.4008 9 75.5008 11.2C29.0008 17.2 10.7008 28.9 9.20078 37.1C8.10078 42.8 14.8008 47.8 20.5008 50.9C49.7008 66.9 122.301 73.6 182.201 65.8C228.701 59.8 247.001 48.1 248.501 39.9C249.601 34.2 242.901 29.2 237.201 26.1C216.101 14.7 172.901 8 128.001 8Z" fill="#2F1664"/>
</svg>
