<svg width="171" height="172" viewBox="0 0 171 172" fill="none" xmlns="http://www.w3.org/2000/svg">
<path d="M168.801 106.2L132.501 85.9998L168.901 65.7998C169.801 65.2998 170.301 64.1998 170.001 63.1998C169.701 62.1998 168.801 61.4998 167.801 61.4998L126.201 62.1998L147.601 26.4998C148.101 25.5998 148.001 24.4998 147.301 23.6998C146.601 22.9998 145.401 22.7998 144.501 23.3998L108.801 44.7998L109.501 3.19981C109.501 2.19981 108.801 1.19981 107.801 0.999814C106.801 0.699814 105.701 1.19981 105.201 2.09981L85.0009 38.4998L64.8009 2.19981C64.3009 1.29981 63.2009 0.799814 62.2009 1.09981C61.2009 1.39981 60.5009 2.29981 60.5009 3.29981L61.2009 44.8998L25.6009 23.4998C24.7009 22.9998 23.6009 23.0998 22.8009 23.7998C22.1009 24.4998 21.9009 25.6998 22.5009 26.5998L43.9009 62.2998L2.30089 61.5998C1.30089 61.5998 0.300889 62.2998 0.100889 63.2998C-0.199111 64.2998 0.300889 65.3998 1.20089 65.8998L37.5009 85.9998L1.20089 106.2C0.300889 106.7 -0.199111 107.8 0.100889 108.8C0.400889 109.8 1.20089 110.5 2.30089 110.5L43.9009 109.8L22.5009 145.5C22.0009 146.4 22.1009 147.5 22.8009 148.3C23.5009 149 24.7009 149.2 25.6009 148.6L61.3009 127.2L60.6009 168.8C60.6009 169.8 61.3009 170.8 62.3009 171C63.3009 171.3 64.4009 170.8 64.9009 169.9L85.0009 133.5L105.201 169.9C105.601 170.6 106.401 171.1 107.201 171.1C107.401 171.1 107.601 171.1 107.801 171C108.801 170.7 109.501 169.8 109.501 168.8L108.801 127.2L144.501 148.6C145.401 149.1 146.501 149 147.301 148.3C148.001 147.6 148.201 146.4 147.601 145.5L126.201 109.8L167.801 110.5C168.801 110.5 169.801 109.8 170.001 108.8C170.201 107.8 169.801 106.7 168.801 106.2ZM122.101 105.2C121.301 105.2 120.501 105.6 120.101 106.3C119.701 107 119.701 107.9 120.101 108.6L139.001 140L107.601 121.2C106.901 120.8 106.001 120.8 105.301 121.2C104.601 121.6 104.201 122.4 104.201 123.2L104.801 159.8L87.0009 127.8C86.6009 127.1 85.8009 126.6 85.0009 126.6C84.2009 126.6 83.4009 127 83.0009 127.8L65.2009 159.8L65.8009 123.2C65.8009 122.4 65.4009 121.6 64.7009 121.2C64.0009 120.8 63.1009 120.8 62.4009 121.2L31.0009 140L49.8009 108.6C50.2009 107.9 50.2009 107 49.8009 106.3C49.4009 105.6 48.7009 105.2 47.8009 105.2L11.2009 105.8L43.2009 87.9998C43.9009 87.5998 44.4009 86.7998 44.4009 85.9998C44.4009 85.1998 44.0009 84.3998 43.2009 83.9998L11.2009 66.1998L47.8009 66.7998C48.7009 66.7998 49.4009 66.3998 49.8009 65.6998C50.2009 64.9998 50.2009 64.0998 49.8009 63.3998L31.0009 31.9998L62.4009 50.7998C63.1009 51.1998 64.0009 51.1998 64.7009 50.7998C65.4009 50.3998 65.8009 49.5998 65.8009 48.7998L65.2009 12.1998L83.0009 44.1998C83.4009 44.8998 84.2009 45.3998 85.0009 45.3998C85.8009 45.3998 86.6009 44.9998 87.0009 44.1998L104.801 12.1998L104.201 48.7998C104.201 49.5998 104.601 50.3998 105.301 50.7998C106.001 51.1998 106.901 51.1998 107.601 50.7998L139.001 31.9998L120.201 63.3998C119.801 64.0998 119.801 64.9998 120.201 65.6998C120.601 66.3998 121.301 66.7998 122.201 66.7998L158.801 66.1998L126.801 83.9998C126.101 84.3998 125.601 85.1998 125.601 85.9998C125.601 86.7998 126.001 87.5998 126.801 87.9998L158.801 105.8L122.101 105.2Z" fill="#2F1664"/>
</svg>
