<svg width="329" height="329" viewBox="0 0 329 329" fill="none" xmlns="http://www.w3.org/2000/svg">
<path d="M321.997 119.9C321.897 119 321.697 118.2 321.397 117.5C321.297 117.2 321.197 116.8 320.997 116.5C312.597 88.8 296.997 63.7 275.797 44C275.697 43.9 275.697 43.9 275.597 43.8C275.297 43.4 274.897 43.1 274.497 42.8C252.697 23 225.797 9.3 196.797 3.4C196.497 3.3 196.197 3.2 195.997 3.2C195.697 3.1 195.397 3.1 195.097 3.1C194.997 3.1 194.797 3.1 194.697 3H194.597C194.397 2.9 194.097 2.9 193.897 2.9C183.997 0.9 173.997 0 163.997 0C156.197 0 148.197 0.6 140.397 1.7C140.297 1.7 140.297 1.7 140.197 1.7C139.497 1.8 138.797 1.9 137.897 2.1C131.097 3.2 124.197 4.8 117.597 6.7C110.997 8.7 104.397 11 98.0971 13.8C97.2971 14.1 96.5971 14.4 95.8971 14.8C95.7971 14.8 95.7971 14.9 95.6971 14.9C79.2971 22.4 64.3971 32.5 51.2971 44.9C51.0971 45 50.9971 45.2 50.7971 45.3C50.4971 45.6 50.1971 45.9 49.7971 46.2C49.5971 46.4 49.3971 46.6 49.1971 46.9C28.4971 67.3 13.3971 93.1 5.6971 121.3C-2.2029 150.5 -1.9029 181.3 6.6971 210.4C15.1971 239.1 31.2971 264.8 53.2971 285C53.7971 285.6 54.4971 286.1 55.1971 286.7C75.2971 304.5 99.5971 317.2 125.697 323.5C125.797 323.5 125.997 323.6 126.097 323.6C126.297 323.7 126.597 323.7 126.797 323.8C126.897 323.8 127.097 323.9 127.197 323.9C139.297 326.7 151.697 328.1 164.097 328.1C171.797 328.1 179.597 327.5 187.197 326.5C188.397 326.4 189.597 326.2 190.697 326C190.797 326 190.997 325.9 191.097 325.9C197.697 324.8 204.197 323.3 210.497 321.5C216.897 319.6 223.197 317.3 229.297 314.7C229.397 314.7 229.397 314.7 229.497 314.6C230.597 314.2 231.697 313.7 232.797 313.1C251.097 304.7 267.497 293 281.597 278.5C281.697 278.4 281.797 278.3 281.997 278.2C282.997 277.1 284.097 276 285.097 274.9C301.897 256.5 314.497 234.1 321.497 210.2C322.097 208.7 322.497 207.2 322.797 205.8C322.797 205.6 322.897 205.5 322.897 205.3C330.097 177.2 329.797 147.8 321.997 119.9ZM242.897 299C248.597 291.2 252.397 280.2 254.097 266.8C254.597 262.9 254.897 258.9 254.997 254.7C276.497 245 293.297 235 304.297 225.5C299.197 241.8 290.797 256.8 279.297 269.5C268.797 281 256.597 291 242.897 299ZM208.197 314C200.797 316.2 193.397 317.8 185.997 318.8C171.197 320.1 155.297 308.9 140.997 288.6C176.097 283 216.197 271.6 250.897 256.4C249.797 281.1 242.497 299 229.397 305.9C222.697 309.1 215.597 311.8 208.197 314ZM124.497 315.2C107.697 310.6 92.3971 302.4 79.0971 291.3C84.6971 292.1 90.8971 292.5 97.6971 292.5C109.297 292.5 122.597 291.4 136.697 289.3C139.097 292.8 141.597 296.1 144.197 299.2C152.897 309.6 162.097 316.7 171.097 320.2C155.097 320.9 139.497 319.2 124.497 315.2ZM17.3971 218.2C20.8971 220.7 25.6971 222.7 31.6971 224.1C38.6971 247.5 50.3971 267.8 65.5971 283.9C63.4971 283 61.6971 282 60.2971 280.9C41.4971 264.3 26.5971 243 17.3971 218.2ZM10.9971 132.6C13.2971 136.3 18.1971 140 27.3971 142.4C22.8971 167.8 23.5971 194.3 30.4971 219.8C21.3971 217.2 15.7971 213.2 14.1971 208.2C14.1971 208.1 14.0971 208 14.0971 207.9C6.5971 182.6 5.8971 156.8 10.9971 132.6ZM48.3971 59C48.3971 59.8 48.5971 60.6 48.7971 61.4C49.8971 64.7 52.9971 67.2 58.0971 68.8C43.4971 89.3 33.1971 113.3 28.0971 138.6C20.3971 136.5 12.2971 132.6 12.8971 125C12.8971 124.8 12.8971 124.6 12.8971 124.5C19.2971 100.1 31.4971 77.6 48.3971 59ZM270.097 49.3C271.997 51.6 272.597 54.3 271.897 57.4C271.097 61.1 268.697 65.1 264.797 69.3C246.897 50.7 225.197 36.1 201.797 26.6C204.797 23 206.297 19.6 205.997 16.5C205.897 15.5 205.597 14.3 204.897 13.2C229.197 19.9 251.597 32.3 270.097 49.3ZM313.997 119.9C314.197 120.5 314.297 121 314.497 121.6C315.197 126.5 312.497 132.5 306.697 139C298.797 113.8 284.997 91.1 267.497 72.2C271.997 67.4 274.697 62.7 275.697 58.4C275.897 57.3 276.097 56.2 276.097 55.2C293.297 72.7 306.497 94.6 313.997 119.9ZM314.197 207.4C313.597 208.9 312.697 210.4 311.697 212C315.897 190.2 314.797 166.8 307.997 143.3C312.097 138.9 315.097 134.7 316.797 130.7C322.497 156.8 321.197 183.1 314.197 207.4ZM254.997 250.4C255.097 230.7 251.497 207.9 244.397 183.3C271.597 171 292.297 158.2 304.797 146.3C311.497 171.1 311.897 195.7 306.297 218.2C296.197 228.4 278.297 239.8 254.997 250.4ZM73.4971 286.4C56.6971 270.5 43.6971 249.6 35.9971 225.1C43.4971 226.5 52.3971 227.2 62.1971 227.2C75.4971 227.2 90.6971 225.9 106.797 223.6C114.197 248.1 123.497 269.2 134.297 285.8C109.797 289.3 88.2971 289.7 73.4971 286.4ZM262.197 72.1C251.897 82.1 233.997 93.1 210.797 103.7C204.597 92.8 197.797 82.4 190.697 72.7C183.897 63.4 176.897 55.1 169.997 47.9C183.097 41.9 192.997 35.6 199.097 29.7C222.497 38.9 244.197 53.5 262.197 72.1ZM303.597 142.2C302.197 143.6 300.697 145 298.997 146.4C286.497 157.3 267.197 168.7 243.297 179.6C235.797 154.6 225.297 129.8 212.597 107C236.197 96.3 254.097 85.2 264.797 74.8C282.297 93.9 295.997 116.8 303.597 142.2ZM109.597 219.3C102.197 193.7 97.6971 167 96.0971 141.6C131.997 136 173.497 124.3 209.097 108.6C221.497 130.8 232.197 155.6 239.797 181.2C198.697 199.4 150.897 212.9 109.597 219.3ZM100.197 68.8C121.197 65.6 145.397 58.7 166.197 49.6C180.597 64.3 194.697 83.5 207.197 105.3C171.997 120.8 131.197 132.3 95.8971 137.9C94.5971 112.7 95.9971 88.9 100.197 68.8ZM100.997 64.8C105.397 45.7 112.297 30.1 121.597 20.2C134.797 23.5 149.097 32.9 163.197 46.6C143.497 55.2 120.897 61.6 100.997 64.8ZM166.997 45C154.597 32.7 142.297 23.9 130.597 19.2C152.397 17.4 174.297 20.7 194.997 28.3C189.597 33 180.597 38.8 166.997 45ZM96.9971 65.4C84.2971 67.2 72.9971 67.6 64.6971 66.3C77.8971 48.9 94.3971 34.4 113.497 24.2C106.297 34.5 100.697 48.5 96.9971 65.4ZM61.9971 69.7C65.8971 70.5 70.4971 70.9 75.6971 70.9C81.7971 70.9 88.6971 70.4 96.0971 69.4C94.0971 79.3 92.7971 90.1 92.0971 101.7C91.3971 113.6 91.3971 125.9 91.9971 138.4C67.8971 141.9 46.6971 142.5 31.7971 139.4C36.8971 114.1 47.2971 90.1 61.9971 69.7ZM31.0971 143.2C37.7971 144.6 45.6971 145.2 54.5971 145.2C65.8971 145.2 78.5971 144.1 92.2971 142.2C93.9971 168.2 98.5971 194.7 105.797 219.9C77.1971 224.1 52.0971 224.7 34.7971 220.9C27.4971 195.3 26.5971 168.7 31.0971 143.2ZM110.697 223C152.097 216.5 199.797 203 240.797 185C247.897 209.9 251.197 233 250.997 252.2C215.497 267.9 174.197 279.6 138.597 285.2C127.897 269.1 118.297 247.9 110.697 223ZM202.197 16.9C202.397 19 201.197 21.8 198.097 25.2C177.797 17.6 156.397 13.9 134.997 14.9C153.997 8.7 173.597 7.1 192.597 10.3C192.897 10.4 193.097 10.4 193.397 10.5C197.297 11.5 201.897 13.4 202.197 16.9ZM120.397 15.9C118.897 15.6 117.497 15.4 116.097 15.2C117.297 14.8 118.597 14.4 119.897 14C121.097 13.6 122.397 13.3 123.597 13C122.497 14 121.397 14.9 120.397 15.9ZM105.597 19.6C104.397 19.9 103.297 20.3 102.097 20.6C103.197 20.2 104.397 19.8 105.597 19.6ZM107.497 23C89.1971 33.7 73.2971 48.2 60.4971 65.4C55.9971 64.2 53.1971 62.4 52.4971 60.1C51.5971 57.4 53.6971 54.1 55.5971 51.8C55.6971 51.6 55.8971 51.4 55.8971 51.2C56.0971 51 56.3971 50.7 56.5971 50.5C70.7971 37.5 88.1971 28.1 107.497 23ZM71.6971 289.9C71.8971 290.1 72.1971 290.3 72.3971 290.6C72.0971 290.4 71.6971 290.1 71.3971 289.9C71.4971 289.9 71.5971 289.9 71.6971 289.9ZM309.697 220.4C309.797 220.3 309.797 220.3 309.697 220.4C309.697 220.5 309.697 220.6 309.597 220.7C309.697 220.5 309.697 220.4 309.697 220.4ZM315.697 112.5C315.797 112.7 315.797 112.9 315.897 113.2C315.797 113 315.797 112.8 315.697 112.5ZM283.797 57.8L283.897 57.9C283.897 57.9 283.897 57.8 283.797 57.8ZM293.697 70C293.797 70.1 293.797 70.2 293.897 70.3C293.797 70.1 293.697 70.1 293.697 70ZM309.697 97.4C309.797 97.6 309.897 97.8 309.897 98C309.797 97.8 309.797 97.6 309.697 97.4ZM127.897 8C128.397 7.9 128.997 7.7 129.497 7.6C128.997 7.8 128.397 7.9 127.897 8ZM54.4971 47.2C55.0971 46.6 55.7971 46 56.3971 45.4C55.7971 46 55.1971 46.6 54.4971 47.2ZM57.7971 44.2C58.1971 43.8 58.5971 43.5 58.9971 43.1C58.6971 43.4 58.2971 43.8 57.7971 44.2ZM60.5971 41.8C60.9971 41.5 61.3971 41.1 61.7971 40.8C61.3971 41.1 60.9971 41.4 60.5971 41.8ZM63.3971 39.5C63.7971 39.2 64.0971 38.9 64.4971 38.6C64.0971 38.9 63.6971 39.2 63.3971 39.5ZM74.1971 31.4C74.2971 31.3 74.3971 31.3 74.3971 31.2C74.2971 31.3 74.2971 31.4 74.1971 31.4ZM76.7971 29.7C76.9971 29.6 77.0971 29.5 77.2971 29.4C77.1971 29.5 76.9971 29.6 76.7971 29.7ZM79.7971 27.8C79.8971 27.7 80.0971 27.6 80.1971 27.6C79.9971 27.7 79.8971 27.8 79.7971 27.8ZM8.0971 127.7C8.0971 127.6 8.0971 127.5 8.1971 127.4C8.0971 127.6 8.0971 127.6 8.0971 127.7ZM14.1971 220.5C14.0971 220.2 13.9971 219.9 13.8971 219.6C13.8971 220 13.9971 220.2 14.1971 220.5ZM48.3971 274.9L48.2971 274.8C48.2971 274.8 48.3971 274.8 48.3971 274.9ZM44.7971 271C44.7971 270.9 44.6971 270.9 44.6971 270.8C44.6971 270.9 44.6971 270.9 44.7971 271ZM37.9971 262.9C37.8971 262.8 37.8971 262.7 37.7971 262.6C37.7971 262.7 37.8971 262.8 37.9971 262.9ZM34.6971 258.6C34.5971 258.5 34.4971 258.4 34.4971 258.3C34.5971 258.3 34.5971 258.5 34.6971 258.6ZM20.7971 235.7C20.6971 235.5 20.5971 235.2 20.4971 235C20.4971 235.2 20.5971 235.4 20.7971 235.7ZM18.2971 230.6C18.1971 230.4 18.0971 230.1 17.9971 229.9C18.0971 230.1 18.1971 230.3 18.2971 230.6ZM237.897 306.1C237.797 306.1 237.697 306.2 237.597 306.2C237.797 306.2 237.897 306.2 237.897 306.1ZM234.497 307.9C234.397 307.9 234.397 308 234.297 308C234.397 307.9 234.497 307.9 234.497 307.9ZM250.797 298.7L250.697 298.8C250.697 298.7 250.797 298.7 250.797 298.7ZM247.697 300.6C247.597 300.6 247.497 300.7 247.497 300.7C247.597 300.7 247.697 300.7 247.697 300.6ZM241.297 304.4C241.197 304.5 241.097 304.5 240.997 304.6C241.097 304.5 241.197 304.4 241.297 304.4ZM315.197 216.9C314.997 217.3 314.897 217.8 314.697 218.2C314.797 217.8 314.997 217.4 315.197 216.9ZM313.697 221C313.497 221.4 313.397 221.9 313.197 222.3C313.297 221.9 313.497 221.5 313.697 221ZM311.997 225.3C311.897 225.6 311.697 226 311.597 226.3C311.697 226 311.797 225.6 311.997 225.3ZM307.897 234.2C307.797 234.5 307.597 234.7 307.497 235C307.697 234.7 307.797 234.5 307.897 234.2ZM305.997 238C305.797 238.4 305.597 238.7 305.397 239.1C305.597 238.8 305.797 238.4 305.997 238ZM303.897 241.9C303.697 242.3 303.497 242.6 303.297 243C303.497 242.6 303.697 242.2 303.897 241.9ZM298.997 250.2C298.997 250.2 298.997 250.3 298.897 250.3C298.897 250.3 298.897 250.3 298.997 250.2ZM296.397 254.1C296.297 254.2 296.197 254.4 296.097 254.5C296.197 254.3 296.297 254.2 296.397 254.1ZM293.997 257.6C293.797 257.9 293.597 258.2 293.397 258.5C293.497 258.2 293.697 257.9 293.997 257.6ZM291.397 261.1C291.197 261.4 290.897 261.7 290.697 262C290.897 261.7 291.097 261.4 291.397 261.1ZM288.597 264.6C288.397 264.9 288.197 265.1 287.897 265.4C288.197 265.2 288.397 264.9 288.597 264.6ZM285.397 268.4C285.297 268.5 285.197 268.6 285.097 268.7C285.297 268.7 285.397 268.5 285.397 268.4ZM318.897 204.9C318.797 205.3 318.697 205.7 318.597 206.1C318.797 205.7 318.897 205.3 318.897 204.9ZM318.497 206.6C318.397 206.8 318.397 207 318.297 207.2C318.397 207 318.497 206.8 318.497 206.6ZM320.297 199.1C320.197 199.4 320.197 199.7 320.097 199.9C320.197 199.6 320.197 199.3 320.297 199.1ZM324.197 168.3C324.197 168.5 324.197 168.6 324.197 168.8C324.097 168.6 324.097 168.5 324.197 168.3ZM323.497 178.9C323.497 179 323.497 179 323.497 179.1C323.497 179.1 323.497 179 323.497 178.9ZM322.997 183.8C322.997 184 322.897 184.3 322.897 184.5C322.897 184.3 322.897 184 322.997 183.8ZM317.797 118.6C317.797 118.5 317.697 118.4 317.697 118.3C317.797 118.4 317.797 118.5 317.797 118.6ZM272.997 46.7C272.897 46.6 272.897 46.5 272.797 46.4C272.697 46.3 272.597 46.2 272.497 46.2C272.597 46.3 272.697 46.4 272.797 46.4C272.797 46.5 272.897 46.6 272.997 46.7ZM264.397 39.3C264.197 39.1 263.997 39 263.797 38.8C263.897 38.9 264.097 39.1 264.397 39.3ZM259.697 35.7C259.597 35.7 259.597 35.6 259.497 35.6C259.597 35.6 259.597 35.6 259.697 35.7ZM255.597 32.7C255.397 32.5 255.097 32.4 254.897 32.2C255.097 32.4 255.397 32.6 255.597 32.7ZM241.697 24C241.597 23.9 241.497 23.9 241.397 23.8C241.397 23.9 241.497 24 241.697 24ZM231.997 19.1C231.797 19 231.697 18.9 231.497 18.9C231.697 19 231.897 19 231.997 19.1ZM221.897 14.8C221.797 14.8 221.697 14.7 221.497 14.7C221.697 14.7 221.797 14.7 221.897 14.8ZM206.397 9.6C206.297 9.6 206.297 9.6 206.197 9.5C206.297 9.6 206.397 9.6 206.397 9.6ZM193.697 6.6C193.797 6.6 193.797 6.6 193.897 6.6C194.397 6.7 194.797 6.7 195.297 6.8C194.797 6.7 194.397 6.6 193.897 6.6C193.797 6.7 193.797 6.7 193.697 6.6C193.597 6.6 193.397 6.6 193.297 6.5C193.497 6.6 193.597 6.6 193.697 6.6ZM171.097 4C171.497 4 171.897 4 172.297 4.1C171.897 4.1 171.497 4 171.097 4ZM174.897 4.2C175.297 4.2 175.797 4.3 176.197 4.3C175.697 4.3 175.297 4.3 174.897 4.2ZM178.597 4.5C179.097 4.5 179.497 4.6 179.997 4.6C179.597 4.6 179.097 4.6 178.597 4.5ZM182.397 4.9C182.897 5 183.397 5 183.897 5.1C183.397 5.1 182.897 5 182.397 4.9ZM164.597 3.9C164.297 3.9 163.897 3.9 163.597 3.9C163.697 3.9 163.897 3.9 163.997 3.9C164.197 3.9 164.397 3.9 164.597 3.9ZM168.497 3.9C168.197 3.9 167.797 3.9 167.497 3.9C167.797 3.9 168.097 3.9 168.497 3.9ZM140.697 5.6C140.797 5.6 140.797 5.6 140.897 5.6C140.897 5.6 140.797 5.6 140.697 5.6ZM103.897 15.6C104.297 15.4 104.697 15.3 105.197 15.1C104.797 15.3 104.297 15.4 103.897 15.6ZM112.897 12.3C113.397 12.1 113.797 12 114.297 11.8C113.797 12 113.297 12.1 112.897 12.3ZM53.9971 47.7C53.4971 48.1 53.0971 48.5 52.5971 49C52.9971 48.5 53.4971 48.1 53.9971 47.7ZM14.3971 107.2C14.4971 107.1 14.4971 106.9 14.5971 106.8C14.4971 107 14.3971 107.1 14.3971 107.2ZM20.7971 92.5C20.7971 92.4 20.8971 92.3 20.8971 92.2C20.8971 92.4 20.8971 92.5 20.7971 92.5ZM5.2971 143.1C5.2971 143.4 5.1971 143.7 5.1971 144C5.1971 143.7 5.1971 143.4 5.2971 143.1ZM4.6971 148.2C4.6971 148.5 4.5971 148.8 4.5971 149.1C4.5971 148.8 4.5971 148.5 4.6971 148.2ZM4.1971 154.1C4.1971 154.2 4.1971 154.4 4.1971 154.5C4.1971 154.4 4.1971 154.3 4.1971 154.1ZM5.6971 188C5.5971 187.5 5.5971 187.1 5.4971 186.6C5.4971 187 5.5971 187.5 5.6971 188ZM4.8971 182C4.8971 181.9 4.8971 181.7 4.8971 181.6C4.7971 181.7 4.7971 181.9 4.8971 182ZM4.3971 176.6C4.3971 176.2 4.2971 175.8 4.2971 175.4C4.2971 175.8 4.2971 176.2 4.3971 176.6ZM55.9971 282.2C56.2971 282.5 56.6971 282.8 56.9971 283.1C56.5971 282.9 56.2971 282.5 55.9971 282.2ZM121.997 318.6C121.797 318.5 121.597 318.5 121.397 318.4C121.697 318.5 121.797 318.5 121.997 318.6ZM103.497 312.3C103.297 312.2 103.197 312.2 102.997 312.1C103.197 312.1 103.297 312.2 103.497 312.3ZM94.4971 308.3C94.3971 308.2 94.1971 308.2 94.0971 308.1C94.2971 308.1 94.3971 308.2 94.4971 308.3ZM85.6971 303.7C85.5971 303.7 85.5971 303.6 85.4971 303.6C85.5971 303.6 85.6971 303.6 85.6971 303.7ZM81.4971 301.2C81.3971 301.2 81.3971 301.1 81.2971 301.1C81.2971 301.1 81.3971 301.2 81.4971 301.2ZM73.1971 295.9C73.0971 295.9 73.0971 295.8 72.9971 295.8C73.0971 295.8 73.1971 295.9 73.1971 295.9ZM65.2971 290.1C65.1971 290.1 65.1971 290 65.0971 290C65.1971 290 65.2971 290.1 65.2971 290.1ZM136.597 321.8C136.697 321.8 136.897 321.8 136.997 321.9C136.797 321.9 136.697 321.8 136.597 321.8ZM145.597 323.1C145.797 323.1 145.997 323.1 146.197 323.2C145.997 323.2 145.797 323.2 145.597 323.1ZM154.697 324C154.897 324 155.097 324 155.397 324C155.197 324 154.997 324 154.697 324ZM158.897 324.1C159.297 324.1 159.597 324.1 159.997 324.1C159.597 324.2 159.197 324.2 158.897 324.1ZM204.197 319.1C205.897 318.7 207.597 318.2 209.297 317.7C207.597 318.2 205.897 318.6 204.197 319.1ZM194.597 321.2C194.797 321.2 195.097 321.1 195.297 321.1C195.097 321.2 194.897 321.2 194.597 321.2ZM199.297 320.3C199.897 320.2 200.597 320 201.197 319.9C200.597 320 199.997 320.1 199.297 320.3ZM223.697 312.7C223.397 312.8 223.097 312.9 222.797 313C223.197 312.9 223.397 312.8 223.697 312.7ZM219.397 314.3C218.997 314.4 218.597 314.6 218.197 314.7C218.597 314.6 218.997 314.5 219.397 314.3ZM227.897 310.9H227.997C227.997 310.9 227.997 310.9 227.897 310.9ZM278.997 275.5C279.097 275.4 279.097 275.4 279.197 275.3C279.097 275.4 278.997 275.5 278.997 275.5Z" fill="#2F1664"/>
</svg>
