<svg width="204" height="197" viewBox="0 0 204 197" fill="none" xmlns="http://www.w3.org/2000/svg">
<path d="M203.039 77.0299C202.843 76.7677 202.582 76.571 202.255 76.3744L137.22 1.37671C136.501 0.524459 135.389 0 134.278 0C134.017 0 133.755 0 133.494 0.0655574L36.8233 19.2083C36.6926 19.2083 36.6272 19.2083 36.4965 19.2083C36.2351 19.2083 36.039 19.2083 35.7775 19.2739C34.4049 19.5361 33.2938 20.5195 32.8362 21.8306L11.136 84.6346L0.220521 116.037C-0.237013 117.348 0.0244351 118.856 0.939505 119.904L66.4324 195.427C66.9553 196.017 67.6089 196.41 68.3932 196.672C68.8508 196.869 69.3737 197 69.9619 197C70.2234 197 70.4848 197 70.7463 196.934L168.789 177.857C170.162 177.595 171.273 176.612 171.731 175.235L193.17 112.3L203.824 80.8323C204.216 79.5211 203.954 78.0789 203.039 77.0299ZM201.274 79.98L190.62 111.448L169.182 174.383C169.051 174.842 168.659 175.169 168.201 175.235L70.158 194.312C70.0926 194.312 69.9619 194.312 69.8965 194.312C69.6351 194.312 69.439 194.247 69.2429 194.115C68.9161 194.05 68.5893 193.919 68.3932 193.657L24.7313 143.308L2.96573 118.134C2.63892 117.807 2.57356 117.282 2.70428 116.823L24.4045 54.0193L35.32 22.7484C35.4507 22.2895 35.8429 21.9617 36.3004 21.8962C36.3658 21.8962 36.4311 21.8962 36.4965 21.8962C36.6272 21.8962 36.758 21.8962 36.8887 21.9617L101.532 9.17804L134.017 2.6223C134.082 2.6223 134.213 2.6223 134.278 2.6223C134.67 2.6223 134.997 2.75341 135.259 3.0812L200.555 78.3411C200.752 78.4067 200.882 78.5378 201.013 78.6689C201.34 79.0622 201.471 79.5867 201.274 79.98Z" fill="#FF8096"/>
<path d="M201.078 78.7344C200.948 78.6033 200.752 78.4722 200.621 78.4067L135.259 3.0812C134.932 2.75341 134.474 2.55674 134.017 2.68785L36.8887 21.8962C36.6926 21.8306 36.4965 21.8306 36.3004 21.8962C35.8429 21.9617 35.4507 22.2895 35.32 22.7484L13.6198 85.4868L2.70428 116.889C2.57356 117.348 2.63892 117.807 2.96573 118.2L68.4586 193.722C68.6547 193.984 68.9815 194.115 69.3083 194.181C69.5044 194.312 69.7658 194.378 69.9619 194.378C70.0273 194.378 70.158 194.378 70.2234 194.378L168.267 175.3C168.724 175.235 169.116 174.907 169.247 174.448L190.686 111.513L201.34 80.0456C201.471 79.5867 201.34 79.0622 201.078 78.7344ZM27.2804 142.194L37.1501 113.677L57.0202 136.556L47.1505 165.074L27.2804 142.194ZM101.27 11.8003L121.14 34.7454L91.5968 40.58L71.7267 17.7005L101.27 11.8003ZM175.522 53.4293L145.978 59.2639L126.108 36.3844L155.652 30.5497L175.522 53.4293ZM58.0006 133.737L38.1306 110.792L48.0002 82.2745L67.8703 105.154L59.4386 129.541L58.0006 133.737ZM80.6813 76.1121L100.551 98.9917L90.6817 127.509L70.8116 104.63L80.6813 76.1121ZM102.97 100.041L132.71 94.1404L123.036 122.658L93.2962 128.427L102.97 100.041ZM125.062 124.952L154.737 119.183L144.998 147.766L115.323 153.535L125.062 124.952ZM102.708 97.2872L82.969 74.4732L112.513 68.6386L132.317 91.5181L102.708 97.2872ZM93.623 42.8745L123.167 37.0399L143.037 59.9195L113.493 65.7541L93.623 42.8745ZM78.7204 73.8176L68.8508 102.335L48.9807 79.4556L58.8503 50.9381L78.7204 73.8176ZM68.3932 111.579L69.8312 107.449L89.7013 130.328L79.8316 158.846L59.9615 135.966L68.3932 111.579ZM90.6817 43.4646L110.552 66.3441L81.0081 72.1787L61.138 49.2992L90.6817 43.4646ZM122.056 125.477L112.382 154.06L82.6422 159.829L92.3811 131.246L122.056 125.477ZM155.717 116.233L126.043 122.002L135.716 93.4849L151.338 90.4037L165.456 87.6502L155.717 116.233ZM164.868 85.0935L150.88 87.8469L135.324 90.8626L120.944 74.4077L115.454 68.0486L144.998 62.214L159.312 78.7344L164.868 85.0935ZM114.343 156.354L144.017 150.585L134.278 179.168L104.604 184.937L114.343 156.354ZM177.679 141.342L147.939 147.111L157.678 118.528L187.418 112.759L177.679 141.342ZM167.809 84.5035L153.495 67.983L148.004 61.624L177.548 55.7893L197.418 78.6689L167.809 84.5035ZM153.625 28.2552L124.082 34.0898L104.212 11.2103L133.755 5.37571L153.625 28.2552ZM68.7854 18.225L88.6555 41.1045L59.1118 46.9391L39.2417 24.1251L68.7854 18.225ZM37.0194 25.6985L56.8895 48.6436L47.0198 77.1611L31.2675 59.0017L27.1497 54.2815L37.0194 25.6985ZM26.1693 57.1005L46.0394 79.98L36.1697 108.498L16.2996 85.618L26.1693 57.1005ZM15.3192 88.5025L35.1893 111.382L25.3196 139.899L5.44949 117.02L15.3192 88.5025ZM49.1114 167.368L58.9811 138.851L59.7001 139.637L78.8512 161.73L68.9815 190.248L49.1114 167.368ZM81.6617 162.713L111.402 156.944L101.663 185.527L71.9228 191.296L81.6617 162.713ZM167.025 172.744L137.285 178.513L147.024 149.93L176.764 144.161L167.025 172.744ZM188.398 109.874L158.658 115.643L168.397 87.0602L198.072 81.2912L188.398 109.874Z" fill="#FF8096"/>
</svg>
