<svg width="2003" height="2002" viewBox="0 0 2003 2002" fill="none" xmlns="http://www.w3.org/2000/svg">
<path d="M1002 1000.41V1L424.138 4.2373L997.944 998.099L1002 1000.41Z" fill="#FF9C7E"/>
<path d="M424.138 4.2373L1.50161 429.131L997.944 998.099L424.138 4.2373Z" fill="#FF8096"/>
<path d="M1 1002L1000.2 1002L997.944 998.099L1.50161 429.131L1 1002Z" fill="#2F1664"/>
<path d="M1.4977 1572.87L1000.46 1002.46L1000.2 1002L1 1002L1.4977 1572.87Z" fill="#6942BB"/>
<path d="M426.104 1998.76L1000.89 1003.2L1000.46 1002.46L1.4977 1572.87L426.104 1998.76Z" fill="#42D5B6"/>
<path d="M426.104 1998.76L1002 2001L1002 1005.12L1000.89 1003.2L426.104 1998.76Z" fill="#FFBA7F"/>
<path d="M1002 2001L1575.68 1998.76L1002 1005.12L1002 2001Z" fill="#FF9C7E"/>
<path d="M1575.68 1998.76L2001.5 1571.13L1004.78 1002H1002V1005.12L1575.68 1998.76Z" fill="#FF8096"/>
<path d="M2001.5 1571.13L2001 1002L1004.78 1002L2001.5 1571.13Z" fill="#2F1664"/>
<path d="M2001 1002L2001.5 430.868L1003.02 1001L1004.78 1002L2001 1002Z" fill="#6942BB"/>
<path d="M2001.5 430.868L1577.64 4.2373L1002.38 1000.63L1003.02 1001L2001.5 430.868Z" fill="#42D5B6"/>
<path d="M1577.64 4.2373L1002 1V1000.41L1002.38 1000.63L1577.64 4.2373Z" fill="#FFBA7F"/>
<path d="M1002 1L1002.01 -4.71995e-05L1001.99 1.5692e-05L1002 1ZM1002 2001L1002 2002L1002 2002L1002 2001ZM1 1002L-1.14342e-06 1002L3.80044e-07 1002L1 1002ZM2001.5 430.868L2002.5 430.869L2002.5 430.456L2002.21 430.163L2001.5 430.868ZM1.4977 1572.87L0.4977 1572.87L0.49806 1573.28L0.789523 1573.57L1.4977 1572.87ZM2001.5 1571.13L2002.21 1571.84L2002.5 1571.54L2002.5 1571.13L2001.5 1571.13ZM1.50161 429.131L0.792618 428.426L0.501967 428.718L0.501606 429.13L1.50161 429.131ZM1577.64 4.2373L1578.35 3.53251L1578.06 3.23964L1577.65 3.23732L1577.64 4.2373ZM426.104 1998.76L425.396 1999.47L425.687 1999.76L426.1 1999.76L426.104 1998.76ZM424.138 4.2373L424.132 3.23732L423.72 3.23963L423.429 3.53208L424.138 4.2373ZM1575.68 1998.76L1575.68 1999.76L1576.09 1999.76L1576.39 1999.47L1575.68 1998.76ZM1001.99 1.99998L1577.64 5.23729L1577.65 3.23732L1002.01 1.58132e-05L1001.99 1.99998ZM1576.93 4.9421L2000.79 431.573L2002.21 430.163L1578.35 3.53251L1576.93 4.9421ZM2000.5 430.867L2000 1002L2002 1002L2002.5 430.869L2000.5 430.867ZM2000 1002L2000.5 1571.13L2002.5 1571.13L2002 1002L2000 1002ZM2000.8 1570.43L1574.97 1998.06L1576.39 1999.47L2002.21 1571.84L2000.8 1570.43ZM1575.67 1997.76L1002 2000L1002 2002L1575.68 1999.76L1575.67 1997.76ZM1002 2000L426.108 1997.76L426.1 1999.76L1002 2002L1002 2000ZM426.812 1998.06L2.20588 1572.16L0.789523 1573.57L425.396 1999.47L426.812 1998.06ZM2.4977 1572.87L2 1002L3.80044e-07 1002L0.4977 1572.87L2.4977 1572.87ZM2 1002L2.50161 429.132L0.501606 429.13L3.8334e-07 1002L2 1002ZM2.21059 429.836L424.847 4.94253L423.429 3.53208L0.792618 428.426L2.21059 429.836ZM424.143 5.23729L1002.01 1.99998L1001.99 1.5692e-05L424.132 3.23732L424.143 5.23729ZM1003 1000.41V1H1001V1000.41H1003ZM423.272 4.7373L997.078 998.599L998.81 997.599L425.004 3.7373L423.272 4.7373ZM997.448 998.967L1001.5 1001.28L1002.5 999.547L998.44 997.231L997.448 998.967ZM998.44 997.231L1.99746 428.263L1.00575 430L997.448 998.967L998.44 997.231ZM1 1003L1000.2 1003L1000.2 1001L1 1001L1 1003ZM1001.06 1001.5L998.81 997.599L997.078 998.599L999.33 1002.5L1001.06 1001.5ZM1.99356 1573.74L1000.96 1003.33L999.966 1001.59L1.00184 1572L1.99356 1573.74ZM1001.33 1001.96L1001.06 1001.5L999.33 1002.5L999.596 1002.96L1001.33 1001.96ZM426.97 1999.26L1001.76 1003.7L1000.02 1002.7L425.238 1998.26L426.97 1999.26ZM1001.76 1002.7L1001.33 1001.96L999.596 1002.96L1000.02 1003.7L1001.76 1002.7ZM1003 2001L1003 1005.12L1001 1005.12L1001 2001L1003 2001ZM1002.87 1004.62L1001.76 1002.7L1000.02 1003.7L1001.13 1005.62L1002.87 1004.62ZM1001.13 1005.62L1574.81 1999.26L1576.54 1998.26L1002.87 1004.62L1001.13 1005.62ZM2002 1570.26L1005.27 1001.13L1004.28 1002.87L2001.01 1572L2002 1570.26ZM1004.78 1001H1002V1003H1004.78V1001ZM1001 1002V1005.12H1003V1002H1001ZM1001 1000.41V1002H1003V1000.41H1001ZM2001 1001L1004.78 1001L1004.78 1003L2001 1003L2001 1001ZM1002 1001H1000.2V1003H1002V1001ZM2001 430L1002.53 1000.13L1003.52 1001.87L2002 431.736L2001 430ZM1002.53 1001.87L1004.28 1002.87L1005.27 1001.13L1003.52 1000.13L1002.53 1001.87ZM1002.53 1000.13L999.966 1001.59L1000.96 1003.33L1003.52 1001.87L1002.53 1000.13ZM1576.78 3.7373L1001.51 1000.13L1003.24 1001.13L1578.51 4.7373L1576.78 3.7373ZM1001.88 1001.5L1002.53 1001.87L1003.52 1000.13L1002.87 999.761L1001.88 1001.5ZM1002.87 999.761L1002.5 999.547L1001.5 1001.28L1001.88 1001.5L1002.87 999.761ZM1001.51 1000.13L1000.02 1002.7L1001.76 1003.7L1003.24 1001.13L1001.51 1000.13Z" fill="#2F1664"/>
</svg>
