<svg width="677" height="439" viewBox="0 0 677 439" fill="none" xmlns="http://www.w3.org/2000/svg">
<g clip-path="url(#clip0_324_425)">
<path d="M575.02 18.81C566.72 30.05 559.3 46 553.02 66.21C540.2 107.21 533.15 161.55 533.15 219.31C533.15 277.07 540.15 331.45 553.02 372.41C559.34 392.62 566.76 408.57 575.02 419.81C584.26 432.29 594.35 438.62 605.02 438.62C611.52 438.62 617.91 436.2 624.02 431.44C633.91 423.69 642.9 409.87 650.73 390.34C658.28 371.53 664.39 348.42 668.9 321.66C674.15 290.39 676.93 255 676.93 219.31C676.93 183.62 674.15 148.23 668.88 117C664.37 90.2 658.26 67.09 650.71 48.28C642.88 28.75 633.93 14.92 624 7.18C617.93 2.42 611.52 -2.85916e-06 605.02 -3.14329e-06C594.35 -3.60969e-06 584.26 6.33 575.02 18.81ZM670.17 219.31C670.297 252.48 667.762 285.606 662.59 318.37C641.457 311.787 622.979 298.628 609.848 280.809C596.717 262.991 589.619 241.444 589.59 219.31C589.629 197.185 596.731 175.651 609.862 157.844C622.992 140.037 641.465 126.887 662.59 120.31C667.759 153.054 670.294 186.16 670.17 219.31V219.31ZM617.85 11.13C606.48 21.13 596.15 40.19 587.75 67.07C575.02 107.77 568.01 161.83 568.01 219.31C568.01 276.79 575.01 330.86 587.75 371.55C596.15 398.43 606.48 417.45 617.85 427.49C614.116 430.215 609.641 431.739 605.02 431.86C588.26 431.86 571.65 409.45 559.43 370.39C546.82 330.07 539.87 276.39 539.87 219.31C539.87 162.23 546.82 108.56 559.43 68.23C571.65 29.17 588.26 6.76 605.02 6.76C609.641 6.88054 614.116 8.40475 617.85 11.13V11.13Z" fill="#F9F4F2"/>
<path d="M302.771 297.42C320.841 315.487 344.617 326.728 370.047 329.23C395.477 331.732 420.987 325.339 442.232 311.14C463.477 296.942 479.142 275.817 486.557 251.364C493.973 226.911 492.68 200.644 482.9 177.037C473.12 153.43 455.458 133.944 432.922 121.9C410.386 109.856 384.371 105.998 359.309 110.983C334.248 115.969 311.691 129.49 295.48 149.243C279.27 168.996 270.411 193.758 270.411 219.31C270.37 233.823 273.209 248.2 278.764 261.608C284.319 275.016 292.478 287.188 302.771 297.42V297.42ZM380.881 115.6C401.392 115.6 421.444 121.683 438.499 133.079C455.554 144.475 468.847 160.672 476.696 179.622C484.546 198.573 486.599 219.425 482.598 239.543C478.596 259.661 468.719 278.14 454.215 292.644C439.71 307.149 421.231 317.026 401.113 321.028C380.996 325.029 360.143 322.976 341.192 315.126C322.242 307.276 306.045 293.984 294.649 276.929C283.253 259.874 277.171 239.822 277.171 219.31C277.202 191.815 288.139 165.454 307.582 146.011C327.024 126.569 353.385 115.632 380.881 115.6V115.6Z" fill="#F9F4F2"/>
<path d="M113.87 399C124.73 375.47 133.17 342.94 138.31 304.83C150.995 294.47 161.218 281.42 168.238 266.623C175.258 251.826 178.9 235.653 178.9 219.275C178.9 202.897 175.258 186.724 168.238 171.927C161.218 157.13 150.995 144.08 138.31 133.72C133.17 95.6 124.73 63.07 113.87 39.54C101.93 13.69 87.3999 -3.99961e-06 71.9299 -4.67583e-06C65.4299 -4.95995e-06 59.0399 2.41999 52.9299 7.17999C31.8699 23.66 14.7799 68.41 6.0299 130L6.0299 130.19C1.95076 159.73 -0.0541517 189.52 0.0298976 219.34C-0.0595267 249.184 1.9454 278.997 6.02989 308.56L6.02989 308.65C14.7799 370.19 31.8699 415 52.9299 431.44C59.0199 436.2 65.4099 438.62 71.9299 438.62C87.3999 438.62 101.93 424.93 113.87 399ZM172.13 219.31C172.139 237.915 167.14 256.181 157.658 272.189C148.177 288.197 134.561 301.358 118.24 310.291C101.92 319.224 83.4954 323.6 64.9009 322.959C46.3065 322.318 28.2272 316.685 12.5599 306.65C10.3099 290.65 8.68993 273.65 7.74993 256.18C7.64993 254.46 7.56992 252.73 7.48992 251C7.32992 247.53 7.18989 244.05 7.08989 240.54C6.86989 233.533 6.75994 226.457 6.75994 219.31C6.75994 212.163 6.8699 205.087 7.0899 198.08C7.1899 194.57 7.32992 191.08 7.48992 187.62C7.56992 185.89 7.64993 184.16 7.74993 182.44C8.68993 164.94 10.3099 148.02 12.5599 131.97C28.2272 121.935 46.3065 116.302 64.9009 115.661C83.4954 115.02 101.92 119.396 118.24 128.329C134.561 137.262 148.177 150.423 157.658 166.431C167.14 182.44 172.139 200.705 172.13 219.31V219.31ZM59.0799 427.49C70.4499 417.49 80.7799 398.43 89.1799 371.55C94.1565 355.277 98.0418 338.69 100.81 321.9C111.718 318.441 122.005 313.263 131.28 306.56C127.99 330.05 123.36 351.66 117.5 370.39C105.28 409.45 88.6699 431.86 71.9099 431.86C67.2888 431.739 62.8139 430.215 59.0799 427.49ZM100.81 116.72C98.0418 99.9298 94.1565 83.3429 89.1799 67.07C80.7799 40.19 70.45 21.17 59.08 11.13C62.8195 8.40091 67.302 6.8765 71.9299 6.76C88.6899 6.76 105.3 29.17 117.52 68.23C123.38 86.96 128.01 108.57 131.3 132.06C122.019 125.355 111.725 120.177 100.81 116.72V116.72Z" fill="#F9F4F2"/>
</g>
<defs>
<clipPath id="clip0_324_425">
<rect width="438.62" height="676.93" fill="white" transform="translate(676.93) rotate(90)"/>
</clipPath>
</defs>
</svg>
