<svg width="834" height="928" viewBox="0 0 834 928" fill="none" xmlns="http://www.w3.org/2000/svg">
<path d="M353.5 826.1H97.8004C91.7004 826.1 86.4004 823.7 83.1004 819.3C79.7004 814.8 78.6004 808.7 80.3004 802.4C83.6004 790 95.8004 780.4 108.2 780.4H364C365 780.4 365.9 780.9 366.5 781.6C367.1 782.4 367.3 783.4 367.1 784.3L356.7 823.7C356.2 825.2 355 826.1 353.5 826.1ZM108.1 786.8C98.6004 786.8 88.8004 794.6 86.3004 804.1C85.1004 808.5 85.7004 812.6 88.0004 815.5C90.1004 818.3 93.6004 819.8 97.7004 819.8H351L359.7 786.8H108.1V786.8Z" fill="#F9F4F2"/>
<path d="M465.701 401.1H209.901C203.801 401.1 198.501 398.7 195.201 394.3C191.701 389.8 190.701 383.8 192.401 377.4C195.701 365 207.901 355.4 220.301 355.4H476.001C477.001 355.4 477.901 355.9 478.501 356.6C479.101 357.4 479.301 358.4 479.101 359.3L468.701 398.7C468.301 400.2 467.101 401.1 465.701 401.1ZM220.301 361.8C210.801 361.8 201.001 369.6 198.501 379.1C197.301 383.5 197.901 387.6 200.201 390.5C202.301 393.3 205.801 394.8 209.901 394.8H463.201L471.901 361.8H220.301Z" fill="#F9F4F2"/>
<path d="M503 259.5H247.2C241.1 259.5 235.8 257.1 232.5 252.7C229 248.2 228 242.2 229.7 235.8C233 223.4 245.2 213.8 257.6 213.8H513.4C514.4 213.8 515.3 214.3 515.9 215C516.5 215.8 516.7 216.8 516.5 217.7L506.1 257.1C505.7 258.5 504.5 259.5 503 259.5ZM257.6 220.1C248.1 220.1 238.3 227.9 235.8 237.4C234.6 241.8 235.2 245.9 237.5 248.8C239.6 251.6 243.1 253.1 247.2 253.1H500.5L509.2 220.1H257.6Z" fill="#F9F4F2"/>
<path d="M540.399 117.8H284.599C278.499 117.8 273.199 115.4 269.899 111C266.499 106.5 265.399 100.4 267.099 94.0996C270.399 81.6996 282.599 72.0996 294.999 72.0996H550.799C551.799 72.0996 552.699 72.5996 553.299 73.2996C553.899 74.0996 554.099 75.0996 553.899 75.9996L543.499 115.4C543.099 116.8 541.799 117.8 540.399 117.8ZM294.999 78.4996C285.499 78.4996 275.699 86.2996 273.199 95.7996C271.999 100.2 272.599 104.3 274.899 107.2C276.999 110 280.499 111.5 284.599 111.5H537.999L546.699 78.4996H294.999V78.4996Z" fill="#F9F4F2"/>
<path d="M277.099 10.5C291.199 8.9 305.699 7.6 320.399 6.5C138.499 19.9 3.19922 69.9 3.19922 129.6C3.19922 177.2 89.2992 218.7 216.499 240.3L277.099 10.5Z" fill="#F9F4F2"/>
<path d="M216.5 243.5C216.3 243.5 216.1 243.5 216 243.5C152.2 232.7 98.5 216.8 60.7 197.6C41.4 187.8 26.5 177.2 16.3 166.2C5.5 154.4 0 142.1 0 129.6C0 99.1999 32 70.7999 92.4 47.6999C150.1 25.5999 231 9.89993 320.2 3.39993C321.9 3.29993 323.5 4.59993 323.6 6.29993C323.7 7.99993 322.4 9.59992 320.7 9.69992C307.3 10.6999 293.5 11.8999 279.6 13.3999L219.5 241.1C219.2 242.5 217.9 243.5 216.5 243.5ZM272.9 14.1999C203.4 22.0999 141.4 35.7999 94.7 53.6999C37.7 75.4999 6.3 102.5 6.3 129.7C6.3 151.4 26.1 173 63.5 192C100.1 210.6 152.2 226.1 214.1 236.8L272.9 14.1999Z" fill="#F9F4F2"/>
<path d="M416.902 3.09961C383.802 3.09961 351.602 4.2996 320.802 6.4996L302.602 75.2996H550.702L567.502 11.7996C581.602 13.4996 595.302 15.3996 608.602 17.4996L547.302 249.7C711.802 233 830.502 185.5 830.502 129.6C830.602 59.6996 645.402 3.09961 416.902 3.09961Z" fill="#F9F4F2"/>
<path d="M547.401 252.9C546.501 252.9 545.601 252.5 545.001 251.8C544.301 251 544.101 249.9 544.301 248.9L604.701 20.1C593.201 18.3 581.601 16.7 569.901 15.2L553.801 76C553.401 77.4 552.201 78.4 550.701 78.4H302.601C301.601 78.4 300.701 77.9 300.101 77.2C299.501 76.4 299.301 75.4 299.501 74.5L317.601 5.7C317.901 4.4 319.101 3.50001 320.401 3.40001C351.801 1.10001 384.201 0 416.701 0C527.501 0 631.701 13.2 710.201 37.2C789.801 61.5 833.601 94.4 833.601 129.7C833.601 158.2 805.301 185 751.801 207.4C700.301 228.9 629.701 244.6 547.601 253C547.601 252.9 547.501 252.9 547.401 252.9ZM611.001 21L551.601 246.1C631.101 237.7 699.501 222.3 749.501 201.5C800.501 180.2 827.501 155.4 827.501 129.7C827.501 113.7 817.001 98 796.301 83C775.701 68.1 746.201 54.8 708.601 43.2C679.301 34.2 646.401 26.8 611.001 21ZM306.801 72.1H548.401L563.601 14.4C517.401 9.00001 467.901 6.2 416.901 6.2C385.401 6.2 353.901 7.3 323.301 9.5L306.801 72.1Z" fill="#F9F4F2"/>
<path d="M265.301 217H513.401L540.401 114.6H292.301L265.301 217Z" fill="#F9F4F2"/>
<path d="M513.4 220.1H265.3C264.3 220.1 263.4 219.6 262.8 218.9C262.2 218.1 262 217.1 262.2 216.2L289.2 113.9C289.6 112.5 290.8 111.5 292.3 111.5H540.4C541.4 111.5 542.3 112 542.9 112.7C543.5 113.5 543.7 114.5 543.5 115.4L516.5 217.7C516.1 219.1 514.8 220.1 513.4 220.1ZM269.4 213.8H511L536.3 117.8H294.7L269.4 213.8Z" fill="#F9F4F2"/>
<path d="M78.5992 927.8H35.9992C34.9992 927.8 34.0992 927.3 33.4992 926.6C32.8992 925.8 32.6992 924.8 32.8992 923.9L273.999 9.69986C274.299 8.39986 275.399 7.49987 276.699 7.39987C291.499 5.79987 306.299 4.39987 320.499 3.39987C321.499 3.29987 322.499 3.69986 323.199 4.49986C323.899 5.29986 324.099 6.29986 323.799 7.29986L305.699 76.0999C305.299 77.4999 304.099 78.4999 302.599 78.4999H294.999C285.499 78.4999 275.699 86.2999 273.199 95.7999C271.999 100.2 272.599 104.3 274.899 107.2C276.999 110 280.499 111.5 284.599 111.5H292.299C293.299 111.5 294.199 112 294.799 112.7C295.399 113.5 295.599 114.5 295.399 115.4L268.399 217.7C267.999 219.1 266.799 220.1 265.299 220.1H257.599C248.099 220.1 238.299 227.9 235.799 237.4C234.599 241.8 235.199 245.9 237.499 248.8C239.599 251.6 243.099 253.1 247.199 253.1H254.899C255.899 253.1 256.799 253.6 257.399 254.3C257.999 255.1 258.199 256.1 257.999 257L230.999 359.3C230.599 360.7 229.399 361.7 227.899 361.7H220.199C210.699 361.7 200.899 369.5 198.399 379C197.199 383.4 197.799 387.5 200.099 390.4C202.199 393.2 205.699 394.7 209.799 394.7H217.499C218.499 394.7 219.399 395.2 219.999 395.9C220.599 396.7 220.799 397.7 220.599 398.6L193.599 500.9C193.199 502.3 191.999 503.3 190.499 503.3H182.799C173.299 503.3 163.499 511.1 160.999 520.6C159.799 525 160.399 529.1 162.699 532C164.799 534.8 168.299 536.3 172.399 536.3H180.099C181.099 536.3 181.999 536.8 182.599 537.5C183.199 538.3 183.399 539.3 183.199 540.2L156.199 642.5C155.799 643.9 154.599 644.9 153.099 644.9H145.399C135.899 644.9 126.099 652.7 123.599 662.2C122.399 666.6 122.999 670.7 125.299 673.6C127.399 676.4 130.899 677.9 134.999 677.9H142.699C143.699 677.9 144.599 678.4 145.199 679.1C145.799 679.9 145.999 680.9 145.799 681.8L118.799 784.1C118.399 785.5 117.199 786.5 115.699 786.5H107.999C98.4992 786.5 88.6992 794.3 86.1992 803.8C84.9992 808.2 85.5992 812.3 87.8992 815.2C89.9992 818 93.4992 819.5 97.5992 819.5H105.299C106.299 819.5 107.199 820 107.799 820.7C108.399 821.5 108.599 822.5 108.399 823.4L81.5992 925.1C81.2992 926.8 79.9992 927.8 78.5992 927.8ZM40.0992 921.5H76.1992L101.399 826.2H97.8992C91.7992 826.2 86.4992 823.8 83.1992 819.4C79.7992 814.9 78.6992 808.8 80.3992 802.5C83.6992 790.1 95.8992 780.5 108.299 780.5H113.499L138.799 684.5H135.199C129.099 684.5 123.799 682.1 120.499 677.7C116.999 673.2 115.999 667.2 117.699 660.8C120.999 648.4 133.199 638.8 145.599 638.8H150.799L176.099 542.8H172.599C166.499 542.8 161.199 540.4 157.899 536C154.399 531.5 153.399 525.5 155.099 519.1C158.399 506.7 170.599 497.1 182.999 497.1H188.199L213.499 401.1H209.999C203.899 401.1 198.599 398.7 195.299 394.3C191.799 389.8 190.799 383.8 192.499 377.4C195.799 365 207.999 355.4 220.399 355.4H225.599L250.899 259.4H247.399C241.299 259.4 235.999 257 232.699 252.6C229.199 248.1 228.199 242.1 229.899 235.7C233.199 223.3 245.399 213.7 257.799 213.7H262.999L288.299 117.7H284.699C278.599 117.7 273.299 115.3 269.999 110.9C266.599 106.4 265.499 100.3 267.199 93.9999C270.499 81.5999 282.699 71.9999 295.099 71.9999H300.299L316.699 9.89987C304.599 10.7999 292.199 11.9999 279.699 13.2999L40.0992 921.5Z" fill="#F9F4F2"/>
<path d="M369.3 927.8H326.7C325.7 927.8 324.8 927.3 324.2 926.6C323.6 925.8 323.4 924.8 323.6 923.9L564.4 11.0998C564.8 9.59984 566.3 8.59983 567.8 8.79983C581.6 10.4998 595.5 12.3998 609 14.5998C609.9 14.6998 610.7 15.1998 611.1 15.9998C611.6 16.6998 611.7 17.6998 611.5 18.4998L372.2 925.6C372 926.8 370.8 927.8 369.3 927.8ZM330.8 921.5H366.9L604.7 20.0998C593.2 18.2998 581.6 16.6998 569.9 15.1998L330.8 921.5Z" fill="#F9F4F2"/>
<path d="M390.9 684.5H135.1C129 684.5 123.7 682.1 120.4 677.7C116.9 673.2 115.9 667.2 117.6 660.8C120.9 648.4 133.1 638.8 145.5 638.8H401.3C402.3 638.8 403.2 639.3 403.8 640C404.4 640.8 404.6 641.8 404.4 642.7L394 682.1C393.6 683.5 392.3 684.5 390.9 684.5ZM145.5 645.1C136 645.1 126.2 652.9 123.7 662.4C122.5 666.8 123.1 670.9 125.4 673.8C127.5 676.6 131 678.1 135.1 678.1H388.4L397.1 645.1H145.5V645.1Z" fill="#F9F4F2"/>
<path d="M428.301 542.8H172.501C166.401 542.8 161.101 540.4 157.801 536C154.301 531.5 153.301 525.5 155.001 519.1C158.301 506.7 170.501 497.1 182.901 497.1H438.701C439.701 497.1 440.601 497.6 441.201 498.3C441.801 499.1 442.001 500.1 441.801 501L431.401 540.4C431.001 541.8 429.701 542.8 428.301 542.8ZM182.901 503.4C173.401 503.4 163.601 511.2 161.101 520.7C159.901 525.1 160.501 529.2 162.801 532.1C164.901 534.9 168.401 536.4 172.501 536.4H425.801L434.501 503.4H182.901V503.4Z" fill="#F9F4F2"/>
</svg>
