<svg width="545" height="866" viewBox="0 0 545 866" fill="none" xmlns="http://www.w3.org/2000/svg">
<path d="M544.879 731.018C544.884 730.945 544.884 730.872 544.879 730.798C544.884 730.752 544.884 730.705 544.879 730.658C544.879 730.658 544.879 730.658 544.879 730.588C544.84 730.44 544.787 730.296 544.719 730.158C544.723 730.119 544.723 730.078 544.719 730.038C544.622 729.874 544.505 729.722 544.369 729.588L544.249 729.488C544.163 729.413 544.073 729.343 543.979 729.278H543.899L543.709 729.198C543.589 729.149 543.465 729.109 543.339 729.078C543.302 729.083 543.265 729.083 543.229 729.078L498.829 722.838L498.739 674.838C498.744 674.762 498.744 674.685 498.739 674.608C498.744 674.565 498.744 674.522 498.739 674.478C498.739 674.478 498.739 674.478 498.739 674.408C498.7 674.26 498.647 674.116 498.579 673.978C498.583 673.939 498.583 673.898 498.579 673.858C498.485 673.692 498.367 673.54 498.229 673.408L498.109 673.308C498.023 673.233 497.933 673.163 497.839 673.098H497.759C497.7 673.062 497.636 673.035 497.569 673.018C497.448 672.969 497.325 672.929 497.199 672.898C497.162 672.894 497.125 672.894 497.089 672.898L452.689 666.658L452.599 618.658C452.604 618.582 452.604 618.505 452.599 618.428C452.604 618.385 452.604 618.342 452.599 618.298C452.599 618.298 452.599 618.298 452.599 618.228C452.562 618.079 452.508 617.935 452.439 617.798C452.443 617.759 452.443 617.718 452.439 617.678C452.342 617.511 452.225 617.356 452.089 617.218L451.969 617.128C451.883 617.053 451.793 616.983 451.699 616.918H451.619C451.558 616.882 451.495 616.852 451.429 616.828C451.31 616.778 451.186 616.741 451.059 616.718C451.022 616.714 450.985 616.714 450.949 616.718L406.559 610.478L406.469 562.478C406.474 562.405 406.474 562.332 406.469 562.258C406.464 562.212 406.464 562.165 406.469 562.118V562.048C406.434 561.9 406.384 561.756 406.319 561.618L406.269 561.498C406.176 561.331 406.058 561.18 405.919 561.048C405.919 561.048 405.839 560.988 405.799 560.948C405.717 560.873 405.63 560.803 405.539 560.738H405.449L405.269 560.658C405.145 560.609 405.018 560.569 404.889 560.538C404.856 560.544 404.822 560.544 404.789 560.538L360.019 553.968L359.929 505.968C359.934 505.895 359.934 505.822 359.929 505.748C359.924 505.702 359.924 505.655 359.929 505.608V505.538C359.894 505.39 359.844 505.246 359.779 505.108L359.729 504.988C359.636 504.821 359.518 504.67 359.379 504.538C359.343 504.5 359.303 504.466 359.259 504.438C359.177 504.363 359.09 504.293 358.999 504.228H358.919L358.729 504.148C358.605 504.099 358.478 504.059 358.349 504.028H358.249L200.849 481.778C200.593 481.607 200.303 481.495 199.999 481.448L155.539 475.208L156.169 309.658L156.599 85.9684C156.599 85.0684 156.599 84.1784 156.599 83.2984V82.0284C156.599 81.5084 156.599 81.0284 156.599 80.4584V79.7184C156.599 78.8384 156.539 77.9584 156.499 77.1784C156.499 77.1784 156.499 77.1084 156.499 77.0784V76.7684L156.439 75.7684L156.309 73.6484L156.159 71.6484L156.019 70.9684C156.019 70.6084 155.959 70.2484 155.919 69.8884L155.779 68.4384V68.0684L155.459 65.9684L155.369 65.2084C155.289 64.5884 155.199 63.9584 155.109 63.3184L155.029 62.7184C154.909 61.9184 154.789 61.1184 154.659 60.3184L154.579 59.8484C154.479 59.2084 154.369 58.5684 154.249 57.9384L153.659 54.8684C153.509 54.1284 153.349 53.3984 153.179 52.6384L153.059 52.1284C152.929 51.5384 152.789 50.9684 152.649 50.3884V50.3284L152.499 49.7084C152.349 49.1084 152.189 48.5184 152.039 47.9384L151.929 47.5384L151.559 46.2284C151.479 45.9684 151.409 45.7084 151.329 45.4484L151.169 44.9184C151.009 44.3784 150.839 43.8484 150.669 43.3184L150.469 42.6884C150.279 42.1084 150.089 41.5284 149.889 40.9584L149.779 40.6384C149.549 39.9684 149.299 39.3084 149.059 38.6384L148.859 38.1084C148.709 37.7184 148.549 37.3184 148.389 36.9284L148.019 35.9684C147.779 35.3884 147.539 34.8084 147.269 34.1784V34.0784C147.059 33.5984 146.839 33.1284 146.629 32.6584L146.199 31.7384C145.989 31.2884 145.769 30.8384 145.549 30.3984L145.079 29.4784C144.849 29.0284 144.619 28.5784 144.379 28.1384L143.919 27.2984L143.439 26.4384L142.149 24.2684C141.819 23.7384 141.479 23.2084 141.149 22.6884L141.049 22.5484C140.739 22.0784 140.419 21.6084 140.099 21.1484L139.799 20.7284C139.539 20.3584 139.259 19.9784 138.989 19.6084L138.699 19.2184C138.325 18.7384 137.955 18.2684 137.589 17.8084L137.409 17.5884C137.089 17.1984 136.769 16.8084 136.409 16.4284L136.019 15.9684C135.729 15.6384 135.439 15.3084 135.129 14.9684L134.509 14.2984L133.639 13.3984L132.399 12.1584L132.029 11.8184C131.699 11.5084 131.369 11.2084 131.029 10.9184L130.779 10.6984L129.779 9.8284L129.239 9.3984C128.899 9.1284 128.549 8.8584 128.239 8.6084L127.859 8.3284C127.489 8.0684 127.129 7.8084 126.739 7.5484L126.519 7.3984L125.759 6.9684L125.359 6.7184L124.869 6.3984L124.519 6.1884C124.159 5.9684 123.789 5.7484 123.429 5.5484L123.019 5.2884L122.239 4.8684L121.729 4.5984L121.569 4.5184C121.089 4.2684 120.569 4.0384 120.109 3.8184L119.749 3.6584L118.619 3.1684L118.119 2.9684C117.669 2.7884 117.219 2.6184 116.729 2.4484H116.619L115.099 1.9484L113.099 1.3784C112.579 1.2484 112.099 1.1184 111.519 1.0084L110.119 0.648397L109.339 0.518397L108.759 0.428397C101.311 -0.570356 93.7337 0.18296 86.6287 2.6284L86.1787 2.7884C85.5987 2.97506 85.0187 3.17506 84.4387 3.3884L83.6787 3.6784L82.0187 4.3284L81.2387 4.6584C80.6987 4.8884 80.1587 5.1384 79.6087 5.3884L78.8687 5.7284C78.0887 6.0984 77.2987 6.4884 76.5187 6.8884C33.7787 29.0884 0.15871 99.0784 0.0187099 166.228V559.168C-0.00623663 559.358 -0.00623663 559.549 0.0187099 559.738C0.0187099 559.738 0.0187099 559.838 0.0187099 559.888L0.54871 808.398C0.54487 808.888 0.720929 809.362 1.0435 809.731C1.36606 810.1 1.8127 810.337 2.29871 810.398L391.439 865.088H391.719C391.865 865.104 392.012 865.104 392.159 865.088H392.279C392.397 865.06 392.512 865.016 392.619 864.958H392.689L543.919 782.598C544.239 782.425 544.506 782.168 544.691 781.854C544.877 781.541 544.972 781.183 544.969 780.818L544.879 731.018ZM540.879 779.618L393.739 859.688L393.649 814.488L540.839 734.418L540.879 779.618ZM108.699 4.5084L109.409 4.6284L110.559 4.8484L111.979 5.1884L113.829 5.7084C114.289 5.8484 114.759 5.9984 115.249 6.1784H115.349C115.759 6.3184 116.179 6.4784 116.589 6.6484L116.979 6.8084L117.979 7.2484L118.349 7.4184C118.789 7.6184 119.219 7.8284 119.739 8.0884L120.949 8.7384L121.339 8.9584L122.339 9.5384L122.659 9.7284L123.079 9.9984L123.909 10.5384L124.149 10.6984C124.489 10.9284 124.819 11.1684 125.149 11.4084L125.509 11.6684L126.509 12.3984L126.999 12.7984C127.319 13.0584 127.639 13.3184 127.949 13.5884L128.209 13.8284L129.129 14.6484L129.479 14.9784L130.419 15.8784L130.629 16.0884C130.899 16.3584 131.169 16.6384 131.449 16.9484L131.949 17.4684L132.019 17.5484L132.899 18.5484L133.179 18.8684C133.489 19.2284 133.789 19.5884 134.089 19.9584L134.249 20.1484L135.249 21.4784L135.519 21.8384C135.769 22.1884 136.029 22.5384 136.279 22.8984L136.569 23.2984C136.869 23.7284 137.159 24.1584 137.479 24.6484L137.539 24.7284C137.859 25.2184 138.179 25.7284 138.539 26.2284L139.759 28.2284C139.909 28.4984 140.059 28.7584 140.199 29.0284L140.649 29.8384C140.879 30.2484 141.089 30.6784 141.319 31.1084L141.749 31.9784L142.379 33.2584L142.779 34.1284C142.989 34.5784 143.199 35.0384 143.429 35.5584V35.6684C143.669 36.2084 143.899 36.7584 144.129 37.3084L144.449 38.1284L144.899 39.2684L145.089 39.7684C145.329 40.3984 145.559 41.0284 145.779 41.6684L145.889 41.9784C146.079 42.5284 146.259 43.0784 146.449 43.6384L147.119 45.7884L147.859 48.3484L147.969 48.7584L148.419 50.4684L148.579 51.1184C148.719 51.6784 148.849 52.2384 148.989 52.8384L149.099 53.2984C149.259 54.0184 149.419 54.7484 149.569 55.4884L150.139 58.4884C150.249 59.0984 150.359 59.7184 150.459 60.3384L150.539 60.7984C150.669 61.5684 150.779 62.3484 150.899 63.1284L150.979 63.7284L151.229 65.6284L151.309 66.2884C151.399 66.9684 151.469 67.6584 151.549 68.3484V68.7284L151.679 70.1484C151.679 70.4884 151.749 70.8384 151.779 71.1484L152.019 71.9684C152.019 72.5984 152.119 73.2284 152.169 73.9684L152.289 75.9684C152.289 76.2984 152.289 76.6284 152.349 76.9684V77.1684C152.349 78.0284 152.429 78.8984 152.459 79.6984V80.5084C152.459 81.0084 152.459 81.5084 152.459 82.0384V83.2684C152.459 84.1284 152.459 84.9984 152.459 85.9484L152.019 309.608L151.399 474.608L117.509 470.008L115.839 469.768L116.599 80.1084C116.599 79.1884 116.599 78.2784 116.599 77.3684V76.5684C116.599 75.8984 116.599 75.2184 116.549 74.5684V73.8084C116.549 72.9184 116.479 72.0284 116.439 71.1484V70.9684C116.439 70.1684 116.349 69.3684 116.299 68.5784V67.8084C116.245 67.1417 116.195 66.4751 116.149 65.8084L116.089 65.1084C116.019 64.2684 115.939 63.4184 115.849 62.5884V62.1984L115.609 60.0784L115.509 59.3184C115.429 58.6884 115.349 58.0684 115.259 57.4484L115.179 56.8284C115.059 56.0184 114.939 55.2184 114.809 54.4284L114.729 53.9584C114.629 53.2917 114.519 52.6517 114.399 52.0384L114.269 51.3184C114.149 50.7084 114.039 50.1084 113.909 49.4984L113.809 48.9784C113.649 48.2184 113.489 47.4584 113.319 46.7084L113.199 46.1984C113.069 45.6084 112.929 45.0284 112.779 44.4484L112.619 43.7684C112.469 43.1784 112.309 42.5884 112.149 41.9984L112.039 41.5684C111.839 40.8584 111.639 40.1484 111.429 39.4484L111.219 38.9684C111.059 38.4284 110.889 37.8884 110.719 37.3584L110.519 36.7284C110.329 36.1484 110.139 35.5684 109.939 34.9984L109.829 34.6784L109.109 32.6784L108.899 32.1484C108.719 31.6584 108.519 31.1484 108.329 30.6784L108.099 30.0984C107.859 29.5284 107.619 28.9484 107.349 28.3284L107.289 28.2084C107.019 27.5784 106.749 26.9684 106.459 26.3684L106.219 25.8484C105.999 25.3984 105.789 24.9484 105.569 24.5084L105.309 23.9784C105.009 23.3984 104.709 22.8184 104.399 22.2384C104.089 21.6584 103.779 21.1084 103.459 20.5584L103.179 20.0684C102.939 19.6484 102.689 19.2384 102.439 18.8384L102.159 18.3784C101.829 17.8384 101.499 17.3184 101.159 16.7884L101.059 16.6484C100.749 16.1784 100.429 15.7184 100.059 15.2584L99.7387 14.8084C99.472 14.4284 99.202 14.0584 98.9287 13.6984L98.6287 13.2984C98.2687 12.8184 97.8987 12.2984 97.5287 11.8784L97.3487 11.6684C97.0287 11.2684 96.7087 10.8884 96.3487 10.5084L95.9987 10.0984L95.0987 9.0984L94.7987 8.7684C94.3987 8.3384 93.9987 7.9284 93.5987 7.5184L93.3487 7.2784L92.3487 6.2784L92.0187 5.9684L91.4587 5.4684C96.8952 4.04007 102.56 3.70023 108.129 4.4684L108.639 4.5584L108.699 4.5084ZM35.0187 123.098C34.7754 122.715 34.6701 122.259 34.72 121.808C34.77 121.356 34.9723 120.935 35.2937 120.613C35.615 120.292 36.0362 120.09 36.4879 120.04C36.9396 119.99 37.3949 120.095 37.7787 120.338L45.3387 124.688L52.9087 120.338C53.2925 120.095 53.7478 119.99 54.1995 120.04C54.6512 120.09 55.0724 120.292 55.3937 120.613C55.7151 120.935 55.9174 121.356 55.9674 121.808C56.0174 122.259 55.912 122.715 55.6687 123.098L51.3187 130.658L55.6687 138.228C55.845 138.534 55.9375 138.88 55.9367 139.233C55.9359 139.586 55.8419 139.932 55.6643 140.236C55.4866 140.541 55.2316 140.793 54.925 140.967C54.6185 141.141 54.2713 141.232 53.9187 141.228C53.5675 141.228 53.2226 141.135 52.9187 140.958L45.3487 136.608L37.7287 140.968C37.347 141.181 36.9061 141.263 36.4734 141.202C36.0407 141.14 35.64 140.939 35.3327 140.628C35.0253 140.317 34.8283 139.914 34.7716 139.481C34.7149 139.048 34.8017 138.608 35.0187 138.228L39.3687 130.658L35.0187 123.098ZM50.9387 467.968C51.115 468.274 51.2075 468.62 51.2067 468.973C51.2059 469.326 51.1119 469.672 50.9343 469.976C50.7566 470.281 50.5016 470.533 50.195 470.707C49.8885 470.881 49.5413 470.972 49.1887 470.968C48.8371 470.971 48.4914 470.877 48.1887 470.698L40.6287 466.348L33.0187 470.678C32.6395 470.891 32.2013 470.975 31.7705 470.916C31.3396 470.857 30.9396 470.66 30.6311 470.354C30.3225 470.047 30.1221 469.649 30.0604 469.218C29.9986 468.788 30.0787 468.349 30.2887 467.968L34.6387 460.408L30.2887 452.838C30.03 452.458 29.9106 451.999 29.9506 451.54C29.9907 451.082 30.1878 450.651 30.5086 450.321C30.8294 449.991 31.2543 449.781 31.7116 449.728C32.1689 449.675 32.6306 449.781 33.0187 450.028L40.5887 454.378L48.1487 450.028C48.5325 449.785 48.9878 449.68 49.4395 449.73C49.8912 449.78 50.3124 449.982 50.6337 450.303C50.9551 450.625 51.1574 451.046 51.2074 451.498C51.2574 451.949 51.152 452.405 50.9087 452.788L46.5587 460.358L50.9387 467.968ZM42.8387 255.128C43.2806 255.229 43.6751 255.477 43.9578 255.831C44.2404 256.185 44.3943 256.625 44.3943 257.078C44.3943 257.532 44.2404 257.971 43.9578 258.326C43.6751 258.68 43.2806 258.928 42.8387 259.028L34.4087 261.298L32.1387 269.728C32.0423 270.175 31.7957 270.576 31.4399 270.863C31.0842 271.15 30.6409 271.307 30.1837 271.307C29.7266 271.307 29.2832 271.15 28.9275 270.863C28.5718 270.576 28.3251 270.175 28.2287 269.728L25.9587 261.298L17.5287 258.968C17.0868 258.868 16.6923 258.62 16.4097 258.266C16.127 257.911 15.9731 257.472 15.9731 257.018C15.9731 256.565 16.127 256.125 16.4097 255.771C16.6923 255.417 17.0868 255.169 17.5287 255.068L25.9587 252.798L28.2287 244.368C28.3251 243.922 28.5718 243.521 28.9275 243.234C29.2832 242.947 29.7266 242.79 30.1837 242.79C30.6409 242.79 31.0842 242.947 31.4399 243.234C31.7957 243.521 32.0423 243.922 32.1387 244.368L34.4087 252.798L42.8387 255.128ZM397.839 563.378L252.569 642.378L213.159 636.838L358.429 557.838L397.839 563.378ZM444.019 619.608L298.759 698.608L264.129 693.748L259.349 693.068L404.619 614.068L444.019 619.608ZM345.019 754.908L305.609 749.378L450.869 670.378L490.279 675.918L345.019 754.908ZM391.249 811.198L351.839 805.658L497.099 726.658L536.509 732.198L391.249 811.198ZM237.589 618.968L208.819 634.568V627.458L208.749 589.368L355.939 509.298L356.019 554.498L237.589 618.968ZM494.699 723.338L347.509 803.408V795.848L347.439 758.208L493.629 678.668L494.629 678.138L494.699 723.338ZM448.469 667.058L301.279 747.128V739.698L301.189 701.968L448.379 621.898L448.469 667.058ZM402.239 610.778L255.019 690.848V645.678L402.219 565.608L402.239 610.778ZM206.329 586.068L4.07871 557.648V532.408L114.279 473.648L117.049 474.058L153.229 478.968L198.229 485.298C198.484 485.469 198.775 485.582 199.079 485.628L351.549 507.048L206.329 586.068ZM87.0887 48.3284L89.2787 56.4584L97.4187 58.6484C97.8656 58.7448 98.2659 58.9914 98.5531 59.3472C98.8402 59.7029 98.9968 60.1462 98.9968 60.6034C98.9968 61.0605 98.8402 61.5039 98.5531 61.8596C98.2659 62.2154 97.8656 62.462 97.4187 62.5584L89.2787 64.7484L87.0887 72.8884C86.988 73.3303 86.7402 73.7248 86.3859 74.0075C86.0317 74.2901 85.5919 74.444 85.1387 74.444C84.6855 74.444 84.2457 74.2901 83.8915 74.0075C83.5372 73.7248 83.2894 73.3303 83.1887 72.8884L81.0187 64.7484L72.8787 62.5584C72.4318 62.462 72.0315 62.2154 71.7443 61.8596C71.4572 61.5039 71.3006 61.0605 71.3006 60.6034C71.3006 60.1462 71.4572 59.7029 71.7443 59.3472C72.0315 58.9914 72.4318 58.7448 72.8787 58.6484L81.0187 56.4584L83.2087 48.3284C83.3094 47.8865 83.5572 47.492 83.9115 47.2093C84.2658 46.9267 84.7055 46.7728 85.1587 46.7728C85.6119 46.7728 86.0517 46.9267 86.4059 47.2093C86.7602 47.492 87.008 47.8865 87.1087 48.3284H87.0887ZM94.4587 194.268C94.7074 194.652 94.8171 195.11 94.7695 195.564C94.7219 196.019 94.5199 196.444 94.1971 196.768C93.8744 197.092 93.4503 197.295 92.9957 197.344C92.5411 197.394 92.0833 197.286 91.6987 197.038L84.3987 192.828L77.0987 197.038C76.7936 197.212 76.4495 197.305 76.0987 197.308C75.7453 197.313 75.3968 197.225 75.0889 197.051C74.7809 196.878 74.5245 196.625 74.3456 196.321C74.1667 196.016 74.0719 195.669 74.0707 195.315C74.0694 194.962 74.1619 194.614 74.3387 194.308L78.5487 187.008L74.3387 179.708C74.0914 179.324 73.9834 178.866 74.0326 178.411C74.0818 177.957 74.2854 177.533 74.6093 177.21C74.9333 176.887 75.358 176.685 75.8128 176.638C76.2676 176.59 76.725 176.7 77.1087 176.948L84.4087 181.148L91.7087 176.948C92.0925 176.705 92.5478 176.6 92.9995 176.65C93.4512 176.7 93.8724 176.902 94.1937 177.223C94.5151 177.545 94.7174 177.966 94.7674 178.418C94.8174 178.869 94.712 179.325 94.4687 179.708L90.2687 187.008L94.4587 194.268ZM76.0187 352.358L78.2587 343.968C78.3594 343.527 78.6072 343.132 78.9615 342.849C79.3157 342.567 79.7555 342.413 80.2087 342.413C80.6619 342.413 81.1017 342.567 81.4559 342.849C81.8102 343.132 82.058 343.527 82.1587 343.968L84.4287 352.398L92.8587 354.668C93.3056 354.765 93.7059 355.011 93.9931 355.367C94.2802 355.723 94.4368 356.166 94.4368 356.623C94.4368 357.081 94.2802 357.524 93.9931 357.88C93.7059 358.235 93.3056 358.482 92.8587 358.578L84.4287 360.848L82.1587 369.278C82.058 369.72 81.8102 370.115 81.4559 370.397C81.1017 370.68 80.6619 370.834 80.2087 370.834C79.7555 370.834 79.3157 370.68 78.9615 370.397C78.6072 370.115 78.3594 369.72 78.2587 369.278L76.0187 360.808L67.5887 358.538C67.1418 358.442 66.7415 358.195 66.4543 357.84C66.1672 357.484 66.0106 357.041 66.0106 356.583C66.0106 356.126 66.1672 355.683 66.4543 355.327C66.7415 354.971 67.1418 354.725 67.5887 354.628L76.0187 352.358Z" fill="#F9F4F2"/>
</svg>
