<svg width="1322" height="1307" viewBox="0 0 1322 1307" fill="none" xmlns="http://www.w3.org/2000/svg">
<path d="M439.45 1307H7.20248C3.25591 1307 0 1303.74 0 1299.79V1229.96C0 1229.76 0 1229.57 0 1229.37C0 1229.27 0 1229.07 0.0986641 1228.87C0.0986641 1228.58 0.197328 1228.28 0.295992 1227.99C0.295992 1227.79 0.394656 1227.59 0.49332 1227.39L32.5591 1138.6C33.5458 1135.74 36.3084 1133.86 39.2683 1133.86H65.6116C69.3608 1128.43 74.0967 1124.67 78.3393 1122.2C78.0433 1120.23 77.9446 1118.45 77.9446 1117.17C77.9446 1104.82 86.1337 1100.48 95.1122 1097.61C99.2561 1094.75 102.907 1086.85 103.104 1084.57C103.597 1078.15 102.611 1074.01 100.045 1070.85C99.848 1070.65 99.7494 1070.35 99.5521 1070.15L97.8748 1067.49C91.4616 1059.49 91.1656 1051.98 92.0536 1047.04C93.3362 1039.83 98.0721 1033.81 101.92 1031.73C103.203 1031.04 105.176 1030.25 107.149 1029.56V555.077L107.445 541.941C107.445 540.954 107.544 540.065 107.544 539.176C107.643 537.102 107.643 535.027 107.741 532.855L109.122 515.175C109.32 513.002 109.517 510.928 109.813 508.953C109.912 508.064 110.01 507.076 110.109 506.187L111.392 495.915C111.49 494.829 111.688 493.841 111.786 492.755L114.154 479.52C114.352 478.631 114.45 477.841 114.648 477.051C115.042 474.976 115.437 472.705 116.029 470.334C117.312 464.803 118.594 458.976 120.074 453.149V453.05C121.653 447.321 123.33 441.593 124.909 435.864C126.29 431.321 127.869 426.876 129.25 422.629L130.533 418.777C138.623 396.159 148.785 374.233 160.625 353.393C172.465 332.651 186.278 312.898 201.571 294.527L210.45 284.255C211.437 283.07 212.424 281.983 213.509 280.897C217.061 277.144 221.304 272.6 225.645 268.156L225.743 268.057C229.986 264.007 234.327 259.859 238.57 255.81C242.319 252.452 245.97 249.192 249.62 246.13L252.087 243.958C289.184 212.944 330.919 189.042 376.206 172.943L391.006 168.005C391.104 168.005 391.104 168.005 391.203 167.906L393.374 167.215C399.491 165.437 405.115 163.856 410.443 162.375C410.541 162.375 410.541 162.375 410.64 162.375C416.362 160.992 422.184 159.609 428.005 158.325L430.175 157.832C430.274 157.832 430.274 157.832 430.373 157.832L436.983 156.646L450.106 154.375C450.204 154.375 450.303 154.375 450.402 154.375L470.134 151.906C470.233 151.906 470.332 151.906 470.43 151.906L481.481 150.918L490.262 150.325H490.36C492.63 150.226 494.8 150.128 496.971 150.128L512.264 149.831H1054.82C1038.83 137.782 1029.07 119.905 1028.47 100.447C1027.88 81.9776 1034.2 65.3846 1046.73 52.5447C1054.32 44.742 1063.99 38.5196 1075.44 34.1738C1077.61 31.0132 1080.08 28.1489 1082.64 25.4822C1098.62 9.08668 1122.11 0 1148.75 0C1174.1 0 1195.32 8.6916 1210.21 25.1859C1222.45 38.7171 1229.75 56.693 1231.52 77.5331L1258.26 69.6316C1258.36 69.6316 1258.56 69.5328 1258.76 69.5328C1258.95 69.4341 1259.25 69.4341 1259.55 69.4341C1259.64 69.4341 1259.74 69.4341 1259.84 69.4341C1260.04 69.4341 1260.14 69.4341 1260.24 69.4341C1272.27 69.4341 1279.87 65.3846 1287.86 61.1375C1295.56 56.9893 1303.55 52.7422 1314.8 52.7422C1318.74 52.7422 1322 56.0016 1322 59.9523V474.285C1322 478.236 1318.74 481.495 1314.8 481.495C1303.55 481.495 1295.56 477.248 1287.86 473.1C1279.87 468.853 1272.37 464.803 1260.24 464.803C1259.84 464.803 1259.45 464.803 1258.95 464.705C1258.85 464.705 1258.76 464.705 1258.66 464.606C1258.56 464.606 1258.36 464.507 1258.26 464.507L1231.52 456.606C1229.75 477.347 1222.45 495.421 1210.21 508.953C1195.32 525.447 1174.1 534.139 1148.84 534.139C1122.11 534.139 1098.62 525.052 1082.64 508.656C1081.56 507.57 1080.47 506.385 1079.38 505.002C1066.85 500.557 1055.9 493.841 1047.81 485.446C1035.28 472.507 1028.87 455.914 1029.36 437.444C1029.76 419.666 1037.85 403.073 1051.96 390.925C1055.71 387.665 1059.85 384.801 1064.29 382.431H511.869L506.443 382.628C505.752 382.628 505.16 382.628 504.568 382.628C503.877 382.628 503.285 382.628 502.693 382.628L498.846 382.924L494.011 383.221L491.248 383.616L485.427 384.307L476.252 385.986C473.785 386.579 471.22 387.171 468.654 387.764C465.99 388.554 463.524 389.246 461.156 389.937L460.465 390.135L454.052 392.307C434.911 399.122 417.152 409.296 401.365 422.432L395.643 427.469C393.867 429.247 391.894 431.025 390.019 432.802C388.342 434.58 386.467 436.556 384.593 438.531L384.494 438.63C384.297 438.827 384.001 439.124 383.705 439.519L379.561 444.259C373.148 451.963 367.228 460.457 362.196 469.248C357.164 478.038 352.921 487.322 349.468 496.804C349.074 497.989 348.679 499.273 348.284 500.459C347.89 501.644 347.495 502.829 347.1 504.014C346.41 506.483 345.719 508.953 345.028 511.422L344.634 513.298C344.239 515.175 343.746 517.15 343.351 519.027V519.126C343.154 519.62 343.055 520.311 342.956 521.002C342.858 521.496 342.759 521.99 342.66 522.484L341.575 528.212C341.575 528.41 341.476 528.706 341.476 528.904V529.101C341.476 529.398 341.378 529.595 341.378 529.892L340.884 533.842C340.786 534.336 340.786 534.929 340.687 535.521C340.588 536.213 340.49 536.805 340.49 537.398L339.898 545.497C339.898 545.991 339.898 546.682 339.898 547.374C339.898 547.966 339.898 548.559 339.898 549.151L339.7 555.176V1029.86C341.279 1030.45 343.154 1031.14 344.831 1032.03C348.186 1033.81 353.612 1039.34 354.993 1047.44C355.881 1052.57 355.388 1060.57 347.988 1068.97L347.002 1070.45C346.804 1070.65 346.706 1070.94 346.508 1071.14C343.844 1074.5 342.66 1079.34 343.351 1084.28C343.844 1087.24 347.495 1094.94 351.244 1097.71C360.42 1100.48 368.806 1104.92 368.806 1117.37C368.806 1118.75 368.708 1120.53 368.412 1122.5C372.556 1124.97 377.291 1128.62 380.942 1134.06H407.483C410.443 1134.06 413.205 1135.93 414.192 1138.8L446.258 1227.69C446.356 1227.89 446.356 1227.99 446.455 1228.18C446.554 1228.48 446.554 1228.78 446.652 1229.07C446.652 1229.17 446.652 1229.37 446.751 1229.57C446.751 1229.76 446.751 1229.96 446.751 1230.16V1299.99C446.652 1303.74 443.396 1307 439.45 1307ZM8.87977 1298.11H437.773V1230.36L406.2 1142.95H378.377C376.798 1142.95 375.318 1142.06 374.529 1140.67C370.977 1134.45 365.452 1130.8 361.308 1128.82C359.335 1127.83 358.447 1125.66 358.94 1123.59C359.631 1121.22 359.729 1118.85 359.729 1117.27C359.729 1112.53 358.94 1109.27 348.087 1106.01H347.988C347.594 1105.91 347.1 1105.71 346.804 1105.51C339.996 1101.27 335.162 1090.3 334.471 1085.56C333.386 1078.25 335.162 1070.75 339.404 1065.51L340.49 1063.83C340.588 1063.64 340.786 1063.44 340.884 1063.24C346.114 1057.31 346.508 1052.18 346.015 1048.82C345.127 1043.68 341.674 1040.33 340.49 1039.73C338.22 1038.55 335.359 1037.66 333.879 1037.26C332.005 1036.77 330.623 1034.99 330.623 1033.02V554.979L330.821 548.855C330.821 548.361 330.821 547.769 330.821 547.275C330.821 546.485 330.821 545.596 330.919 544.806L331.215 540.756L331.511 536.805C331.61 535.916 331.709 535.126 331.807 534.237C331.906 533.743 331.906 533.25 332.005 532.855L332.498 528.904C332.498 528.706 332.597 528.509 332.597 528.311V528.212C332.695 527.719 332.695 527.324 332.794 527.027V526.928L333.879 521.101C333.978 520.607 334.077 520.212 334.077 519.817C334.175 518.928 334.373 518.039 334.669 517.052C335.162 515.175 335.557 513.397 335.951 511.521L336.444 509.447C336.444 509.348 336.445 509.249 336.543 509.15C337.234 506.681 338.023 504.212 338.615 501.743C338.615 501.644 338.615 501.644 338.714 501.545C339.108 500.261 339.602 498.977 339.996 497.693C340.391 496.508 340.786 495.323 341.18 494.137C341.18 494.039 341.18 494.039 341.279 493.94C344.831 483.964 349.369 474.186 354.697 464.902C360.025 455.618 366.142 446.729 373.049 438.531L377.193 433.79C377.587 433.395 377.982 432.901 378.475 432.309C380.35 430.432 382.126 428.457 383.902 426.679C384.001 426.58 384.001 426.58 384.099 426.481C385.974 424.703 387.848 422.926 389.723 421.148C389.822 421.049 389.822 421.049 389.92 420.95L395.84 415.814C412.515 401.888 431.162 391.221 451.289 384.011L457.801 381.739C457.9 381.739 457.999 381.64 458.097 381.64L458.985 381.443C461.353 380.752 463.82 380.06 466.484 379.27C466.582 379.27 466.681 379.171 466.78 379.171C469.345 378.579 471.812 378.085 474.377 377.393L474.772 377.295C474.969 377.196 475.166 377.196 475.364 377.196C475.462 377.196 475.462 377.196 475.561 377.196L484.243 375.616C484.342 375.616 484.441 375.616 484.441 375.616L493.123 374.529C493.222 374.529 493.32 374.529 493.419 374.529L498.352 374.233L502.2 373.936C502.299 373.936 502.299 373.936 502.397 373.936C503.088 373.936 503.779 373.936 504.469 373.936C505.16 373.936 505.752 373.936 506.344 373.936L511.869 373.739H1072.48C1074.75 373.739 1076.62 375.418 1076.92 377.591C1077.02 378.381 1077.31 379.961 1077.91 381.542C1078.79 383.813 1077.71 386.381 1075.44 387.27C1069.12 389.937 1063.3 393.493 1058.17 397.838C1045.94 408.407 1039.03 422.53 1038.64 437.84C1038.24 453.84 1043.77 468.26 1054.62 479.421C1062.02 487.026 1072.18 493.15 1083.92 497.1C1084.71 497.397 1085.4 497.891 1085.9 498.483C1087.18 499.965 1088.36 501.348 1089.45 502.533C1103.75 517.249 1124.97 525.348 1149.14 525.348C1171.83 525.348 1190.78 517.644 1204 503.027C1215.94 489.792 1222.55 471.717 1223.34 450.679C1223.34 449.297 1224.03 448.013 1225.21 447.223C1226.3 446.432 1227.78 446.136 1229.06 446.531L1260.83 455.914C1274.94 456.013 1284.21 460.853 1292.3 465.198C1299.21 468.853 1305.23 472.112 1313.32 472.507V61.4338C1305.23 61.8289 1299.21 65.0883 1292.3 68.7427C1284.11 73.0885 1274.94 78.0269 1260.83 78.0269L1229.06 87.4099C1227.78 87.805 1226.3 87.5087 1225.21 86.7185C1224.13 85.9284 1223.43 84.6444 1223.34 83.2616C1222.65 62.224 1215.94 44.0506 1204 30.9145C1190.58 16.3955 1171.64 8.6916 1149.04 8.6916C1124.77 8.6916 1103.56 16.7906 1089.25 31.5071C1086.69 34.1738 1084.32 37.0381 1082.15 40.1987C1081.65 40.9888 1080.86 41.5814 1079.98 41.8777C1069.22 45.8285 1060.24 51.4582 1053.24 58.5696C1042.48 69.6316 1037.06 84.0518 1037.45 100.052C1038.04 121.287 1051.66 140.448 1072.87 150.029C1074.75 150.918 1075.83 152.992 1075.34 154.967C1074.85 156.943 1073.07 158.523 1071 158.523H512.461L497.267 158.819C495.195 158.918 493.024 158.918 490.854 159.017L482.171 159.609L471.318 160.498L451.684 162.968L438.66 165.239L432.149 166.424L430.077 166.918C424.354 168.202 418.533 169.585 412.909 170.869C407.581 172.351 402.056 173.931 396.038 175.709L393.966 176.301L379.363 181.24C335.063 197.043 294.216 220.352 258.105 250.575L255.639 252.649C252.087 255.711 248.436 258.872 244.786 262.131C240.543 266.082 236.3 270.23 232.157 274.181C227.815 278.625 223.671 283.07 220.12 286.823C219.133 287.811 218.245 288.897 217.357 289.885L208.477 300.058C193.579 317.935 180.062 337.293 168.42 357.541C156.777 377.887 146.911 399.32 139.018 421.444L137.735 425.197C136.255 429.444 134.775 433.79 133.394 438.235C131.815 443.766 130.138 449.494 128.559 455.124C127.178 460.951 125.797 466.68 124.613 472.211C124.119 474.285 123.725 476.359 123.33 478.433C123.133 479.322 123.034 480.112 122.837 480.902L120.567 493.94C120.469 494.829 120.272 495.817 120.173 496.705L118.89 506.879C118.792 507.767 118.693 508.755 118.496 509.644C118.298 511.521 118.002 513.496 117.805 515.471L117.114 524.262L116.522 533.052C116.424 534.929 116.325 537.003 116.325 538.978C116.325 539.966 116.325 540.855 116.226 541.744L115.93 554.781V1032.72C115.93 1034.7 114.648 1036.38 112.773 1036.97C109.122 1038.05 106.952 1038.94 106.163 1039.44C106.163 1039.44 106.064 1039.44 106.064 1039.54C104.88 1040.13 101.624 1043.68 100.736 1048.52C100.144 1051.68 100.44 1056.52 104.88 1061.96C104.979 1062.05 105.077 1062.25 105.176 1062.35L106.952 1065.22C110.898 1070.15 112.477 1076.48 111.885 1085.07C111.49 1090.3 105.867 1101.27 99.1574 1105.32C98.8614 1105.51 98.4667 1105.61 98.1708 1105.71C87.515 1108.97 86.7257 1112.23 86.7257 1116.97C86.7257 1118.55 86.8244 1120.82 87.515 1123.19C88.107 1125.27 87.1204 1127.44 85.1471 1128.43C81.0032 1130.4 75.3794 1134.16 71.7288 1140.38C70.9395 1141.76 69.4595 1142.65 67.8809 1142.65H40.4523L8.87977 1230.06V1298.11Z" fill="#F9F4F2"/>
<path d="M1109.87 443.074C1119.15 444.951 1127.14 439.124 1127.34 430.629C1127.63 419.963 1118.26 411.073 1106.42 410.777C1091.62 410.382 1079.38 420.95 1079.09 434.284C1078.69 450.976 1093.3 464.902 1111.75 465.297C1134.83 465.89 1153.97 449.395 1154.47 428.555C1155.06 402.481 1132.27 380.752 1103.36 380.06C1067.35 379.171 1037.45 404.851 1036.66 437.543C1035.68 478.335 1071.39 503.718 1116.48 503.817C1164.93 504.014 1192.36 473.001 1192.26 431.518V414.135L1191.47 124.349L1191.37 106.966C1191.27 65.3846 1163.64 34.3713 1115.2 34.2726C1070.11 34.1738 1034.59 59.4585 1035.78 100.151C1036.76 132.744 1066.76 158.622 1102.77 157.93C1131.58 157.338 1154.37 135.708 1153.58 109.633C1152.99 88.7926 1133.75 72.1996 1110.66 72.6934C1092.21 73.0885 1077.61 86.916 1078.1 103.608C1078.5 116.942 1090.83 127.51 1105.53 127.312C1117.37 127.115 1126.64 118.226 1126.35 107.559C1126.05 98.9658 1117.96 93.1384 1108.79 95.015L1109.87 443.074Z" fill="#2F1664"/>
<path d="M1116.88 506.286C1116.78 506.286 1116.68 506.286 1116.48 506.286C1090.04 506.187 1066.26 497.397 1051.36 482.088C1039.72 470.137 1033.8 454.729 1034.2 437.543C1034.59 421.049 1042.09 405.74 1055.21 394.48C1068.24 383.221 1085.4 377.295 1103.46 377.69C1133.65 378.381 1157.63 401.295 1156.93 428.753C1156.44 450.581 1136.81 467.964 1112.93 467.964C1112.54 467.964 1112.14 467.964 1111.75 467.964C1091.92 467.47 1076.23 452.457 1076.62 434.383C1077.02 419.666 1090.34 408.012 1106.52 408.407C1112.83 408.604 1118.75 410.975 1123.19 415.123C1127.63 419.37 1130 424.901 1129.9 430.827C1129.8 435.469 1127.73 439.519 1124.18 442.383C1120.23 445.543 1114.81 446.729 1109.48 445.642C1108.1 445.346 1107.31 444.062 1107.5 442.778C1107.8 441.395 1109.08 440.605 1110.37 440.803C1114.31 441.593 1118.26 440.803 1121.02 438.531C1123.49 436.556 1124.77 433.79 1124.87 430.728C1124.97 426.284 1123.19 422.037 1119.74 418.777C1116.19 415.419 1111.45 413.543 1106.42 413.444C1093 413.147 1081.95 422.629 1081.65 434.58C1081.26 449.889 1094.88 462.729 1111.94 463.124C1133.65 463.618 1151.61 448.21 1152.1 428.753C1152.69 404.061 1130.89 383.418 1103.46 382.727C1086.69 382.332 1070.7 387.863 1058.57 398.332C1046.53 408.703 1039.62 422.728 1039.33 437.84C1038.93 453.642 1044.36 467.865 1055.11 478.828C1069.12 493.15 1091.52 501.446 1116.68 501.545C1116.78 501.545 1116.88 501.545 1117.07 501.545C1139.47 501.545 1158.12 494.73 1171.04 481.693C1183.48 469.248 1190.09 451.963 1189.99 431.617V414.234L1189.2 124.448L1189.1 107.065C1189 64.4956 1160.09 36.9393 1115.4 36.8405C1115.3 36.8405 1115.3 36.8405 1115.2 36.8405C1090.14 36.8405 1067.84 45.0383 1053.93 59.2609C1043.27 70.2242 1037.95 84.3481 1038.44 100.25C1039.33 131.461 1068.33 156.251 1102.97 155.659C1117.07 155.362 1130.39 149.733 1139.57 140.053C1147.56 131.658 1151.71 120.991 1151.41 109.929C1150.82 90.4717 1132.66 74.9651 1111.06 75.3602C1102.28 75.5577 1093.99 79.1134 1088.26 85.0395C1083.33 90.2742 1080.77 96.8916 1080.96 103.707C1081.36 115.658 1092.51 125.238 1105.93 124.942C1111.35 124.843 1116.38 122.67 1119.84 119.016C1122.8 115.855 1124.38 111.806 1124.28 107.756C1124.18 104.596 1122.8 101.83 1120.33 99.8547C1117.47 97.583 1113.62 96.7929 1109.67 97.583C1108.29 97.8793 1107.01 96.9904 1106.81 95.6076C1106.52 94.2249 1107.41 92.9409 1108.79 92.7434C1114.21 91.6569 1119.54 92.8421 1123.49 96.0027C1127.04 98.867 1129.11 103.015 1129.31 107.657C1129.51 113.09 1127.43 118.423 1123.49 122.473C1119.15 127.115 1112.73 129.781 1106.02 129.979C1089.94 130.275 1076.52 118.621 1076.03 103.904C1075.83 95.7064 1078.89 87.805 1084.71 81.6813C1091.32 74.7675 1100.89 70.6193 1110.96 70.4217C1135.33 69.9279 1155.75 87.6074 1156.34 109.83C1156.74 122.176 1152 134.226 1143.12 143.51C1133.06 154.078 1118.46 160.301 1103.06 160.597C1065.77 161.289 1034.49 134.325 1033.51 100.447C1033.01 83.2616 1038.83 67.8538 1050.48 55.9028C1065.28 40.6925 1088.86 32.0009 1115.3 32.0009C1115.4 32.0009 1115.4 32.0009 1115.5 32.0009C1139.37 32.0009 1159.4 39.5073 1173.41 53.5324C1186.93 66.9649 1194.03 85.5333 1194.13 107.164L1194.23 124.547L1195.02 414.333V431.716C1195.12 453.346 1188.01 471.816 1174.6 485.248C1160.39 498.878 1140.56 506.286 1116.88 506.286Z" fill="#F9F4F2"/>
<path d="M508.515 156.844L499.734 157.041C496.774 157.14 493.912 157.14 490.952 157.338L482.171 157.93L473.39 158.622L471.22 158.819L469.049 159.116L464.708 159.609L455.927 160.696L451.585 161.289L432.05 164.844L429.879 165.338C424.157 166.622 418.434 168.005 412.712 169.289C406.989 170.869 401.365 172.449 395.742 174.128L393.67 174.721L387.454 176.795L379.067 179.659C334.669 195.462 293.23 219.265 257.217 249.291C252.777 253.143 248.337 256.896 243.996 260.847C239.754 264.896 235.511 268.946 231.269 272.995C227.223 277.242 223.178 281.489 219.133 285.736C218.146 286.823 217.16 287.909 216.173 288.996L207.589 299.07C192.494 317.046 179.075 336.405 167.334 356.85C155.593 377.295 145.727 398.727 137.834 420.95C135.959 426.58 133.986 432.111 132.21 437.741C130.533 443.371 128.954 449.099 127.375 454.729C125.994 460.458 124.711 466.186 123.33 471.915C122.639 474.779 122.146 477.643 121.653 480.606L119.285 493.644C119.088 495.125 118.89 496.508 118.693 497.989L117.608 506.78C117.312 509.743 116.818 512.607 116.621 515.57L115.93 524.36L115.338 533.151C115.141 536.114 115.141 538.978 115.042 541.941L114.746 554.979V1121.81H332.794V552.905L332.893 548.855C332.893 547.472 332.893 546.188 332.991 544.806L333.583 536.904C333.682 535.62 333.879 534.237 334.077 532.953L334.57 529.003C334.669 528.311 334.669 527.719 334.767 527.027L335.162 525.052L335.853 521.101C336.148 519.817 336.247 518.434 336.642 517.249C337.234 514.681 337.826 512.113 338.418 509.545C339.207 506.977 339.898 504.508 340.588 501.94C341.378 499.372 342.266 496.903 343.154 494.434C346.706 484.458 351.145 474.878 356.473 465.593C361.702 456.408 367.82 447.618 374.628 439.42L377.291 436.358L378.574 434.876C378.969 434.383 379.462 433.889 379.857 433.395C381.731 431.518 383.507 429.543 385.382 427.568C387.355 425.79 389.23 423.913 391.203 422.037L397.222 416.802C413.6 403.172 432.247 392.505 452.177 385.394L455.927 384.11L457.801 383.418L458.689 383.122L459.676 382.826C462.241 382.134 464.806 381.443 467.273 380.653C469.838 380.06 472.404 379.468 474.969 378.875C475.265 378.776 475.561 378.677 475.955 378.677L476.942 378.48L478.915 378.184L482.862 377.492L484.835 377.097L486.809 376.9L490.755 376.406L492.728 376.109L494.702 375.912L502.595 375.319C503.976 375.319 505.259 375.319 506.64 375.221L510.685 375.122H1130.3V156.844H508.515Z" fill="#2F1664"/>
<path d="M332.301 1124.28C330.919 1124.28 329.834 1123.19 329.834 1121.81V554.682L330.031 548.855C330.031 548.361 330.031 547.867 330.031 547.275C330.031 546.485 330.031 545.596 330.13 544.707L330.426 540.657L330.722 536.707C330.821 535.818 330.919 534.929 331.018 534.04C331.117 533.546 331.117 533.052 331.215 532.558L331.709 528.608C331.709 528.41 331.807 528.114 331.807 527.916C331.906 527.422 331.906 527.027 332.005 526.533L333.09 520.607C333.189 520.212 333.189 519.718 333.287 519.323C333.485 518.434 333.583 517.447 333.879 516.459C334.274 514.681 334.767 512.805 335.162 510.928L335.655 508.755C335.655 508.656 335.655 508.656 335.655 508.558C336.445 506.088 337.135 503.52 337.826 500.952V500.854C338.22 499.57 338.714 498.187 339.108 496.903C339.503 495.718 339.898 494.533 340.292 493.347C343.943 483.174 348.482 473.396 353.809 464.112C359.137 454.828 365.353 445.84 372.26 437.642L376.305 433C376.699 432.506 377.193 432.012 377.686 431.518C379.462 429.642 381.337 427.666 383.113 425.79L383.211 425.691C385.086 423.913 387.059 422.037 388.934 420.259L389.032 420.16L395.051 414.925C411.725 400.999 430.471 390.332 450.796 383.023L457.407 380.752C457.505 380.752 457.505 380.752 457.604 380.653L458.591 380.356C460.959 379.665 463.425 378.974 466.188 378.184C466.286 378.184 466.286 378.184 466.385 378.184C468.95 377.591 471.516 376.998 474.081 376.406L474.377 376.307C474.574 376.208 474.87 376.208 475.068 376.109L478.126 375.616L483.947 374.529C484.046 374.529 484.046 374.529 484.145 374.529L492.926 373.443C493.024 373.443 493.024 373.443 493.123 373.443L498.056 373.048L502.003 372.751H502.101C502.891 372.751 503.581 372.751 504.371 372.751C504.963 372.751 505.555 372.751 506.147 372.751L512.56 372.554H1129.9C1131.28 372.554 1132.37 373.64 1132.37 375.023C1132.37 376.406 1131.28 377.492 1129.9 377.492H511.771L510.389 377.591L506.344 377.69C505.752 377.69 505.16 377.69 504.469 377.69C503.779 377.69 503.088 377.69 502.397 377.69L498.451 377.986L493.518 378.282L490.656 378.677L484.737 379.369L475.955 380.949C475.857 380.949 475.758 381.048 475.561 381.048L475.166 381.147C472.601 381.739 470.036 382.332 467.47 382.924C464.708 383.715 462.241 384.406 459.873 385.097L458.985 385.295L456.223 386.283L452.473 387.567C432.741 394.579 414.488 405.048 398.307 418.58L392.387 423.716C390.512 425.592 388.539 427.37 386.665 429.148C384.889 431.025 383.014 433 381.139 434.876C380.745 435.272 380.449 435.667 380.054 436.062L378.574 437.741L375.91 440.803C369.201 448.803 363.182 457.494 357.953 466.581C352.724 475.668 348.383 485.15 344.831 495.026C344.436 496.212 344.042 497.397 343.647 498.681C343.252 499.965 342.759 501.15 342.364 502.434C341.674 504.903 340.983 507.471 340.194 510.039L339.7 512.113C339.306 513.99 338.812 515.866 338.418 517.743C338.22 518.533 338.023 519.323 337.924 520.113C337.826 520.607 337.826 521.002 337.727 521.496L336.642 527.324C336.642 527.62 336.543 528.015 336.543 528.311C336.543 528.608 336.444 528.805 336.444 529.101L335.951 533.052C335.853 533.546 335.852 534.139 335.754 534.632C335.655 535.423 335.557 536.114 335.458 536.904L334.866 545.003C334.866 545.694 334.767 546.485 334.767 547.275C334.767 547.867 334.767 548.361 334.767 548.954L334.57 554.781V1121.81C334.767 1123.19 333.682 1124.28 332.301 1124.28Z" fill="#F9F4F2"/>
<path d="M311.186 1124.28C309.805 1124.28 308.72 1123.19 308.72 1121.81V554.682L308.917 548.164C308.917 547.571 308.917 546.978 308.917 546.485C308.917 545.596 308.917 544.608 309.016 543.62L309.707 534.731C309.805 533.743 309.904 532.756 310.003 531.768C310.101 531.274 310.2 530.682 310.2 530.188L310.792 525.743C310.792 525.447 310.891 525.249 310.891 524.953C310.989 524.459 310.989 523.965 311.088 523.472L312.272 516.854C312.37 516.36 312.469 515.866 312.469 515.471C312.666 514.484 312.765 513.397 313.061 512.311L315.034 503.718V503.619C315.824 500.854 316.712 497.989 317.402 495.125C317.896 493.446 318.488 491.965 318.981 490.384C319.376 489.1 319.869 487.816 320.264 486.532C324.309 475.174 329.439 464.211 335.359 453.84C341.279 443.469 348.284 433.494 355.98 424.308L360.519 419.074C361.012 418.481 361.505 417.987 361.998 417.395C363.774 415.518 365.55 413.641 367.326 411.765L368.017 410.975L368.116 410.876C370.286 408.9 372.457 406.826 374.529 404.752C374.529 404.752 374.628 404.752 374.628 404.653C375.811 403.666 376.897 402.579 378.081 401.592C379.166 400.604 380.251 399.715 381.337 398.727C399.984 383.221 420.901 371.171 443.594 363.072L450.993 360.603C451.092 360.603 451.092 360.603 451.191 360.603L452.276 360.306C454.841 359.615 457.703 358.825 460.761 357.837C460.86 357.837 460.86 357.837 460.959 357.837C463.82 357.245 466.681 356.553 469.542 355.862L469.937 355.763C470.233 355.664 470.43 355.664 470.726 355.566L480.593 353.788C480.691 353.788 480.691 353.788 480.79 353.788L490.656 352.504C490.755 352.504 490.755 352.504 490.854 352.504L496.379 352.109L500.819 351.714H500.918C501.805 351.714 502.693 351.714 503.581 351.615C504.173 351.615 504.864 351.615 505.456 351.615L512.461 351.417H1129.8C1131.18 351.417 1132.27 352.504 1132.27 353.887C1132.27 355.269 1131.18 356.356 1129.8 356.356H511.672L505.555 356.553C504.864 356.553 504.272 356.553 503.581 356.553C502.792 356.553 501.904 356.553 501.115 356.652L491.248 357.442L481.481 358.726L471.713 360.504C471.614 360.504 471.417 360.603 471.22 360.603L470.825 360.702C467.964 361.393 465.102 362.084 462.241 362.677C459.183 363.566 456.321 364.356 453.756 365.047L452.769 365.344L449.711 366.43L445.468 367.813C423.368 375.714 402.944 387.369 384.889 402.481C383.902 403.369 382.718 404.357 381.633 405.345C380.547 406.333 379.363 407.32 378.278 408.308C376.206 410.382 374.036 412.456 371.865 414.431L371.174 415.123C369.398 416.999 367.524 418.975 365.748 420.851C365.353 421.246 364.958 421.74 364.564 422.234L362.985 424.111L360.025 427.469C352.527 436.457 345.818 446.136 339.996 456.309C334.175 466.482 329.242 477.149 325.295 488.113C324.901 489.298 324.506 490.681 324.013 491.965C323.519 493.446 323.026 494.928 322.533 496.508C321.744 499.273 320.954 502.138 320.165 504.903L318.192 513.496V513.595C317.994 514.385 317.797 515.274 317.698 516.262C317.6 516.755 317.501 517.249 317.402 517.743L316.218 524.262C316.12 524.657 316.12 525.052 316.021 525.447C316.021 525.743 315.922 526.04 315.922 526.336L315.33 530.78C315.232 531.373 315.232 531.867 315.133 532.459C315.034 533.348 314.837 534.237 314.837 535.028L314.146 544.015C314.048 544.806 314.048 545.694 314.048 546.583C314.048 547.176 314.048 547.769 314.048 548.361L313.85 554.781V1121.81C313.653 1123.19 312.568 1124.28 311.186 1124.28Z" fill="#F9F4F2"/>
<path d="M282.081 1124.28C280.699 1124.28 279.614 1123.19 279.614 1121.81V554.682L279.811 547.275C279.811 546.583 279.811 545.991 279.811 545.398C279.811 544.312 279.811 543.225 279.91 542.139L280.699 531.966C280.798 530.78 280.897 529.694 281.094 528.608C281.193 528.015 281.291 527.422 281.291 526.83L281.883 521.694C281.883 521.397 281.982 521.101 281.982 520.805C282.081 520.212 282.081 519.62 282.179 519.126L283.561 511.521C283.659 511.027 283.758 510.434 283.857 509.94C284.054 508.755 284.251 507.57 284.547 506.286L286.816 496.409V496.31L289.579 486.532C290.171 484.557 290.862 482.68 291.454 480.804C291.947 479.421 292.342 478.137 292.835 476.754C297.472 463.816 303.293 451.272 310.101 439.321C316.909 427.469 324.802 416.111 333.583 405.542L338.714 399.616C339.207 399.024 339.799 398.332 340.391 397.74L347.396 390.431L347.495 390.332L354.895 383.319C356.375 382.035 357.855 380.752 359.236 379.468C360.42 378.48 361.505 377.492 362.59 376.504C383.902 358.726 407.779 344.997 433.727 335.812L442.212 332.948H442.311L453.263 329.787H453.361L464.51 327.219H464.609L475.857 325.244H475.955L487.302 323.762H487.401L498.846 322.873C499.931 322.873 501.016 322.775 502.003 322.775C502.693 322.775 503.384 322.775 504.075 322.775L511.968 322.577H1129.31C1130.69 322.577 1131.78 323.663 1131.78 325.046C1131.78 326.429 1130.69 327.515 1129.31 327.515H511.179L504.173 327.713C503.483 327.713 502.792 327.713 502.101 327.713C501.115 327.713 500.128 327.713 499.142 327.812L487.894 328.701L476.646 330.083L465.497 332.059L454.447 334.627L443.594 337.689L435.207 340.553C409.851 349.64 386.467 362.973 365.649 380.356C364.564 381.344 363.38 382.332 362.294 383.319C360.913 384.505 359.433 385.789 358.052 386.974L350.751 393.888L343.746 401.197C343.252 401.69 342.759 402.283 342.266 402.876L340.49 404.95L337.135 408.802C328.551 419.074 320.757 430.234 314.146 441.889C307.437 453.544 301.813 465.791 297.275 478.433C296.88 479.717 296.387 481.1 295.894 482.483C295.302 484.261 294.611 486.137 294.019 488.014L291.256 497.693L288.987 507.57C288.691 508.656 288.494 509.743 288.296 510.829C288.198 511.422 288.099 511.916 288 512.508L286.619 520.015C286.52 520.41 286.52 521.002 286.422 521.496C286.422 521.793 286.323 522.188 286.323 522.484L285.731 527.521C285.633 528.114 285.534 528.805 285.435 529.398C285.336 530.484 285.139 531.472 285.041 532.459L284.251 542.633C284.153 543.62 284.153 544.608 284.153 545.694C284.153 546.386 284.153 546.978 284.153 547.67L283.955 554.979V1121.81C284.547 1123.19 283.462 1124.28 282.081 1124.28Z" fill="#F9F4F2"/>
<path d="M245.871 1124.28C244.49 1124.28 243.404 1123.19 243.404 1121.81V555.077L243.602 546.089C243.602 545.398 243.602 544.707 243.7 544.015C243.7 542.731 243.799 541.447 243.799 540.163L244.687 528.311C244.786 527.027 244.983 525.645 245.082 524.459C245.18 523.768 245.279 523.077 245.378 522.385L246.167 516.459C246.167 516.064 246.266 515.768 246.266 515.373C246.364 514.681 246.463 514.089 246.562 513.397L247.055 510.434C257.119 448.21 290.862 389.246 339.7 348.553C364.268 328.009 391.894 312.206 421.888 301.539L431.655 298.181H431.754L444.482 294.527H444.58L457.505 291.564H457.604L470.628 289.193H470.726L483.849 287.514H483.947L497.168 286.527C498.55 286.428 499.733 286.428 501.016 286.428C501.707 286.428 502.496 286.428 503.187 286.329L512.165 286.132H1129.51C1130.89 286.132 1131.97 287.218 1131.97 288.601C1131.97 289.984 1130.89 291.07 1129.51 291.07H511.376L503.285 291.268C502.595 291.268 501.805 291.268 501.115 291.366C499.931 291.366 498.648 291.465 497.464 291.465L484.342 292.453L471.318 294.132L458.393 296.403L445.567 299.366L432.938 302.922L423.269 306.182C393.867 316.651 366.636 332.158 342.562 352.306C294.611 392.209 261.46 450.186 251.593 511.224L251.1 514.187C251.001 514.681 250.903 515.373 250.903 515.965C250.903 516.36 250.804 516.657 250.804 517.052L250.113 522.879C250.015 523.57 249.916 524.262 249.817 525.052C249.62 526.336 249.521 527.422 249.423 528.608L248.535 540.361C248.436 541.546 248.436 542.731 248.436 544.015C248.436 544.707 248.436 545.497 248.337 546.188L248.14 555.077V1121.81C248.337 1123.19 247.252 1124.28 245.871 1124.28Z" fill="#F9F4F2"/>
<path d="M200.683 1124.28C199.301 1124.28 198.216 1123.19 198.216 1121.81V555.077L198.413 544.707C198.413 543.917 198.413 543.126 198.512 542.336C198.512 540.855 198.611 539.275 198.709 537.793L199.795 523.965C199.893 522.385 200.091 520.904 200.288 519.323C200.387 518.533 200.485 517.743 200.584 516.953L201.472 510.039C201.571 509.644 201.571 509.249 201.669 508.854C201.768 508.064 201.867 507.274 201.965 506.582L203.741 496.31C203.84 495.619 204.037 494.928 204.136 494.236C204.432 492.656 204.728 490.977 205.123 489.298L206.011 485.643C206.8 482.384 207.491 479.125 208.28 475.865L212.029 462.433C213.016 459.371 214.002 456.408 214.989 453.445C215.482 452.062 215.976 450.581 216.469 449.198C222.685 431.716 230.578 414.728 239.754 398.629C248.929 382.628 259.585 367.22 271.524 352.998L278.529 344.899C279.219 344.109 280.009 343.22 280.798 342.429L290.27 332.454L290.368 332.355L300.333 322.873C302.701 320.7 305.168 318.626 307.536 316.651C308.621 315.663 309.707 314.774 310.891 313.787C339.602 289.786 371.964 271.316 406.989 258.773L418.434 254.921H418.533L420.21 254.427L433.53 250.674H433.629L448.823 247.217H448.922L464.214 244.451H464.313L479.705 242.476H479.803L495.294 241.291C496.872 241.192 498.451 241.192 500.03 241.192C500.819 241.192 501.608 241.192 502.299 241.093L512.659 240.896H1130C1131.38 240.896 1132.47 241.982 1132.47 243.365C1132.47 244.748 1131.38 245.834 1130 245.834H511.869L502.496 246.032C501.707 246.032 500.918 246.032 500.128 246.13C498.648 246.13 497.07 246.229 495.59 246.229L480.297 247.414L465.004 249.39L449.81 252.057L448.132 252.452L434.714 255.513L419.914 259.76L408.568 263.612C374.036 275.958 342.266 294.132 314.048 317.737C312.962 318.626 311.877 319.614 310.792 320.602C308.424 322.577 306.056 324.651 303.787 326.725L293.92 336.207L284.449 346.183C283.758 346.874 283.067 347.664 282.377 348.454L275.47 356.455C263.828 370.381 253.271 385.492 244.194 401.295C235.116 417.098 227.421 433.889 221.304 450.976C220.81 452.358 220.317 453.741 219.824 455.223C218.837 458.087 217.85 461.05 216.962 464.013L213.213 477.248C212.424 480.409 211.733 483.569 210.944 486.829L210.056 490.582C209.661 492.063 209.365 493.545 209.168 495.125C209.069 495.816 208.971 496.508 208.773 497.199L206.997 507.372C206.899 508.064 206.8 508.755 206.701 509.447C206.603 509.842 206.603 510.237 206.504 510.632L205.616 517.447C205.517 518.237 205.419 519.027 205.32 519.817C205.123 521.299 204.925 522.681 204.827 524.163L203.741 537.892C203.643 539.275 203.643 540.855 203.544 542.238C203.544 543.028 203.544 543.818 203.445 544.707L203.248 554.979V1121.71C203.149 1123.19 202.064 1124.28 200.683 1124.28Z" fill="#F9F4F2"/>
<path d="M164.572 1124.28C163.19 1124.28 162.105 1123.19 162.105 1121.81V555.077L162.401 543.522C162.401 542.633 162.401 541.843 162.5 540.954C162.5 539.275 162.598 537.497 162.697 535.719L163.881 520.311C163.98 518.533 164.276 516.854 164.473 515.175C164.572 514.286 164.67 513.496 164.769 512.607L165.756 504.903C165.854 504.409 165.854 504.014 165.953 503.619C166.052 502.73 166.15 501.94 166.348 501.051L168.42 489.594C168.518 488.804 168.716 488.113 168.814 487.322C169.11 485.545 169.505 483.668 169.9 481.791L170.393 479.52C171.379 475.372 172.366 471.026 173.353 466.779L177.595 451.865C178.681 448.309 179.963 444.753 181.049 441.296C181.542 439.914 182.035 438.531 182.43 437.148C189.435 417.592 198.117 398.727 208.379 380.752C218.64 362.874 230.578 345.788 243.799 329.886L251.593 320.898C252.383 320.009 253.172 319.021 254.06 318.132L254.159 318.034C257.612 314.379 261.164 310.626 264.716 306.972L275.963 296.305C278.825 293.737 281.785 291.169 284.547 288.798C285.534 287.909 286.619 287.02 287.606 286.132C319.573 259.365 355.684 238.723 394.854 224.796L407.68 220.451L409.653 219.858L424.552 215.611H424.65L441.62 211.66L458.788 208.598H458.887L476.054 206.426H476.153L485.723 205.635L493.419 205.043C495.294 204.944 497.07 204.944 498.846 204.845L512.56 204.549H1129.9C1131.28 204.549 1132.37 205.635 1132.37 207.018C1132.37 208.401 1131.28 209.487 1129.9 209.487H511.771L498.944 209.784C497.168 209.784 495.392 209.882 493.616 209.981L476.547 211.265L459.479 213.438L442.508 216.5L440.732 216.895L425.834 220.352L409.259 225.093L396.531 229.34C357.953 243.069 322.434 263.415 290.862 289.786C289.875 290.675 288.888 291.564 287.803 292.453C285.041 294.823 282.081 297.391 279.318 299.86L268.268 310.429C264.814 313.984 261.262 317.737 257.809 321.392L257.711 321.491C256.921 322.281 256.132 323.17 255.343 324.059L247.647 332.948C234.623 348.553 222.882 365.442 212.72 383.023C202.557 400.703 193.974 419.37 187.067 438.63C186.574 440.012 186.179 441.395 185.686 442.778C184.502 446.136 183.318 449.692 182.233 453.149L178.089 467.964C177.102 472.112 176.115 476.458 175.129 480.606L174.635 482.878C174.241 484.557 173.945 486.335 173.55 488.113C173.451 488.903 173.254 489.594 173.155 490.384L171.182 501.743C171.084 502.533 170.985 503.323 170.886 504.113C170.788 504.508 170.788 505.002 170.689 505.397L169.702 513.002C169.604 513.891 169.505 514.681 169.406 515.57C169.209 517.249 169.012 518.83 168.814 520.509L167.63 535.818C167.532 537.497 167.532 539.176 167.433 540.855C167.433 541.744 167.433 542.534 167.334 543.423L167.038 554.88V1121.61C167.038 1123.19 165.953 1124.28 164.572 1124.28Z" fill="#F9F4F2"/>
<path d="M135.367 1124.28C133.986 1124.28 132.901 1123.19 132.901 1121.81V555.077L133.197 542.633C133.197 541.744 133.295 540.855 133.295 539.966C133.295 538.089 133.394 536.114 133.492 534.237L134.775 517.546C134.972 515.669 135.17 513.694 135.367 511.817C135.466 510.928 135.564 510.039 135.663 509.15L136.946 499.471C137.044 498.483 137.143 497.594 137.34 496.607L139.511 484.162C139.708 483.372 139.807 482.582 139.906 481.791C140.3 479.816 140.596 477.841 141.09 475.767L141.287 474.878C142.471 469.84 143.655 464.606 144.839 459.47C146.319 454.038 147.897 448.605 149.476 443.272C150.759 439.222 152.14 435.173 153.423 431.222C153.916 429.938 154.311 428.555 154.804 427.271C162.401 406.135 171.873 385.591 182.923 366.134C194.072 346.775 206.899 328.207 221.304 311.021L229.69 301.342C230.578 300.354 231.466 299.268 232.453 298.28C235.906 294.626 239.951 290.379 243.996 286.23C248.041 282.28 252.087 278.428 256.132 274.674C259.388 271.711 262.742 268.847 265.998 265.983L268.761 263.612C303.392 234.673 342.463 212.253 384.889 197.141L398.8 192.401L400.872 191.808C406.693 190.129 412.021 188.647 416.954 187.265C422.48 185.981 427.906 184.697 433.333 183.511L435.405 183.018L441.62 181.832L453.953 179.659H454.052L472.7 177.289L483.158 176.499L491.446 175.906C493.518 175.807 495.491 175.807 497.563 175.709L512.165 175.412H1129.51C1130.89 175.412 1131.97 176.499 1131.97 177.882C1131.97 179.264 1130.89 180.351 1129.51 180.351H511.672L497.958 180.647C495.984 180.746 494.011 180.746 492.038 180.845L473.39 182.227L454.94 184.598L436.49 187.857L434.517 188.252C429.09 189.437 423.664 190.721 418.237 192.005C413.304 193.388 408.075 194.87 402.253 196.549L400.28 197.141L386.467 201.783C344.634 216.697 306.056 238.723 271.82 267.366L269.057 269.736C265.801 272.502 262.545 275.366 259.289 278.23C255.343 281.983 251.297 285.835 247.252 289.687C243.306 293.737 239.26 297.984 235.807 301.638C234.919 302.527 234.13 303.515 233.242 304.502L224.855 314.182C210.746 331.071 198.019 349.343 186.968 368.504C176.017 387.665 166.644 408.012 159.145 428.753C158.75 430.037 158.257 431.321 157.764 432.704C156.481 436.556 155.1 440.605 153.817 444.556C152.337 449.791 150.759 455.223 149.279 460.556C148.095 465.593 146.911 470.729 145.727 475.767L145.53 476.754C145.036 478.631 144.74 480.507 144.346 482.483C144.247 483.273 144.05 484.063 143.951 484.853L141.78 497.199C141.682 498.088 141.484 498.977 141.386 499.866L140.103 509.545C140.004 510.434 139.906 511.323 139.807 512.311C139.61 514.089 139.314 515.965 139.215 517.743L137.932 534.336C137.834 536.114 137.735 537.991 137.735 539.867C137.735 540.756 137.735 541.645 137.636 542.534L137.34 554.88V1121.61C137.834 1123.19 136.748 1124.28 135.367 1124.28Z" fill="#F9F4F2"/>
<path d="M114.253 1124.28C112.872 1124.28 111.786 1123.19 111.786 1121.81V555.077L112.082 541.941C112.082 541.052 112.181 540.065 112.181 539.176C112.28 537.2 112.28 535.126 112.378 533.052L113.76 515.471C113.957 513.397 114.154 511.422 114.45 509.447C114.549 508.558 114.648 507.57 114.845 506.681L116.128 496.508C116.226 495.52 116.424 494.533 116.522 493.545L118.792 480.409C118.989 479.619 119.088 478.73 119.285 477.939C119.68 475.865 120.074 473.692 120.567 471.52C121.751 466.186 123.133 460.161 124.613 454.334C126.191 448.605 127.869 442.877 129.447 437.247C130.829 432.802 132.309 428.358 133.788 424.111L135.071 420.358C143.063 398.036 153.028 376.307 164.769 355.862C176.51 335.417 190.126 315.861 205.32 297.687L214.101 287.514C214.989 286.428 215.976 285.341 216.962 284.255C220.514 280.403 224.855 275.958 229.098 271.514C233.341 267.366 237.682 263.316 241.924 259.267C245.476 256.007 249.225 252.847 252.777 249.785L255.244 247.612C291.848 216.994 333.09 193.388 377.883 177.487L392.584 172.548L394.755 171.857C400.872 170.079 406.397 168.499 411.824 167.017C417.645 165.634 423.466 164.252 429.189 162.968L431.359 162.474L437.97 161.289L450.993 159.017L470.825 156.449L473.094 156.251L481.875 155.56L490.656 154.967C492.926 154.869 495.096 154.77 497.168 154.77L512.461 154.474H1129.8C1131.18 154.474 1132.27 155.56 1132.27 156.943C1132.27 158.325 1131.18 159.412 1129.8 159.412H511.672L497.366 159.708C495.195 159.807 493.123 159.807 490.952 159.906L482.27 160.498L471.318 161.387L464.806 162.177L451.684 163.856L432.247 167.313L430.175 167.807C424.453 169.091 418.73 170.474 413.008 171.758C407.779 173.239 402.155 174.82 396.136 176.499L394.064 177.091L387.848 179.166L379.462 182.03C335.261 197.734 294.512 221.043 258.401 251.266L255.935 253.439C252.383 256.501 248.732 259.662 245.18 262.822C240.938 266.773 236.695 270.823 232.551 274.971C228.309 279.317 224.066 283.86 220.514 287.613C219.528 288.601 218.738 289.588 217.752 290.675L208.971 300.848C194.072 318.725 180.555 338.084 169.012 358.232C157.369 378.48 147.503 399.913 139.61 421.938L138.327 425.691C136.847 429.938 135.367 434.284 134.084 438.63C132.506 444.161 130.829 449.889 129.25 455.618C127.869 461.346 126.586 467.174 125.303 472.705C124.81 474.68 124.415 476.754 124.119 478.828C124.021 479.619 123.823 480.507 123.626 481.298L121.357 494.335C121.258 495.224 121.061 496.212 120.962 497.199L119.68 507.372C119.581 508.261 119.482 509.249 119.285 510.237C119.088 512.113 118.792 514.089 118.594 516.064L117.904 524.854L117.312 533.645C117.213 535.62 117.114 537.595 117.114 539.571C117.114 540.46 117.114 541.447 117.016 542.336L116.72 555.374V1122.11C116.72 1123.19 115.634 1124.28 114.253 1124.28Z" fill="#F9F4F2"/>
<path d="M407.384 1141.17H39.2683L7.20248 1230.06H439.45L407.384 1141.17Z" fill="#2F1664"/>
<path d="M439.45 1232.53H7.20248C6.41317 1232.53 5.62385 1232.13 5.2292 1231.44C4.73588 1230.75 4.63721 1229.96 4.9332 1229.17L36.999 1140.28C37.3937 1139.29 38.2817 1138.7 39.367 1138.7H407.483C408.568 1138.7 409.456 1139.39 409.851 1140.28L441.916 1229.17C442.212 1229.96 442.114 1230.75 441.62 1231.44C441.028 1232.13 440.239 1232.53 439.45 1232.53ZM10.6557 1227.59H435.898L405.608 1143.64H40.9456L10.6557 1227.59Z" fill="#F9F4F2"/>
<path d="M7.20248 1230.06V1299.79H439.45V1230.06H7.20248Z" fill="#2F1664"/>
<path d="M439.45 1302.26H7.20248C5.82118 1302.26 4.73588 1301.17 4.73588 1299.79V1229.96C4.73588 1228.58 5.82118 1227.49 7.20248 1227.49H439.548C440.93 1227.49 442.015 1228.58 442.015 1229.96V1299.79C441.916 1301.17 440.831 1302.26 439.45 1302.26ZM9.66908 1297.32H437.082V1232.43H9.66908V1297.32Z" fill="#F9F4F2"/>
<path d="M348.186 1104.43C341.871 1100.87 336.839 1090.1 336.05 1085.36C335.162 1079.54 336.148 1072.13 340.687 1066.6L345.522 1058.99H100.835L105.669 1066.6C110.208 1072.13 110.701 1078.94 110.306 1085.36C110.01 1090.1 104.485 1100.77 98.1708 1104.43C98.1708 1104.43 83.6671 1111.74 91.2643 1121.81C98.7627 1131.88 185.686 1138.9 223.277 1138.9C260.868 1138.9 347.791 1131.88 355.289 1121.81C362.689 1111.74 348.186 1104.43 348.186 1104.43Z" fill="#2F1664"/>
<path d="M223.178 1141.37C203.149 1141.37 171.182 1139.39 145.628 1136.53C94.9148 1130.9 90.5736 1125.17 89.1923 1123.19C86.8244 1120.03 86.0351 1116.77 86.8244 1113.41C88.403 1106.7 96.0988 1102.55 96.9868 1102.06C102.709 1098.8 107.544 1088.82 107.84 1084.97C108.333 1077.36 107.149 1072.13 103.795 1067.98C103.696 1067.88 103.696 1067.78 103.597 1067.78L98.7627 1060.18C98.2694 1059.39 98.2694 1058.5 98.6641 1057.71C99.0587 1056.92 99.9467 1056.43 100.835 1056.43H345.62C346.508 1056.43 347.396 1056.92 347.791 1057.71C348.186 1058.5 348.186 1059.49 347.692 1060.18L342.858 1067.78C342.759 1067.88 342.759 1067.98 342.66 1067.98C339.108 1072.33 337.628 1078.65 338.516 1084.77C339.207 1088.92 343.844 1098.9 349.369 1102.06C350.257 1102.45 357.953 1106.7 359.532 1113.41C360.321 1116.77 359.532 1120.03 357.164 1123.19C355.783 1125.07 351.441 1130.9 300.728 1136.53C275.174 1139.39 243.207 1141.37 223.178 1141.37ZM107.643 1065.12C112.97 1071.83 113.069 1079.93 112.773 1085.46C112.378 1090.99 106.459 1102.45 99.4534 1106.5C99.4534 1106.5 99.3547 1106.5 99.3547 1106.6C97.5788 1107.49 92.6456 1110.75 91.7576 1114.7C91.3629 1116.57 91.8563 1118.35 93.2376 1120.33C94.0269 1121.32 100.045 1126.55 146.22 1131.69C171.675 1134.45 203.347 1136.43 223.178 1136.43C243.108 1136.43 274.779 1134.45 300.136 1131.69C346.311 1126.55 352.428 1121.32 353.119 1120.33C354.599 1118.35 355.092 1116.57 354.599 1114.7C353.711 1110.85 348.778 1107.59 347.002 1106.6C347.002 1106.6 346.903 1106.6 346.903 1106.5C339.602 1102.35 334.373 1090.7 333.583 1085.66C332.399 1078.15 334.274 1070.55 338.615 1065.12L340.884 1061.46H105.077L107.643 1065.12Z" fill="#F9F4F2"/>
<path d="M378.574 1146.11C373.641 1128.43 354.401 1124.58 354.401 1124.58C354.401 1134.06 308.621 1149.96 223.178 1149.96C137.735 1149.96 91.9549 1134.06 91.9549 1124.58C91.9549 1124.58 72.8141 1128.43 67.7822 1146.11C63.0463 1163.09 70.0515 1173.66 74.3927 1178.21C74.7874 1178.7 75.2807 1179.19 75.8727 1179.59C75.8727 1179.59 75.8727 1179.59 75.9713 1179.69C76.07 1179.79 76.1687 1179.89 76.2673 1179.98C76.958 1180.58 77.3526 1180.87 77.3526 1180.87C91.8563 1192.03 143.458 1207.64 223.277 1207.64C303.096 1207.64 354.697 1191.94 369.201 1180.87C369.201 1180.87 369.596 1180.58 370.286 1179.98C370.385 1179.89 370.484 1179.79 370.582 1179.69C370.582 1179.69 370.582 1179.69 370.681 1179.59C371.174 1179.1 371.668 1178.6 372.161 1178.21C376.305 1173.66 383.409 1163.09 378.574 1146.11Z" fill="#2F1664"/>
<path d="M223.178 1210.11C141.09 1210.11 90.0803 1193.81 75.774 1182.85C75.3794 1182.55 74.9847 1182.26 74.4914 1181.86L74.0967 1181.47C73.5047 1180.97 73.0114 1180.38 72.5181 1179.89C67.6836 1174.75 60.2837 1163.39 65.3156 1145.42C70.6435 1126.35 91.2643 1122.11 91.4616 1122.11C92.1522 1122.01 92.9416 1122.2 93.4349 1122.7C94.0269 1123.19 94.3229 1123.88 94.3229 1124.58C94.3229 1126.65 102.019 1132.87 125.994 1138.4C143.754 1142.55 175.03 1147.49 223.079 1147.49C271.228 1147.49 302.504 1142.55 320.165 1138.4C344.042 1132.77 351.836 1126.65 351.836 1124.58C351.836 1123.88 352.132 1123.19 352.724 1122.7C353.316 1122.2 354.007 1122.01 354.697 1122.11C354.895 1122.11 375.515 1126.35 380.843 1145.42C385.875 1163.39 378.475 1174.75 373.641 1179.89C373.148 1180.38 372.654 1180.97 372.062 1181.47L371.668 1181.76C371.076 1182.35 370.582 1182.65 370.385 1182.75C356.276 1193.81 305.267 1210.01 223.178 1210.11ZM90.3763 1127.54C85.6404 1129.12 73.8007 1134.06 70.1502 1146.8C65.7103 1162.5 72.0248 1172.18 76.1687 1176.53C76.5633 1176.92 76.958 1177.42 77.4513 1177.81L77.7473 1178.11C78.3393 1178.6 78.6353 1178.9 78.7339 1178.9C78.7339 1178.9 78.8326 1178.9 78.8326 1179C92.0536 1189.17 142.866 1205.17 223.178 1205.27C303.491 1205.27 354.401 1189.17 367.524 1179L367.622 1178.9C367.721 1178.9 368.017 1178.6 368.51 1178.21L368.806 1178.01C369.3 1177.51 369.793 1177.12 370.089 1176.72C374.233 1172.28 380.547 1162.6 376.107 1146.9C372.556 1134.25 360.716 1129.22 355.881 1127.64C348.679 1140.08 297.078 1152.43 223.079 1152.53C149.081 1152.33 97.5788 1139.98 90.3763 1127.54Z" fill="#F9F4F2"/>
<path d="M348.482 1104.43C354.204 1109.46 348.679 1113.81 348.679 1113.81C332.399 1121.71 278.726 1132.48 223.375 1132.48C168.025 1132.48 114.352 1121.71 98.0721 1113.81C98.0721 1113.81 92.5469 1109.36 98.2694 1104.43C87.811 1107.59 85.2458 1110.95 85.2458 1117.37C85.2458 1120.92 85.9364 1126.95 89.6856 1130.3C100.045 1139.69 147.7 1153.91 223.375 1153.91C299.149 1153.91 346.706 1139.69 357.065 1130.3C360.815 1126.85 361.505 1120.82 361.505 1117.37C361.505 1110.85 358.94 1107.49 348.482 1104.43Z" fill="#2F1664"/>
<path d="M223.277 1156.48C148.391 1156.48 99.0587 1142.25 87.9097 1132.18C83.2725 1128.03 82.5818 1121.12 82.6805 1117.37C82.6805 1109.27 86.5284 1105.22 97.4801 1102.06C98.5654 1101.76 99.7494 1102.25 100.341 1103.24C100.933 1104.23 100.637 1105.51 99.848 1106.3C98.6641 1107.29 98.0721 1108.38 98.0721 1109.27C98.0721 1110.45 99.0587 1111.44 99.3547 1111.83C115.141 1119.34 167.926 1130.11 223.277 1130.11C278.627 1130.11 331.413 1119.34 347.199 1111.83C347.692 1111.34 348.482 1110.35 348.482 1109.27C348.482 1108.38 347.89 1107.39 346.706 1106.3C345.818 1105.51 345.62 1104.23 346.212 1103.24C346.804 1102.25 347.988 1101.76 349.073 1102.06C360.025 1105.32 363.873 1109.36 363.873 1117.37C363.873 1121.12 363.182 1128.03 358.644 1132.18C347.594 1142.25 298.163 1156.38 223.277 1156.48ZM93.1389 1108.87C88.107 1111.34 87.6137 1113.91 87.6137 1117.37C87.6137 1119.74 87.9097 1125.56 91.2643 1128.53C99.5521 1136.03 142.767 1151.44 223.375 1151.54C303.984 1151.54 347.199 1136.03 355.487 1128.53C358.743 1125.56 359.137 1119.74 359.137 1117.37C359.137 1113.91 358.644 1111.34 353.612 1108.87C353.612 1109.07 353.612 1109.17 353.612 1109.27C353.513 1113.02 350.652 1115.39 350.257 1115.69C350.159 1115.78 349.961 1115.88 349.764 1115.98C333.485 1123.88 280.502 1134.85 223.375 1134.95C166.15 1134.95 113.168 1123.88 96.9868 1115.98C96.7895 1115.88 96.6908 1115.78 96.4935 1115.69C96.1975 1115.39 93.2376 1113.02 93.1389 1109.27C93.0402 1109.17 93.0402 1109.07 93.1389 1108.87Z" fill="#F9F4F2"/>
<path d="M341.279 1038.25C337.826 1036.47 333.189 1035.29 333.189 1035.29V1044.67C316.021 1051.29 273.299 1057.02 223.277 1057.02C173.254 1057.02 130.533 1051.29 113.365 1044.67V1035.29C113.365 1035.29 107.445 1036.97 105.275 1038.25C102.413 1039.73 92.4482 1051.59 104.781 1064.82C116.72 1075.59 153.916 1081.61 223.277 1081.71C292.638 1081.71 329.834 1075.59 341.772 1064.82C354.007 1051.59 344.732 1040.13 341.279 1038.25Z" fill="#2F1664"/>
<path d="M223.277 1084.28C155.495 1084.28 116.226 1078.55 103.104 1066.8C103.005 1066.7 103.005 1066.7 102.907 1066.6C96.1975 1059.39 95.8028 1052.57 96.5921 1048.13C97.6774 1042 101.723 1037.36 104.091 1036.08C106.36 1034.79 111.984 1033.12 112.674 1032.92C113.464 1032.72 114.253 1032.82 114.845 1033.31C115.437 1033.81 115.832 1034.5 115.832 1035.29V1042.99C132.013 1048.62 171.675 1054.55 223.277 1054.55C274.878 1054.55 314.541 1048.62 330.722 1042.99V1035.29C330.722 1034.5 331.117 1033.81 331.709 1033.31C332.301 1032.82 333.09 1032.72 333.781 1032.82C333.978 1032.82 338.714 1034 342.364 1035.98C344.732 1037.26 348.975 1041.61 350.06 1048.03C350.849 1052.38 350.257 1059.09 343.548 1066.4C343.45 1066.5 343.45 1066.5 343.351 1066.6C330.327 1078.45 291.059 1084.18 223.277 1084.28ZM106.557 1063.14C118.594 1073.81 157.863 1079.24 223.277 1079.34C288.691 1079.34 327.959 1073.81 339.996 1063.14C344.239 1058.5 346.015 1053.76 345.226 1049.02C344.436 1044.18 341.082 1041.02 340.095 1040.52C338.714 1039.83 337.036 1039.14 335.655 1038.75V1044.87C335.655 1045.86 335.063 1046.84 334.077 1047.14C315.133 1054.45 269.55 1059.59 223.277 1059.68C177.003 1059.68 131.421 1054.55 112.477 1047.14C111.49 1046.75 110.898 1045.86 110.898 1044.87V1038.84C109.122 1039.44 107.347 1040.13 106.557 1040.52C106.557 1040.52 106.459 1040.52 106.459 1040.62C105.669 1041.02 102.413 1044.18 101.525 1049.12C100.637 1053.76 102.315 1058.5 106.557 1063.14Z" fill="#F9F4F2"/>
<path d="M1260.33 76.3478L1165.52 104.299V429.346L1260.33 457.396V76.3478Z" fill="#2F1664"/>
<path d="M1260.33 459.865C1260.14 459.865 1259.84 459.865 1259.64 459.766L1164.83 431.815C1163.74 431.518 1163.05 430.531 1163.05 429.444V104.299C1163.05 103.213 1163.74 102.225 1164.83 101.929L1259.64 73.9774C1260.43 73.7799 1261.22 73.8786 1261.81 74.3725C1262.41 74.8663 1262.8 75.5577 1262.8 76.3478V457.396C1262.8 458.186 1262.41 458.877 1261.81 459.371C1261.42 459.667 1260.93 459.865 1260.33 459.865ZM1167.99 427.568L1257.87 454.136V79.6072L1167.99 106.176V427.568Z" fill="#F9F4F2"/>
<path d="M1142.43 459.569C1151.71 461.643 1159.7 455.223 1159.99 445.741C1160.29 433.889 1150.92 424.111 1139.08 423.814C1124.28 423.419 1112.04 435.173 1111.65 449.889C1111.15 468.359 1125.76 483.767 1144.31 484.162C1167.39 484.754 1186.53 466.482 1187.13 443.371C1187.82 414.53 1165.03 390.53 1136.22 389.838C1100.2 388.949 1070.21 417.493 1069.32 453.642C1068.24 498.78 1103.85 526.731 1148.94 526.83C1197.39 526.83 1224.91 492.557 1224.91 446.531V87.2123C1224.91 41.1864 1197.39 6.91378 1148.94 6.91378C1103.85 6.91378 1068.24 34.964 1069.32 80.101C1070.21 116.151 1100.1 144.695 1136.22 143.905C1165.03 143.214 1187.92 119.213 1187.13 90.3729C1186.53 67.2612 1167.39 48.989 1144.31 49.5817C1125.86 50.0755 1111.25 65.3846 1111.65 83.8542C1112.04 98.6695 1124.28 110.324 1139.08 109.929C1150.92 109.633 1160.19 99.8547 1159.99 88.0025C1159.8 78.5207 1151.71 72.1008 1142.43 74.1749V459.569Z" fill="#2F1664"/>
<path d="M1149.04 529.2C1123.59 529.2 1101.29 520.607 1086.19 505.101C1073.07 491.569 1066.36 473.692 1066.85 453.445C1067.25 435.37 1074.75 418.481 1087.87 405.937C1100.99 393.394 1118.16 386.776 1136.31 387.27C1166.51 387.962 1190.38 413.147 1189.69 443.371C1189.1 467.47 1169.37 486.631 1145.49 486.631C1145.1 486.631 1144.8 486.631 1144.4 486.631C1124.57 486.137 1108.89 469.643 1109.38 449.791C1109.77 433.691 1123.19 420.851 1139.27 421.246C1145.69 421.444 1151.61 424.012 1155.95 428.654C1160.39 433.296 1162.66 439.321 1162.56 445.741C1162.46 451.074 1160.09 455.815 1156.15 458.877C1152.2 461.939 1147.07 463.025 1142.04 461.939C1140.75 461.643 1139.87 460.359 1140.16 458.976C1140.46 457.692 1141.74 456.803 1143.12 457.099C1146.77 457.889 1150.32 457.198 1153.19 455.025C1156.05 452.852 1157.63 449.494 1157.72 445.642C1158.02 435.173 1149.73 426.481 1139.27 426.185C1125.86 425.889 1114.71 436.457 1114.41 449.889C1114.02 466.976 1127.53 481.199 1144.6 481.594C1166.31 482.088 1184.36 464.902 1184.86 443.173C1185.15 429.839 1180.32 417.197 1171.14 407.616C1161.97 397.937 1149.63 392.505 1136.31 392.209C1119.54 391.814 1103.56 397.937 1091.42 409.493C1079.29 421.049 1072.38 436.753 1071.89 453.544C1071.39 472.408 1077.61 489.1 1089.84 501.644C1103.95 516.163 1124.97 524.163 1149.04 524.163H1149.14C1171.54 524.163 1190.28 516.558 1203.31 502.138C1215.84 488.211 1222.45 468.952 1222.45 446.432V87.2123C1222.45 64.6932 1215.84 45.3346 1203.31 31.5071C1190.28 17.0869 1171.54 9.48175 1149.14 9.48175H1149.04C1125.07 9.48175 1104.05 17.482 1089.84 32.0009C1077.61 44.5445 1071.39 61.1375 1071.89 80.101C1072.28 96.8916 1079.19 112.497 1091.42 124.152C1103.56 135.708 1119.54 141.93 1136.31 141.436C1149.63 141.14 1161.97 135.609 1171.14 126.028C1180.32 116.349 1185.15 103.707 1184.86 90.4717C1184.36 68.7427 1166.31 51.557 1144.6 52.0509C1127.53 52.4459 1114.02 66.6686 1114.41 83.7555C1114.71 97.1879 1125.86 107.756 1139.27 107.46C1144.31 107.361 1149.04 105.287 1152.49 101.534C1155.95 97.8793 1157.82 93.0397 1157.72 88.0025C1157.63 84.1505 1156.05 80.7924 1153.19 78.6195C1150.42 76.4466 1146.87 75.7552 1143.12 76.5454C1141.84 76.8417 1140.46 76.0515 1140.16 74.6688C1139.87 73.3848 1140.66 72.002 1142.04 71.7057C1147.17 70.6193 1152.3 71.7057 1156.15 74.7676C1160.09 77.8294 1162.46 82.669 1162.56 87.9037C1162.76 94.3237 1160.39 100.349 1155.95 104.991C1151.51 109.633 1145.59 112.201 1139.27 112.398C1123.19 112.793 1109.77 99.9534 1109.38 83.8542C1108.89 64.0018 1124.57 47.5075 1144.4 47.0137C1168.77 46.4211 1189.1 65.7796 1189.69 90.2742C1190.38 120.497 1166.51 145.584 1136.31 146.375C1118.26 146.77 1100.99 140.152 1087.87 127.707C1074.75 115.164 1067.25 98.3732 1066.85 80.1998C1066.36 59.9523 1073.07 42.0753 1086.19 28.544C1101.29 13.0374 1123.59 4.54334 1148.94 4.44457H1149.04C1172.92 4.44457 1192.95 12.6423 1206.96 28.1489C1220.38 42.9642 1227.38 63.4092 1227.38 87.2123V446.432C1227.38 470.236 1220.28 490.681 1206.96 505.496C1192.95 521.002 1172.92 529.2 1149.04 529.2Z" fill="#F9F4F2"/>
<path d="M1193.34 266.872C1193.24 163.56 1174.69 116.349 1162.16 116.349C1148.84 116.744 1131.18 120.892 1119.34 137.09L1133.75 266.872L1119.34 396.653C1131.18 412.851 1148.84 416.999 1162.16 417.395C1174.6 417.395 1193.24 370.183 1193.34 266.872Z" fill="#2F1664"/>
<path d="M1162.16 419.864C1148.65 419.469 1130 415.419 1117.37 398.135C1116.98 397.641 1116.88 397.048 1116.88 396.357L1131.28 266.773L1116.88 137.288C1116.78 136.695 1116.98 136.103 1117.37 135.51C1130 118.226 1148.65 114.077 1162.07 113.781C1178.34 113.781 1195.71 167.412 1195.81 266.773C1195.71 366.233 1178.34 419.864 1162.16 419.864ZM1121.91 395.962C1133.35 410.975 1150.13 414.629 1162.16 414.925C1165.52 414.925 1173.02 407.617 1179.92 380.258C1184.86 360.702 1190.78 325.145 1190.78 266.872C1190.68 208.599 1184.86 173.042 1179.92 153.486C1173.02 126.127 1165.52 118.818 1162.07 118.818C1150.03 119.114 1133.35 122.769 1121.81 137.782L1136.12 266.674C1136.12 266.872 1136.12 267.069 1136.12 267.267L1121.91 395.962Z" fill="#F9F4F2"/>
<path d="M1135.92 266.872C1135.82 177.783 1125.26 137.09 1114.61 137.09C1108.89 137.09 1095.86 138.078 1092.51 142.918C1103.16 142.918 1110.17 197.536 1110.17 266.872C1110.07 336.207 1103.16 390.826 1092.51 390.826C1095.86 395.666 1108.89 396.653 1114.61 396.653C1125.26 396.653 1135.82 355.961 1135.92 266.872Z" fill="#2F1664"/>
<path d="M1114.61 399.122C1111.35 399.122 1094.97 398.826 1090.53 392.209C1090.04 391.418 1089.94 390.431 1090.34 389.641C1090.73 388.851 1091.62 388.357 1092.51 388.357C1092.61 388.357 1098.23 387.962 1102.87 354.479C1105.93 332.059 1107.7 300.947 1107.7 266.773C1107.7 232.698 1105.93 201.487 1102.87 179.166C1098.23 145.683 1092.51 145.288 1092.51 145.288C1091.62 145.288 1090.73 144.794 1090.34 144.004C1089.94 143.214 1089.94 142.226 1090.44 141.436C1094.97 134.819 1111.35 134.522 1114.51 134.522C1129.31 134.522 1138.19 184.005 1138.29 266.773C1138.29 349.738 1129.41 399.122 1114.61 399.122ZM1097.05 391.32C1100.99 393.196 1108.29 394.184 1114.61 394.184C1115.3 394.184 1121.42 393.394 1126.84 364.652C1131.18 341.639 1133.45 307.762 1133.45 266.773C1133.45 225.784 1131.08 191.907 1126.84 168.894C1121.51 140.251 1115.3 139.362 1114.61 139.362C1108.29 139.362 1100.99 140.35 1097.05 142.226C1100.6 145.683 1104.54 154.967 1107.8 178.375C1110.96 200.993 1112.63 232.402 1112.73 266.674C1112.73 301.046 1110.96 332.355 1107.8 354.973C1104.54 378.579 1100.6 387.863 1097.05 391.32Z" fill="#F9F4F2"/>
<path d="M1186.04 431.222C1181.11 408.11 1160.88 390.431 1136.22 389.838C1118.95 389.443 1103.06 395.764 1091.13 406.431L1186.04 431.222Z" fill="#2F1664"/>
<path d="M1186.04 433.691C1184.86 433.691 1183.87 432.901 1183.67 431.716C1178.84 409.098 1159.3 392.9 1136.22 392.307C1120.13 391.912 1104.74 397.641 1092.8 408.308C1091.82 409.197 1090.24 409.098 1089.35 408.11C1088.46 407.123 1088.56 405.542 1089.55 404.653C1102.47 393.098 1119.05 386.974 1136.41 387.369C1161.87 387.962 1183.28 405.839 1188.61 430.728C1188.9 432.111 1188.01 433.395 1186.73 433.691C1186.34 433.691 1186.24 433.691 1186.04 433.691Z" fill="#F9F4F2"/>
<path d="M1092.51 128.497C1104.25 138.473 1119.64 144.3 1136.22 143.905C1160.09 143.313 1179.82 126.818 1185.55 104.793L1092.51 128.497Z" fill="#2F1664"/>
<path d="M1134.64 146.375C1118.65 146.375 1103.16 140.745 1090.93 130.374C1089.84 129.485 1089.74 127.905 1090.63 126.917C1091.52 125.831 1093.1 125.732 1094.09 126.621C1105.83 136.498 1120.73 141.831 1136.12 141.436C1158.22 140.942 1177.56 125.534 1183.08 104.2C1183.38 102.916 1184.76 102.126 1186.04 102.423C1187.32 102.719 1188.11 104.102 1187.82 105.386C1181.7 128.893 1160.49 145.683 1136.22 146.276C1135.72 146.375 1135.13 146.375 1134.64 146.375Z" fill="#F9F4F2"/>
<path d="M1212.98 90.3729H1187.13L1187.13 443.469H1212.98V90.3729Z" fill="#2F1664"/>
<path d="M1187.13 445.84C1185.74 445.84 1184.66 444.753 1184.66 443.371V90.3729C1184.66 88.9902 1185.74 87.9037 1187.13 87.9037C1188.51 87.9037 1189.59 88.9902 1189.59 90.3729V443.469C1189.59 444.753 1188.51 445.84 1187.13 445.84Z" fill="#F9F4F2"/>
<path d="M1314.9 59.656C1294.67 59.656 1286.38 76.3478 1260.33 76.3478V457.396C1286.38 457.396 1294.67 474.087 1314.9 474.087V59.656Z" fill="#2F1664"/>
<path d="M1314.9 476.458C1304.83 476.458 1297.73 472.705 1290.13 468.655C1281.94 464.309 1273.56 459.865 1260.33 459.865C1258.95 459.865 1257.87 458.778 1257.87 457.396V76.3478C1257.87 74.9651 1258.95 73.8786 1260.33 73.8786C1273.56 73.8786 1281.94 69.4341 1290.13 65.0883C1297.63 61.0388 1304.83 57.2856 1314.9 57.2856C1316.28 57.2856 1317.36 58.372 1317.36 59.7548V474.087C1317.36 475.371 1316.28 476.458 1314.9 476.458ZM1262.8 454.926C1275.92 455.42 1284.7 460.161 1292.4 464.309C1299.01 467.865 1304.73 470.927 1312.33 471.421V62.224C1304.73 62.8166 1299.01 65.8784 1292.4 69.3353C1284.61 73.4836 1275.83 78.1257 1262.8 78.7183V454.926Z" fill="#F9F4F2"/>
<path d="M1110.17 266.872C1110.07 197.536 1103.16 142.918 1092.51 142.918C1086.78 143.313 1079.98 145.979 1077.71 149.041C1075.14 152.004 1074.85 156.943 1074.85 156.943H1082.05C1087.87 174.03 1091.82 216.796 1091.82 266.971C1091.82 317.145 1087.87 359.911 1082.05 376.998H1074.85C1074.85 376.998 1075.24 381.937 1077.71 384.9C1079.39 386.776 1086.78 390.53 1092.51 391.023C1103.16 390.826 1110.17 336.207 1110.17 266.872Z" fill="#2F1664"/>
<path d="M1092.51 393.295C1092.41 393.295 1092.41 393.295 1092.31 393.295C1086.09 392.9 1078 388.851 1075.83 386.381C1072.87 382.826 1072.38 377.591 1072.38 376.998C1072.38 376.307 1072.58 375.616 1073.07 375.122C1073.56 374.628 1074.16 374.332 1074.85 374.332H1080.27C1085.8 356.257 1089.35 314.478 1089.35 266.773C1089.35 219.068 1085.7 177.289 1080.27 159.214H1074.85C1074.16 159.214 1073.47 158.918 1073.07 158.424C1072.58 157.93 1072.38 157.239 1072.38 156.548C1072.38 155.955 1072.87 150.819 1075.73 147.263C1078.69 143.411 1086.39 140.646 1092.31 140.251C1092.41 140.251 1092.41 140.251 1092.51 140.251C1096.85 140.251 1103.06 144.202 1107.8 178.375C1110.96 200.993 1112.63 232.402 1112.73 266.674C1112.73 301.046 1110.96 332.355 1107.8 354.973C1103.06 389.344 1096.85 393.295 1092.51 393.295ZM1077.81 379.369C1078.2 380.653 1078.69 382.134 1079.58 383.221C1080.77 384.505 1087.38 387.962 1092.51 388.455C1093 388.357 1098.43 386.678 1102.87 354.578C1105.93 332.158 1107.7 301.046 1107.7 266.872C1107.7 232.797 1105.93 201.586 1102.87 179.166C1098.43 147.066 1093 145.387 1092.51 145.288C1086.88 145.683 1081.26 148.251 1079.68 150.325L1079.58 150.424C1078.69 151.51 1078.1 152.992 1077.81 154.276H1082.05C1083.13 154.276 1084.02 154.967 1084.42 155.955C1090.44 173.536 1094.28 216.994 1094.28 266.773C1094.28 316.552 1090.34 360.01 1084.42 377.591C1084.12 378.579 1083.13 379.27 1082.05 379.27H1077.81V379.369Z" fill="#F9F4F2"/>
</svg>
