<svg width="314" height="200" viewBox="0 0 314 200" fill="none" xmlns="http://www.w3.org/2000/svg">
<path d="M276.589 102.581C269.389 97.3811 261.389 92.1811 252.789 87.0811C252.789 86.9811 252.789 86.8811 252.789 86.7811C251.589 77.3811 248.989 68.3811 245.289 59.8811C245.289 59.7811 245.189 59.6811 245.189 59.5811C244.689 58.3811 244.189 57.2811 243.589 56.1811C243.489 55.9811 243.389 55.7811 243.289 55.5811C242.889 54.6811 242.389 53.8811 241.989 52.9811C241.789 52.5811 241.589 52.1811 241.389 51.7811C240.989 50.9811 240.489 50.1811 240.089 49.3811C239.789 48.8811 239.489 48.3811 239.189 47.8811C238.889 47.2811 238.489 46.7811 238.089 46.1811C237.589 45.4811 237.089 44.6811 236.689 43.9811C236.489 43.6811 236.289 43.3811 236.089 43.0811C235.389 42.0811 234.689 41.1811 233.989 40.1811C233.789 39.8811 233.589 39.6811 233.389 39.3811C232.689 38.4811 231.989 37.4811 231.189 36.5811C230.989 36.2811 230.689 35.9811 230.489 35.7811C230.089 35.2811 229.589 34.7811 229.189 34.2811C228.789 33.8811 228.389 33.3811 227.989 32.9811C227.389 32.3811 226.889 31.7811 226.289 31.1811C225.789 30.6811 225.289 30.1811 224.789 29.6811C224.489 29.3811 224.089 28.9811 223.789 28.6811C222.989 27.9811 222.289 27.1811 221.489 26.4811C221.189 26.1811 220.989 25.9811 220.689 25.7811C219.789 24.9811 218.989 24.2811 218.089 23.4811C217.889 23.2811 217.689 23.1811 217.489 22.9811C216.489 22.1811 215.489 21.3811 214.489 20.5811C193.189 4.38111 166.989 -2.61889 140.489 0.881114C121.789 3.38111 104.489 10.9811 90.1889 22.6811C45.5889 12.7811 8.98894 12.9811 1.28894 32.2811C-3.91106 45.3811 6.68894 62.4811 31.8889 81.7811C38.3889 86.6811 45.6889 91.7811 53.7889 96.7811C53.5889 102.181 53.8889 107.581 54.5889 113.081C58.0889 139.581 71.6889 163.081 92.8889 179.281C110.489 192.781 131.589 199.881 153.389 199.881C157.789 199.881 162.289 199.581 166.789 198.981C190.789 195.781 212.289 184.281 228.189 166.481C235.689 167.981 242.889 169.281 249.689 170.181C258.689 171.381 266.689 171.981 273.789 171.981C295.089 171.981 307.989 166.581 312.289 155.981C317.989 141.681 305.989 123.681 276.589 102.581ZM165.989 192.281C141.289 195.581 116.889 189.081 97.0889 173.881C77.2889 158.781 64.5889 136.881 61.3889 112.181C60.8889 108.381 60.5889 104.681 60.5889 100.881C82.9889 114.181 110.189 127.481 139.089 138.981C167.489 150.281 195.589 159.081 220.689 164.781C206.089 179.881 186.989 189.481 165.989 192.281ZM253.389 107.181C258.089 110.181 262.589 113.181 266.789 116.281C268.589 117.581 270.389 118.881 271.989 120.181C294.989 137.781 297.589 147.481 296.689 149.781C295.689 152.381 285.589 158.081 251.889 153.581C247.789 153.081 243.589 152.381 239.189 151.581C247.489 137.981 252.289 122.781 253.389 107.181ZM74.2889 39.1811C65.2889 50.8811 59.1889 64.1811 56.0889 78.2811C52.7889 76.0811 49.5889 73.8811 46.5889 71.7811C23.5889 55.1811 15.0889 43.0811 16.8889 38.4811C18.1889 35.0811 25.7889 32.8811 38.6889 32.8811C48.2889 32.8811 60.8889 34.0811 76.0889 36.9811C75.4889 37.6811 74.8889 38.4811 74.2889 39.1811ZM210.289 25.9811C244.689 52.2811 256.389 98.2811 238.889 137.781C238.889 137.781 238.889 137.781 238.889 137.881C236.989 142.081 234.789 146.281 232.189 150.181C206.089 144.881 175.889 135.681 145.189 123.381C113.989 110.981 85.1889 96.6811 62.1889 82.1811C64.8889 68.1811 70.7889 54.9811 79.6889 43.2811C94.7889 23.4811 116.689 10.7811 141.389 7.58111C166.089 4.28111 190.589 10.7811 210.289 25.9811Z" fill="#FFBA7F"/>
</svg>
