<svg width="201" height="197" viewBox="0 0 201 197" fill="none" xmlns="http://www.w3.org/2000/svg">
<path d="M100.443 196.241C99.4435 196.241 98.5435 195.441 98.3435 194.441L85.7435 123.741L22.6435 157.941C21.7435 158.441 20.5435 158.241 19.9435 157.341C19.2435 156.541 19.3435 155.341 20.0435 154.541L67.4435 100.641L1.34346 72.6409C0.343459 72.2409 -0.156541 71.1409 0.0434588 70.1409C0.243459 69.1409 1.24346 68.4409 2.24346 68.4409L73.8435 71.9409L54.5435 2.74087C54.2435 1.74087 54.7435 0.640867 55.6435 0.240867C56.5435 -0.259133 57.7435 0.0408669 58.3435 0.940867L100.343 59.1409L142.343 0.940867C142.943 0.0408669 144.043 -0.159133 145.043 0.240867C145.943 0.740867 146.443 1.74087 146.143 2.74087L126.843 71.9409L198.543 68.5409C199.643 68.4409 200.543 69.2409 200.743 70.2409C200.943 71.2409 200.443 72.3409 199.443 72.7409L133.343 100.741L180.743 154.641C181.443 155.441 181.443 156.641 180.843 157.441C180.143 158.241 179.043 158.541 178.143 158.041L115.043 123.841L102.443 194.541C102.343 195.541 101.443 196.241 100.443 196.241ZM87.2435 118.241C87.5435 118.241 87.8435 118.341 88.1435 118.441C88.7435 118.741 89.2435 119.341 89.3435 120.041L100.343 181.741L111.343 120.041C111.443 119.341 111.943 118.741 112.543 118.441C113.143 118.141 113.943 118.141 114.543 118.441L169.643 148.341L128.243 101.241C127.743 100.741 127.643 100.041 127.743 99.3409C127.943 98.6409 128.343 98.1409 129.043 97.8409L186.843 73.4409L124.243 76.4409C123.543 76.4409 122.843 76.1409 122.443 75.6409C122.043 75.1409 121.843 74.3409 122.043 73.7409L138.843 13.3409L102.143 64.1409C101.743 64.7409 101.043 65.0409 100.343 65.0409C99.6435 65.0409 99.0435 64.7409 98.5435 64.1409L61.9435 13.3409L78.8435 73.6409C79.0435 74.3409 78.8435 75.0409 78.4435 75.5409C78.0435 76.0409 77.3435 76.3409 76.6435 76.3409L14.0435 73.3409L71.7435 97.8409C72.3435 98.1409 72.8435 98.6409 73.0435 99.3409C73.2435 100.041 73.0435 100.741 72.5435 101.241L31.1435 148.341L86.2435 118.441C86.5435 118.341 86.9435 118.241 87.2435 118.241Z" fill="#FF9C7E"/>
</svg>
