<svg width="77" height="985" viewBox="0 0 77 985" fill="none" xmlns="http://www.w3.org/2000/svg">
<g clip-path="url(#clip0_340_195)">
<path d="M-175.589 710.66V713.744V757.585V760.11L-47.1437 834.162L-4.38405 858.929L35.8068 882.086L38.4586 883.613V834.162L35.8068 832.632L-175.589 710.66Z" fill="#FFF9F3"/>
<path d="M-175.589 710.66V713.744V757.585V760.11L-47.1437 834.162L-4.38405 858.929L35.8068 882.086L38.4586 883.613V834.162L35.8068 832.632L-175.589 710.66Z" fill="#FFF9F3"/>
<path d="M209.663 735.426L252.423 710.66V713.875V757.418V760.11L41.1103 882.083L38.4586 883.613V834.162L41.1103 832.633L209.663 735.426Z" fill="#FFF9F3"/>
<path d="M209.663 735.426L252.423 710.66V713.875V757.418V760.11L41.1103 882.083L38.4586 883.613V834.162L41.1103 832.633L209.663 735.426Z" fill="#FFF9F3"/>
<path d="M-97.1129 709.169C-97.4891 709.169 -97.9336 709.1 -98.3224 708.902C-98.3618 708.882 -98.4007 708.86 -98.4388 708.837C-99.2675 708.34 -99.7647 707.512 -99.7647 706.601V702.089V274.63C-99.7647 263.034 -94.3783 252.597 -84.9314 245.97C-75.8473 239.542 -64.2678 237.791 -53.8997 241.17C-53.5801 241.275 -53.2617 241.384 -52.9445 241.498C-51.7015 241.912 -51.0385 243.154 -51.2871 244.397C-51.3154 244.559 -51.3425 244.721 -51.3683 244.882C-51.6457 246.613 -51.7843 248.28 -51.7843 249.946V680.833V681.834C-51.7843 682.745 -52.2815 683.656 -53.1102 684.07L-86.9098 703.544L-95.182 708.31L-95.9528 708.754C-96.0091 708.811 -96.0677 708.86 -96.1284 708.902C-96.4249 709.111 -96.7689 709.169 -97.1129 709.169ZM-64.5459 244.728C-69.9475 244.728 -75.2849 246.206 -80.0481 249.049C-80.6924 249.434 -81.3261 249.844 -81.9482 250.278C-89.9863 255.91 -94.544 264.856 -94.544 274.713V702.045L-94.4611 701.997L-88.9597 698.817L-85.5053 696.82L-57.005 680.343V249.946C-57.005 248.538 -56.9221 247.13 -56.7564 245.722C-56.8391 245.7 -56.9219 245.678 -57.005 245.657C-59.4188 245.038 -61.9824 244.728 -64.5459 244.728Z" fill="#FFF9F3"/>
<path d="M-97.1129 709.169C-97.4891 709.169 -97.9336 709.1 -98.3224 708.902C-98.3618 708.882 -98.4007 708.86 -98.4388 708.837C-99.2675 708.34 -99.7647 707.512 -99.7647 706.601V702.089V274.63C-99.7647 263.034 -94.3783 252.597 -84.9314 245.97C-75.8473 239.542 -64.2678 237.791 -53.8997 241.17C-53.5801 241.275 -53.2617 241.384 -52.9445 241.498C-51.7015 241.912 -51.0385 243.154 -51.2871 244.397C-51.3154 244.559 -51.3425 244.721 -51.3683 244.882C-51.6457 246.613 -51.7843 248.28 -51.7843 249.946V680.833V681.834C-51.7843 682.745 -52.2815 683.656 -53.1102 684.07L-86.9098 703.544L-95.182 708.31L-95.9528 708.754C-96.0091 708.811 -96.0677 708.86 -96.1284 708.902C-96.4249 709.111 -96.7689 709.169 -97.1129 709.169ZM-64.5459 244.728C-69.9475 244.728 -75.2849 246.206 -80.0481 249.049C-80.6924 249.434 -81.3261 249.844 -81.9482 250.278C-89.9863 255.91 -94.544 264.856 -94.544 274.713V702.045L-94.4611 701.997L-88.9597 698.817L-85.5053 696.82L-57.005 680.343V249.946C-57.005 248.538 -56.9221 247.13 -56.7564 245.722C-56.8391 245.7 -56.9219 245.678 -57.005 245.657C-59.4188 245.038 -61.9824 244.728 -64.5459 244.728Z" fill="#FFF9F3"/>
<path d="M1.49963 641.246V638.678V329.3C1.49963 295.835 -16.3999 264.856 -45.4035 248.124L-48.3039 246.467C-49.3217 245.874 -50.3395 245.346 -51.3683 244.882C-52.3499 244.44 -53.3417 244.058 -54.3532 243.734C-54.3532 247.213 -54.3532 249.532 -54.3532 249.946V641.246H1.49963Z" fill="#FFF9F3"/>
<path d="M1.49963 641.246V638.678V329.3C1.49963 295.835 -16.3999 264.856 -45.4035 248.124L-48.3039 246.467C-49.3217 245.874 -50.3395 245.346 -51.3683 244.882C-52.3499 244.44 -53.3417 244.058 -54.3532 243.734C-54.3532 247.213 -54.3532 249.532 -54.3532 249.946V641.246H1.49963Z" fill="#FFF9F3"/>
<path d="M-87.5831 703.619C-88.4946 703.619 -89.4062 703.122 -89.8206 702.294C-90.0692 701.879 -90.1521 701.382 -90.1521 700.968C-90.1521 700.28 -89.868 699.638 -89.3715 699.152C-89.2472 699.03 -89.1095 698.917 -88.9597 698.817C-88.9162 698.787 -88.8716 698.759 -88.8261 698.732L-85.5053 696.82L-56.9221 680.361L-55.5962 679.597L-55.5948 679.597C-55.4295 679.514 -55.264 679.431 -55.0162 679.349C-54.8504 679.266 -54.6018 679.266 -54.3532 679.266C-54.1874 679.266 -53.9389 679.266 -53.7731 679.266C-53.0273 679.432 -52.3643 679.846 -51.95 680.509C-51.8864 680.615 -51.8312 680.723 -51.7843 680.833C-51.2815 682.014 -51.7317 683.388 -52.9445 684.07L-86.1744 703.205C-86.4343 703.378 -86.6715 703.483 -86.9098 703.544C-87.1274 703.6 -87.3458 703.619 -87.5831 703.619Z" fill="#FFF9F3"/>
<path d="M-87.5831 703.619C-88.4946 703.619 -89.4062 703.122 -89.8206 702.294C-90.0692 701.879 -90.1521 701.382 -90.1521 700.968C-90.1521 700.28 -89.868 699.638 -89.3715 699.152C-89.2472 699.03 -89.1095 698.917 -88.9597 698.817C-88.9162 698.787 -88.8716 698.759 -88.8261 698.732L-85.5053 696.82L-56.9221 680.361L-55.5962 679.597L-55.5948 679.597C-55.4295 679.514 -55.264 679.431 -55.0162 679.349C-54.8504 679.266 -54.6018 679.266 -54.3532 679.266C-54.1874 679.266 -53.9389 679.266 -53.7731 679.266C-53.0273 679.432 -52.3643 679.846 -51.95 680.509C-51.8864 680.615 -51.8312 680.723 -51.7843 680.833C-51.2815 682.014 -51.7317 683.388 -52.9445 684.07L-86.1744 703.205C-86.4343 703.378 -86.6715 703.483 -86.9098 703.544C-87.1274 703.6 -87.3458 703.619 -87.5831 703.619Z" fill="#FFF9F3"/>
<path d="M75.3347 641.246V329.3C75.3347 295.835 93.2341 264.856 122.238 248.124L125.138 246.467C127.127 245.308 129.116 244.397 131.188 243.734C131.188 247.213 131.188 249.532 131.188 249.946V641.246H75.3347Z" fill="#FFF9F3"/>
<path d="M75.3347 641.246V329.3C75.3347 295.835 93.2341 264.856 122.238 248.124L125.138 246.467C127.127 245.308 129.116 244.397 131.188 243.734C131.188 247.213 131.188 249.532 131.188 249.946V641.246H75.3347Z" fill="#FFF9F3"/>
<path d="M131.188 643.897H77.9864H75.3347C74.1408 643.897 73.0659 643.064 72.7658 641.902C72.7118 641.693 72.6829 641.474 72.6829 641.246V329.3C72.6829 295.007 91.1624 263.034 120.912 245.805L123.812 244.148C125.884 242.988 128.038 241.995 130.276 241.249C130.429 241.203 130.582 241.168 130.734 241.146C131.405 241.045 132.056 241.175 132.596 241.58C133.259 242.077 133.674 242.823 133.674 243.734C133.674 244.439 133.674 245.096 133.674 245.7V245.702C133.674 245.979 133.674 246.244 133.674 246.498C133.674 248.419 133.674 249.655 133.674 249.946V641.246C133.839 642.654 132.679 643.897 131.188 643.897ZM77.9864 638.596H128.619V249.946C128.619 249.698 128.619 248.87 128.619 247.627C127.873 247.958 127.21 248.373 126.464 248.704L123.564 250.361C95.4715 266.596 77.9864 296.829 77.9864 329.3V638.596Z" fill="#FFF9F3"/>
<path d="M131.188 643.897H77.9864H75.3347C74.1408 643.897 73.0659 643.064 72.7658 641.902C72.7118 641.693 72.6829 641.474 72.6829 641.246V329.3C72.6829 295.007 91.1624 263.034 120.912 245.805L123.812 244.148C125.884 242.988 128.038 241.995 130.276 241.249C130.429 241.203 130.582 241.168 130.734 241.146C131.405 241.045 132.056 241.175 132.596 241.58C133.259 242.077 133.674 242.823 133.674 243.734C133.674 244.439 133.674 245.096 133.674 245.7V245.702C133.674 245.979 133.674 246.244 133.674 246.498C133.674 248.419 133.674 249.655 133.674 249.946V641.246C133.839 642.654 132.679 643.897 131.188 643.897ZM77.9864 638.596H128.619V249.946C128.619 249.698 128.619 248.87 128.619 247.627C127.873 247.958 127.21 248.373 126.464 248.704L123.564 250.361C95.4715 266.596 77.9864 296.829 77.9864 329.3V638.596Z" fill="#FFF9F3"/>
<path d="M164.417 703.619C164.003 703.619 163.506 703.536 163.091 703.287L129.862 684.153C128.618 683.408 128.204 681.834 128.867 680.591C129.281 679.929 129.944 679.432 130.69 679.349C130.856 679.349 131.105 679.266 131.27 679.349C131.436 679.349 131.685 679.432 131.85 679.432C132.016 679.515 132.182 679.597 132.348 679.68L165.578 698.815C166.406 699.312 166.903 700.14 166.903 701.051C166.903 701.465 166.821 701.962 166.572 702.376C166.24 703.122 165.329 703.619 164.417 703.619Z" fill="#FFF9F3"/>
<path d="M164.417 703.619C164.003 703.619 163.506 703.536 163.091 703.287L129.862 684.153C128.618 683.408 128.204 681.834 128.867 680.591C129.281 679.929 129.944 679.432 130.69 679.349C130.856 679.349 131.105 679.266 131.27 679.349C131.436 679.349 131.685 679.432 131.85 679.432C132.016 679.515 132.182 679.597 132.348 679.68L165.578 698.815C166.406 699.312 166.903 700.14 166.903 701.051C166.903 701.465 166.821 701.962 166.572 702.376C166.24 703.122 165.329 703.619 164.417 703.619Z" fill="#FFF9F3"/>
<path fill-rule="evenodd" clip-rule="evenodd" d="M-127.525 101.428L38.4586 197.182L204.442 101.428L38.4586 5.67401L-127.525 101.428ZM37.1327 153.695C37.5471 153.944 38.0442 154.027 38.4586 154.027C38.8729 154.027 39.3701 153.944 39.7845 153.695L126.298 103.747C127.127 103.333 127.624 102.422 127.624 101.511C127.624 100.6 127.127 99.7715 126.298 99.2745L39.7845 49.3266C38.9558 48.8296 37.9614 48.8296 37.1327 49.3266L-49.3811 99.2745C-50.2098 99.6887 -50.707 100.6 -50.707 101.511C-50.707 102.422 -50.2098 103.25 -49.3811 103.747L37.1327 153.695Z" fill="#FFF9F3"/>
<path fill-rule="evenodd" clip-rule="evenodd" d="M-127.525 101.428L38.4586 197.182L204.442 101.428L38.4586 5.67401L-127.525 101.428ZM37.1327 153.695C37.5471 153.944 38.0442 154.027 38.4586 154.027C38.8729 154.027 39.3701 153.944 39.7845 153.695L126.298 103.747C127.127 103.333 127.624 102.422 127.624 101.511C127.624 100.6 127.127 99.7715 126.298 99.2745L39.7845 49.3266C38.9558 48.8296 37.9614 48.8296 37.1327 49.3266L-49.3811 99.2745C-50.2098 99.6887 -50.707 100.6 -50.707 101.511C-50.707 102.422 -50.2098 103.25 -49.3811 103.747L37.1327 153.695Z" fill="#2F1664"/>
<path d="M-130.177 684.539L-99.7647 702.089V274.63C-99.7647 261.874 -93.2181 250.526 -82.1967 244.148C-71.1753 237.77 -57.9993 237.77 -46.9779 244.148L-44.0776 245.805C-14.3281 262.951 4.15135 294.924 4.15135 329.3V641.246V762.016L35.8068 780.265V201.821L-130.177 106.067V684.539Z" fill="#FFF9F3"/>
<path d="M-130.177 684.539L-99.7647 702.089V274.63C-99.7647 261.874 -93.2181 250.526 -82.1967 244.148C-71.1753 237.77 -57.9993 237.77 -46.9779 244.148L-44.0776 245.805C-14.3281 262.951 4.15135 294.924 4.15135 329.3V641.246V762.016L35.8068 780.265V201.821L-130.177 106.067V684.539Z" fill="#2F1664"/>
<path d="M41.0275 201.821V780.322L72.6829 762.016V641.246V329.3C72.6829 295.007 91.1624 263.034 120.912 245.805L123.812 244.148C134.834 237.77 148.01 237.77 159.031 244.148C170.052 250.526 176.599 261.874 176.599 274.63V701.962L207.011 684.402V105.984L41.0275 201.821Z" fill="#FFF9F3"/>
<path d="M41.0275 201.821V780.322L72.6829 762.016V641.246V329.3C72.6829 295.007 91.1624 263.034 120.912 245.805L123.812 244.148C134.834 237.77 148.01 237.77 159.031 244.148C170.052 250.526 176.599 261.874 176.599 274.63V701.962L207.011 684.402V105.984L41.0275 201.821Z" fill="#2F1664"/>
<path d="M-80.0481 249.049C-89.0608 254.496 -94.4611 264.008 -94.4611 274.63V701.997L-88.9597 698.817C-88.9162 698.787 -88.8716 698.759 -88.8261 698.732L-85.5053 696.82L-57.005 680.343V641.246V249.946V245.657C-59.4188 245.038 -61.9824 244.728 -64.5459 244.728C-69.9475 244.728 -75.2849 246.206 -80.0481 249.049Z" fill="#FFF9F3"/>
<path d="M-80.0481 249.049C-89.0608 254.496 -94.4611 264.008 -94.4611 274.63V701.997L-88.9597 698.817C-88.9162 698.787 -88.8716 698.759 -88.8261 698.732L-85.5053 696.82L-57.005 680.343V641.246V249.946V245.657C-59.4188 245.038 -61.9824 244.728 -64.5459 244.728C-69.9475 244.728 -75.2849 246.206 -80.0481 249.049Z" fill="#2F1664"/>
<path d="M133.839 641.4C133.839 641.404 133.839 641.408 133.839 641.412L133.839 680.343L171.378 702.045L171.378 274.63C171.378 273.952 171.356 273.279 171.313 272.61C170.659 262.585 165.158 253.752 156.379 248.704C153.526 247.063 150.504 245.923 147.415 245.282C143.152 244.416 138.725 244.478 134.46 245.5C134.197 245.564 133.935 245.631 133.674 245.702V246.498C133.784 247.648 133.839 248.797 133.839 249.946V641.4Z" fill="#FFF9F3"/>
<path d="M133.839 641.4C133.839 641.404 133.839 641.408 133.839 641.412L133.839 680.343L171.378 702.045L171.378 274.63C171.378 273.952 171.356 273.279 171.313 272.61C170.659 262.585 165.158 253.752 156.379 248.704C153.526 247.063 150.504 245.923 147.415 245.282C143.152 244.416 138.725 244.478 134.46 245.5C134.197 245.564 133.935 245.631 133.674 245.702V246.498C133.784 247.648 133.839 248.797 133.839 249.946V641.4Z" fill="#2F1664"/>
<path d="M41.1103 786.238V829.559L247.202 710.66L209.679 688.967L175.356 708.754C175.241 708.823 175.123 708.882 175.003 708.932C174.736 709.117 174.357 709.169 174.03 709.169C173.616 709.169 173.118 709.086 172.704 708.837L129.862 684.153C129.033 683.656 128.536 682.828 128.536 681.917L128.536 681.834V643.897H77.9864V763.424C77.9864 764.114 77.7013 764.804 77.203 765.278C77.0242 765.466 76.8145 765.625 76.5777 765.743L41.1103 786.238Z" fill="#FFF9F3"/>
<path d="M41.1103 786.238V829.559L247.202 710.66L209.679 688.967L175.356 708.754C175.241 708.823 175.123 708.882 175.003 708.932C174.736 709.117 174.357 709.169 174.03 709.169C173.616 709.169 173.118 709.086 172.704 708.837L129.862 684.153C129.033 683.656 128.536 682.828 128.536 681.917L128.536 681.834V643.897H77.9864V763.424C77.9864 764.114 77.7013 764.804 77.203 765.278C77.0242 765.466 76.8145 765.625 76.5777 765.743L41.1103 786.238Z" fill="#2F1664"/>
<path d="M-56.9221 680.426L-89.3715 699.152C-89.868 699.638 -90.1521 700.28 -90.1521 700.968C-90.1521 701.382 -90.0692 701.879 -89.8206 702.294C-89.4062 703.122 -88.4946 703.619 -87.5831 703.619C-87.3458 703.619 -87.1274 703.6 -86.9098 703.544L-53.1102 684.07C-52.2815 683.656 -51.7843 682.745 -51.7843 681.834V680.833C-51.2815 682.014 -51.7317 683.388 -52.9445 684.07L-86.1744 703.205C-86.4343 703.378 -86.6715 703.483 -86.9098 703.544L-95.182 708.31C-95.3563 708.489 -95.5591 708.64 -95.787 708.754C-95.7974 708.76 -95.8078 708.765 -95.8182 708.77C-95.8249 708.773 -95.8316 708.776 -95.8384 708.78C-95.8672 708.793 -95.8961 708.807 -95.9253 708.82C-95.9525 708.832 -95.98 708.844 -96.0075 708.855C-96.0475 708.872 -96.0878 708.887 -96.1284 708.902C-96.4249 709.111 -96.7689 709.169 -97.1129 709.169C-97.4891 709.169 -97.9336 709.1 -98.3224 708.902C-98.4182 708.859 -98.5124 708.81 -98.6045 708.754L-132.912 688.958L-170.368 710.66L35.8068 829.607V786.348L0.256622 765.826C0.0288678 765.689 -0.173704 765.528 -0.347946 765.346C-0.859117 764.857 -1.15219 764.206 -1.15219 763.507V643.897H-51.7843V680.833V681.834C-51.7843 682.745 -52.2815 683.656 -53.1102 684.07L-86.9098 703.544C-86.6715 703.483 -86.4343 703.378 -86.1744 703.205L-52.9445 684.07C-51.7317 683.388 -51.2815 682.014 -51.7843 680.833C-51.8312 680.723 -51.8864 680.615 -51.95 680.509C-52.3643 679.846 -53.0273 679.432 -53.7731 679.266H-54.3532C-54.6018 679.266 -54.8504 679.266 -55.0162 679.349C-55.264 679.431 -55.4295 679.514 -55.5948 679.597L-55.5962 679.597L-56.9221 680.361V680.426Z" fill="#FFF9F3"/>
<path d="M-56.9221 680.426L-89.3715 699.152C-89.868 699.638 -90.1521 700.28 -90.1521 700.968C-90.1521 701.382 -90.0692 701.879 -89.8206 702.294C-89.4062 703.122 -88.4946 703.619 -87.5831 703.619C-87.3458 703.619 -87.1274 703.6 -86.9098 703.544L-53.1102 684.07C-52.2815 683.656 -51.7843 682.745 -51.7843 681.834V680.833C-51.2815 682.014 -51.7317 683.388 -52.9445 684.07L-86.1744 703.205C-86.4343 703.378 -86.6715 703.483 -86.9098 703.544L-95.182 708.31C-95.3563 708.489 -95.5591 708.64 -95.787 708.754C-95.7974 708.76 -95.8078 708.765 -95.8182 708.77C-95.8249 708.773 -95.8316 708.776 -95.8384 708.78C-95.8672 708.793 -95.8961 708.807 -95.9253 708.82C-95.9525 708.832 -95.98 708.844 -96.0075 708.855C-96.0475 708.872 -96.0878 708.887 -96.1284 708.902C-96.4249 709.111 -96.7689 709.169 -97.1129 709.169C-97.4891 709.169 -97.9336 709.1 -98.3224 708.902C-98.4182 708.859 -98.5124 708.81 -98.6045 708.754L-132.912 688.958L-170.368 710.66L35.8068 829.607V786.348L0.256622 765.826C0.0288678 765.689 -0.173704 765.528 -0.347946 765.346C-0.859117 764.857 -1.15219 764.206 -1.15219 763.507V643.897H-51.7843V680.833V681.834C-51.7843 682.745 -52.2815 683.656 -53.1102 684.07L-86.9098 703.544C-86.6715 703.483 -86.4343 703.378 -86.1744 703.205L-52.9445 684.07C-51.7317 683.388 -51.2815 682.014 -51.7843 680.833C-51.8312 680.723 -51.8864 680.615 -51.95 680.509C-52.3643 679.846 -53.0273 679.432 -53.7731 679.266H-54.3532C-54.6018 679.266 -54.8504 679.266 -55.0162 679.349C-55.264 679.431 -55.4295 679.514 -55.5948 679.597L-55.5962 679.597L-56.9221 680.361V680.426Z" fill="#2F1664"/>
<path d="M-213.128 784.794L35.8068 928.508V885.187L-175.589 763.175L-213.128 784.794Z" fill="#FFF9F3"/>
<path d="M-213.128 784.794L35.8068 928.508V885.187L-175.589 763.175L-213.128 784.794Z" fill="#2F1664"/>
<path d="M41.1931 885.009V928.33L290.045 784.794L252.506 763.092L41.1931 885.009Z" fill="#FFF9F3"/>
<path d="M41.1931 885.009V928.33L290.045 784.794L252.506 763.092L41.1931 885.009Z" fill="#2F1664"/>
<path d="M292.614 789.267V832.589L41.1103 977.746V980.896L81.2183 957.665L295.265 834.162V787.713L41.1103 934.37V934.424L292.614 789.267Z" fill="#FFF9F3"/>
<path d="M292.614 789.267V832.589L41.1103 977.746V980.896L81.2183 957.665L295.265 834.162V787.713L41.1103 934.37V934.424L292.614 789.267Z" fill="#FFF9F3"/>
<path d="M41.1103 934.37L295.265 787.713V784.794L41.1931 931.404V933.064C41.1931 933.282 41.1648 933.5 41.1103 933.71V934.37Z" fill="#FFF9F3"/>
<path d="M41.1103 934.37L295.265 787.713V784.794L41.1931 931.404V933.064C41.1931 933.282 41.1648 933.5 41.1103 933.71V934.37Z" fill="#FFF9F3"/>
<path d="M38.4586 935.632V982.432L41.1103 980.896V977.746L41.0275 977.794V934.472L41.1103 934.424V934.37L40.6731 934.622C40.461 934.904 40.1891 935.14 39.8673 935.301L39.866 935.301C39.3692 935.466 38.8726 935.632 38.4586 935.632Z" fill="#FFF9F3"/>
<path d="M38.4586 935.632V982.432L41.1103 980.896V977.746L41.0275 977.794V934.472L41.1103 934.424V934.37L40.6731 934.622C40.461 934.904 40.1891 935.14 39.8673 935.301L39.866 935.301C39.3692 935.466 38.8726 935.632 38.4586 935.632Z" fill="#FFF9F3"/>
<path d="M-218.348 834.162L-175.589 858.929L35.8068 980.902V977.876L-215.779 832.672V789.361L-218.348 787.879V834.162Z" fill="#FFF9F3"/>
<path d="M-218.348 834.162L-175.589 858.929L35.8068 980.902V977.876L-215.779 832.672V789.361L-218.348 787.879V834.162Z" fill="#FFF9F3"/>
<path d="M-4.38405 858.929L-47.1437 834.162L-175.589 760.11V757.585C-176.017 757.6 -176.442 757.723 -176.832 757.957L-178.24 758.768V760.11C-178.24 761.022 -177.743 761.85 -176.914 762.347L35.8068 885.085V883.696C35.8068 883.682 35.8069 883.669 35.8071 883.655C35.8069 883.641 35.8068 883.627 35.8068 883.613V882.086L-4.38405 858.929Z" fill="#FFF9F3"/>
<path d="M-4.38405 858.929L-47.1437 834.162L-175.589 760.11V757.585C-176.017 757.6 -176.442 757.723 -176.832 757.957L-178.24 758.768V760.11C-178.24 761.022 -177.743 761.85 -176.914 762.347L35.8068 885.085V883.696C35.8068 883.682 35.8069 883.669 35.8071 883.655C35.8069 883.641 35.8068 883.627 35.8068 883.613V882.086L-4.38405 858.929Z" fill="#FFF9F3"/>
<path d="M38.4586 787.445C38.0442 787.445 37.5471 787.362 37.1327 787.114L35.8068 786.348V829.607V829.714L38.3865 831.202L41.1103 829.63V829.559L41.0275 829.607V786.285L41.1103 786.238V786.183L40.228 786.692C39.9291 786.99 39.5624 787.218 39.1559 787.341C39.0763 787.365 38.9953 787.386 38.9129 787.401C38.8764 787.409 38.8396 787.415 38.8026 787.42C38.7868 787.422 38.7708 787.425 38.7549 787.427C38.7432 787.428 38.7314 787.429 38.7196 787.431C38.6743 787.436 38.6287 787.439 38.5828 787.442C38.5758 787.442 38.5688 787.443 38.5617 787.443C38.5537 787.443 38.5457 787.443 38.5378 787.444C38.5115 787.445 38.4851 787.445 38.4586 787.445Z" fill="#FFF9F3"/>
<path d="M38.4586 787.445C38.0442 787.445 37.5471 787.362 37.1327 787.114L35.8068 786.348V829.607V829.714L38.3865 831.202L41.1103 829.63V829.559L41.0275 829.607V786.285L41.1103 786.238V786.183L40.228 786.692C39.9291 786.99 39.5624 787.218 39.1559 787.341C39.0763 787.365 38.9953 787.386 38.9129 787.401C38.8764 787.409 38.8396 787.415 38.8026 787.42C38.7868 787.422 38.7708 787.425 38.7549 787.427C38.7432 787.428 38.7314 787.429 38.7196 787.431C38.6743 787.436 38.6287 787.439 38.5828 787.442C38.5758 787.442 38.5688 787.443 38.5617 787.443C38.5537 787.443 38.5457 787.443 38.5378 787.444C38.5115 787.445 38.4851 787.445 38.4586 787.445Z" fill="#FFF9F3"/>
<path d="M209.663 735.426L252.423 710.66V713.875L253.832 713.062C254.462 712.746 254.901 712.143 255.075 711.471V710.66C255.075 710.299 254.997 709.952 254.851 709.633C254.623 709.215 254.275 708.855 253.832 708.589L253.023 708.123C252.378 707.965 251.694 708.065 251.097 708.423L41.1103 829.63V832.633L209.663 735.426Z" fill="#FFF9F3"/>
<path d="M209.663 735.426L252.423 710.66V713.875L253.832 713.062C254.462 712.746 254.901 712.143 255.075 711.471V710.66C255.075 710.299 254.997 709.952 254.851 709.633C254.623 709.215 254.275 708.855 253.832 708.589L253.023 708.123C252.378 707.965 251.694 708.065 251.097 708.423L41.1103 829.63V832.633L209.663 735.426Z" fill="#FFF9F3"/>
<path d="M-176.914 708.506C-177.743 708.92 -178.24 709.831 -178.24 710.742C-178.24 711.654 -177.743 712.482 -176.914 712.979L-175.589 713.744V710.66L35.8068 832.632V829.714L-174.263 708.506C-175.064 708.025 -176.02 708.01 -176.832 708.458L-176.914 708.506Z" fill="#FFF9F3"/>
<path d="M-176.914 708.506C-177.743 708.92 -178.24 709.831 -178.24 710.742C-178.24 711.654 -177.743 712.482 -176.914 712.979L-175.589 713.744V710.66L35.8068 832.632V829.714L-174.263 708.506C-175.064 708.025 -176.02 708.01 -176.832 708.458L-176.914 708.506Z" fill="#FFF9F3"/>
<path d="M176.516 274.63C176.516 263.117 171.13 252.597 161.683 245.97C152.621 239.558 141.153 237.799 130.734 241.146C131.405 241.045 132.056 241.175 132.596 241.58C133.259 242.077 133.674 242.823 133.674 243.734V245.7C133.935 245.629 134.197 245.563 134.46 245.5C138.722 244.466 143.132 244.393 147.415 245.282C151.441 246.1 155.322 247.746 158.782 250.195C166.19 255.44 170.724 263.558 171.313 272.61C171.356 273.279 171.378 273.952 171.378 274.63L171.378 702.045L171.378 702.171L174.03 703.702L176.516 702.267V274.63Z" fill="#FFF9F3"/>
<path d="M176.516 274.63C176.516 263.117 171.13 252.597 161.683 245.97C152.621 239.558 141.153 237.799 130.734 241.146C131.405 241.045 132.056 241.175 132.596 241.58C133.259 242.077 133.674 242.823 133.674 243.734V245.7C133.935 245.629 134.197 245.563 134.46 245.5C138.722 244.466 143.132 244.393 147.415 245.282C151.441 246.1 155.322 247.746 158.782 250.195C166.19 255.44 170.724 263.558 171.313 272.61C171.356 273.279 171.378 273.952 171.378 274.63L171.378 702.045L171.378 702.171L174.03 703.702L176.516 702.267V274.63Z" fill="#FFF9F3"/>
<path d="M1.58247 638.678C2.24541 638.678 2.90833 638.927 3.40553 639.424C3.66839 639.687 3.86176 639.996 3.98566 640.326V329.3C3.98566 294.924 -14.4939 262.951 -44.2434 245.805L-47.1437 244.148C-49.1326 242.988 -51.3699 241.995 -53.6074 241.249C-53.7024 241.217 -53.8001 241.191 -53.8997 241.17C-53.5801 241.275 -53.2617 241.384 -52.9445 241.498C-51.7015 241.912 -51.0385 243.154 -51.2871 244.397C-51.3154 244.559 -51.3425 244.721 -51.3683 244.882C-50.3395 245.346 -49.3217 245.874 -48.3039 246.467L-45.4035 248.124C-16.3999 264.856 1.49963 295.835 1.49963 329.3V638.678H1.58247Z" fill="#FFF9F3"/>
<path d="M1.58247 638.678C2.24541 638.678 2.90833 638.927 3.40553 639.424C3.66839 639.687 3.86176 639.996 3.98566 640.326V329.3C3.98566 294.924 -14.4939 262.951 -44.2434 245.805L-47.1437 244.148C-49.1326 242.988 -51.3699 241.995 -53.6074 241.249C-53.7024 241.217 -53.8001 241.191 -53.8997 241.17C-53.5801 241.275 -53.2617 241.384 -52.9445 241.498C-51.7015 241.912 -51.0385 243.154 -51.2871 244.397C-51.3154 244.559 -51.3425 244.721 -51.3683 244.882C-50.3395 245.346 -49.3217 245.874 -48.3039 246.467L-45.4035 248.124C-16.3999 264.856 1.49963 295.835 1.49963 329.3V638.678H1.58247Z" fill="#FFF9F3"/>
<path fill-rule="evenodd" clip-rule="evenodd" d="M39.7845 0.372745C38.9558 -0.124248 37.9614 -0.124248 37.1327 0.372745L-133.395 98.8835C-133.195 98.8373 -132.991 98.8159 -132.787 98.8193C-132.318 98.8115 -131.847 98.9356 -131.42 99.1917L38.4174 197.269L208.337 99.1917C209.14 98.7105 210.098 98.6955 210.91 99.146L39.7845 0.372745ZM38.4586 197.182L-127.525 101.428L38.4586 5.67401L204.442 101.428L38.4586 197.182Z" fill="#FFF9F3"/>
<path fill-rule="evenodd" clip-rule="evenodd" d="M39.7845 0.372745C38.9558 -0.124248 37.9614 -0.124248 37.1327 0.372745L-133.395 98.8835C-133.195 98.8373 -132.991 98.8159 -132.787 98.8193C-132.318 98.8115 -131.847 98.9356 -131.42 99.1917L38.4174 197.269L208.337 99.1917C209.14 98.7105 210.098 98.6955 210.91 99.146L39.7845 0.372745ZM38.4586 197.182L-127.525 101.428L38.4586 5.67401L204.442 101.428L38.4586 197.182Z" fill="#FFF9F3"/>
<path d="M38.4586 202.898C38.0442 202.898 37.5471 202.815 37.1327 202.566L35.8068 201.801V201.821V780.265L38.5304 781.835L41.0275 780.395V780.322V201.821V201.766L39.7845 202.484C39.3701 202.732 38.8729 202.898 38.4586 202.898Z" fill="#FFF9F3"/>
<path d="M38.4586 202.898C38.0442 202.898 37.5471 202.815 37.1327 202.566L35.8068 201.801V201.821V780.265L38.5304 781.835L41.0275 780.395V780.322V201.821V201.766L39.7845 202.484C39.3701 202.732 38.8729 202.898 38.4586 202.898Z" fill="#FFF9F3"/>
<path fill-rule="evenodd" clip-rule="evenodd" d="M37.1327 153.695C37.5471 153.944 38.0442 154.027 38.4586 154.027C38.8729 154.027 39.3701 153.944 39.7845 153.695L126.298 103.747C127.127 103.333 127.624 102.422 127.624 101.511C127.624 100.6 127.127 99.7715 126.298 99.2745L39.7845 49.3266C38.9558 48.8296 37.9614 48.8296 37.1327 49.3266L-49.3811 99.2745C-50.2098 99.6887 -50.707 100.6 -50.707 101.511C-50.707 102.422 -50.2098 103.25 -49.3811 103.747L37.1327 153.695ZM38.4586 151.376L-48.1381 101.428L38.4586 51.5631L124.972 101.428L38.4586 151.376ZM-42.8346 101.428L38.4586 148.311L119.752 101.428L38.4586 54.5451L-42.8346 101.428Z" fill="#FFF9F3"/>
<path fill-rule="evenodd" clip-rule="evenodd" d="M37.1327 153.695C37.5471 153.944 38.0442 154.027 38.4586 154.027C38.8729 154.027 39.3701 153.944 39.7845 153.695L126.298 103.747C127.127 103.333 127.624 102.422 127.624 101.511C127.624 100.6 127.127 99.7715 126.298 99.2745L39.7845 49.3266C38.9558 48.8296 37.9614 48.8296 37.1327 49.3266L-49.3811 99.2745C-50.2098 99.6887 -50.707 100.6 -50.707 101.511C-50.707 102.422 -50.2098 103.25 -49.3811 103.747L37.1327 153.695ZM38.4586 151.376L-48.1381 101.428L38.4586 51.5631L124.972 101.428L38.4586 151.376ZM-42.8346 101.428L38.4586 148.311L119.752 101.428L38.4586 54.5451L-42.8346 101.428Z" fill="#FFF9F3"/>
<path fill-rule="evenodd" clip-rule="evenodd" d="M-48.1381 101.428L38.4586 151.376L124.972 101.428L38.4586 51.5631L-48.1381 101.428ZM38.4586 148.311L-42.8346 101.428L38.4586 54.5451L119.752 101.428L38.4586 148.311Z" fill="#FFF9F3"/>
<path fill-rule="evenodd" clip-rule="evenodd" d="M-48.1381 101.428L38.4586 151.376L124.972 101.428L38.4586 51.5631L-48.1381 101.428ZM38.4586 148.311L-42.8346 101.428L38.4586 54.5451L119.752 101.428L38.4586 148.311Z" fill="#FFF9F3"/>
<path d="M-135.398 101.511C-135.398 102.422 -134.901 103.25 -134.072 103.747L35.8068 201.801V200.247C35.8068 199.336 36.304 198.425 37.1327 198.011L38.4174 197.269L-131.503 99.1917C-131.905 98.9507 -132.345 98.8266 -132.787 98.8193C-133.015 98.823 -133.243 98.8578 -133.465 98.9236L-134.072 99.2745C-134.901 99.6887 -135.398 100.6 -135.398 101.511Z" fill="#FFF9F3"/>
<path d="M-135.398 101.511C-135.398 102.422 -134.901 103.25 -134.072 103.747L35.8068 201.801V200.247C35.8068 199.336 36.304 198.425 37.1327 198.011L38.4174 197.269L-131.503 99.1917C-131.905 98.9507 -132.345 98.8266 -132.787 98.8193C-133.015 98.823 -133.243 98.8578 -133.465 98.9236L-134.072 99.2745C-134.901 99.6887 -135.398 100.6 -135.398 101.511Z" fill="#FFF9F3"/>
<path fill-rule="evenodd" clip-rule="evenodd" d="M38.4586 787.445C38.4851 787.445 38.5115 787.445 38.5378 787.444C38.5457 787.443 38.5537 787.443 38.5617 787.443L38.5828 787.442C38.6287 787.439 38.6743 787.436 38.7196 787.431L38.7549 787.427C38.7708 787.425 38.7868 787.422 38.8026 787.42C38.8396 787.415 38.8764 787.409 38.9129 787.401C38.9953 787.386 39.0763 787.365 39.1559 787.341C39.5624 787.218 39.9291 786.99 40.228 786.692L41.1103 786.183V786.238L41.0275 786.285V829.607L41.1103 829.559V829.63L38.3865 831.202L35.8068 829.714V829.607L-170.368 710.66L-132.912 688.958L-98.6045 708.754C-98.5124 708.81 -98.4182 708.859 -98.3224 708.902C-97.788 709.141 -97.2042 709.19 -96.6498 709.047C-96.473 709.014 -96.2984 708.965 -96.1284 708.902C-96.0878 708.887 -96.0475 708.872 -96.0075 708.855C-95.98 708.844 -95.9525 708.832 -95.9253 708.82C-95.8961 708.807 -95.8672 708.793 -95.8384 708.78L-95.8182 708.77L-95.787 708.754C-95.5591 708.64 -95.3563 708.489 -95.182 708.31L-86.9098 703.544L-53.1102 684.07C-52.2815 683.656 -51.7843 682.745 -51.7843 681.834V680.833V643.897H-1.15219V763.507C-1.15219 764.206 -0.859117 764.857 -0.347946 765.346C-0.173704 765.528 0.0288678 765.689 0.256622 765.826L35.8068 786.348L37.1327 787.114C37.5471 787.362 38.0442 787.445 38.4586 787.445ZM-178.24 758.768V710.742C-178.24 711.654 -177.743 712.482 -176.914 712.979L-175.589 713.744V710.66L35.8068 832.632V829.714L-174.263 708.506C-175.064 708.025 -176.02 708.01 -176.832 708.458L-135.481 684.634V101.428C-135.481 100.517 -134.983 99.6058 -134.155 99.1917C-133.913 99.0466 -133.657 98.9439 -133.395 98.8835C-133.195 98.8373 -132.991 98.8159 -132.787 98.8193C-133.015 98.823 -133.243 98.8578 -133.465 98.9236L-134.072 99.2745C-134.901 99.6887 -135.398 100.6 -135.398 101.511C-135.398 102.422 -134.901 103.25 -134.072 103.747L35.8068 201.801V201.821L-130.177 106.067V684.539L-99.7647 702.089V274.63C-99.7647 261.874 -93.2181 250.526 -82.1967 244.148C-71.1753 237.77 -57.9993 237.77 -46.9779 244.148L-44.0776 245.805C-14.3281 262.951 4.15135 294.924 4.15135 329.3V641.246V762.016L35.8068 780.265L38.5304 781.835L41.0275 780.395V784.159C41.0819 784.364 41.1103 784.577 41.1103 784.794V786.183L76.6606 765.66C76.8617 765.56 77.0433 765.43 77.203 765.278C77.0242 765.466 76.8145 765.625 76.5777 765.743L41.1103 786.238V829.559L247.202 710.66L209.679 688.967L175.356 708.754C175.241 708.823 175.123 708.882 175.003 708.932C174.736 709.117 174.357 709.169 174.03 709.169C173.616 709.169 173.118 709.086 172.704 708.837L129.862 684.153C129.033 683.656 128.536 682.828 128.536 681.917L128.536 681.834V643.897H77.9864V763.424C77.9864 764.114 77.7013 764.804 77.203 765.278C77.6499 764.808 77.9036 764.157 77.9036 763.507V643.897H75.3347C74.1408 643.897 73.0659 643.064 72.7658 641.902V762.098L41.0275 780.395V780.322L72.6829 762.016V329.3C72.6829 295.007 91.1624 263.034 120.912 245.805L123.812 244.148C134.834 237.77 148.01 237.77 159.031 244.148C170.052 250.526 176.599 261.874 176.599 274.63V701.962L207.011 684.402V105.984L41.0275 201.821V201.766L39.7845 202.484C39.3701 202.732 38.8729 202.898 38.4586 202.898C38.0442 202.898 37.5471 202.815 37.1327 202.566L35.8068 201.801V200.247C35.8068 199.336 36.304 198.425 37.1327 198.011L38.4174 197.269L208.337 99.1917C209.14 98.7105 210.098 98.6955 210.91 99.146C210.927 99.1554 210.944 99.1649 210.96 99.1747L210.989 99.1917C211.818 99.6887 212.315 100.517 212.315 101.428V684.669L253.023 708.123C252.378 707.965 251.694 708.065 251.097 708.423L41.1103 829.63V832.633L209.663 735.426L252.423 710.66V713.875L253.832 713.062C254.462 712.746 254.901 712.143 255.075 711.471V758.555L253.749 757.791C253.334 757.543 252.879 757.418 252.423 757.418V760.11L41.1103 882.083V883.061C41.1648 883.266 41.1931 883.479 41.1931 883.696V884.906L253.749 762.264C254.577 761.85 255.075 760.939 255.075 760.028V758.555L296.591 782.475C297.092 782.776 297.472 783.197 297.694 783.685C297.893 784.048 298 784.454 298 784.877V834.245C298 835.156 297.503 836.068 296.674 836.482L39.8673 984.669C39.5099 984.847 39.1526 984.94 38.826 984.978C38.6982 984.993 38.5751 985 38.4586 985C38.0442 985 37.5471 984.917 37.1327 984.669L-219.674 836.482C-220.503 835.985 -221 835.156 -221 834.245V784.877C-221 783.966 -220.503 783.055 -219.674 782.641C-219.647 782.624 -219.619 782.609 -219.591 782.593L-178.24 758.768ZM-178.24 758.768V760.11C-178.24 761.022 -177.743 761.85 -176.914 762.347L35.8068 885.085V883.696C35.8068 883.682 35.8069 883.669 35.8071 883.655C35.8069 883.641 35.8068 883.627 35.8068 883.613V882.086L-4.38405 858.929L-47.1437 834.162L-175.589 760.11V757.585C-176.017 757.6 -176.442 757.723 -176.832 757.957L-178.24 758.768ZM254.851 709.633C254.629 709.145 254.25 708.724 253.749 708.423C253.517 708.284 253.273 708.184 253.023 708.123L253.832 708.589C254.275 708.855 254.623 709.215 254.851 709.633ZM254.851 709.633C254.997 709.952 255.075 710.299 255.075 710.66V711.471C255.129 711.261 255.157 711.043 255.157 710.825C255.157 710.401 255.05 709.996 254.851 709.633ZM38.4174 197.269L-131.42 99.1917C-131.847 98.9356 -132.318 98.8115 -132.787 98.8193C-132.345 98.8266 -131.905 98.9507 -131.503 99.1917L38.4174 197.269ZM-56.9221 641.902V680.361V680.426L-89.3715 699.152L-94.4611 702.089V701.997V274.63C-94.4611 264.008 -89.0608 254.496 -80.0481 249.049C-79.9662 249 -79.884 248.951 -79.8015 248.902L-79.6958 248.84L-79.6317 248.802C-79.6099 248.789 -79.5881 248.777 -79.5662 248.764L-79.4621 248.704C-72.4857 244.693 -64.4974 243.67 -57.005 245.636V245.657V249.946V641.246C-57.005 641.474 -56.9761 641.693 -56.9221 641.902ZM128.536 638.761H77.9864V329.3C77.9864 296.829 95.4715 266.596 123.564 250.361L126.464 248.704C127.117 248.328 127.779 247.979 128.449 247.656C128.507 248.423 128.536 249.185 128.536 249.946V638.761ZM171.313 272.61C170.724 263.558 166.19 255.44 158.782 250.195C155.322 247.746 151.441 246.1 147.415 245.282C143.132 244.393 138.722 244.466 134.46 245.5C134.197 245.563 133.935 245.629 133.674 245.7V243.734C133.674 242.823 133.259 242.077 132.596 241.58C132.056 241.175 131.405 241.045 130.734 241.146C141.153 237.799 152.621 239.558 161.683 245.97C171.13 252.597 176.516 263.117 176.516 274.63V702.267L174.03 703.702L171.378 702.171L171.378 702.045L133.839 680.343L133.839 641.412L133.839 641.4V249.946C133.839 248.797 133.784 247.648 133.674 246.498C133.649 246.24 133.621 245.982 133.591 245.724L133.674 245.702C133.935 245.631 134.197 245.564 134.46 245.5C138.725 244.478 143.152 244.416 147.415 245.282C150.504 245.923 153.526 247.063 156.379 248.704C165.158 253.752 170.659 262.585 171.313 272.61ZM-1.06935 329.3V638.596H-51.7015V249.946V247.627C-51.2746 247.817 -50.8476 248.006 -50.4363 248.212C-50.1381 248.37 -49.8416 248.534 -49.5469 248.704L-46.6466 250.361C-18.5544 266.596 -1.06935 296.829 -1.06935 329.3ZM1.49963 329.3V638.678H1.58247C2.24541 638.678 2.90833 638.927 3.40553 639.424C3.66839 639.687 3.86176 639.996 3.98566 640.326V329.3C3.98566 294.924 -14.4939 262.951 -44.2434 245.805L-47.1437 244.148C-49.1326 242.988 -51.3699 241.995 -53.6074 241.249C-53.7024 241.217 -53.8001 241.191 -53.8997 241.17C-53.5801 241.275 -53.2617 241.384 -52.9445 241.498C-51.7015 241.912 -51.0385 243.154 -51.2871 244.397C-51.3154 244.559 -51.3425 244.721 -51.3683 244.882C-50.3395 245.346 -49.3217 245.874 -48.3039 246.467L-45.4035 248.124C-16.3999 264.856 1.49963 295.835 1.49963 329.3ZM-173.02 715.298L35.8068 835.736V879.057L-172.937 758.537H-173.02V715.298ZM-175.589 763.175L35.8068 885.187V928.508L-213.128 784.794L-175.589 763.175ZM-218.348 834.162V787.879L-215.779 789.361V832.672L35.8068 977.876V980.902L-175.589 858.929L-218.348 834.162ZM38.4586 982.432V935.632C38.8726 935.632 39.3692 935.466 39.866 935.301L39.8673 935.301C40.1891 935.14 40.461 934.904 40.6731 934.622L41.1103 934.37V933.71C41.1648 933.5 41.1931 933.282 41.1931 933.064V931.404L295.265 784.794V787.713V834.162L81.2183 957.665L41.1103 980.896L38.4586 982.432ZM290.045 784.794L41.1931 928.33V885.009L252.506 763.092L290.045 784.794ZM249.771 758.537L41.1103 879.01V835.8L249.771 715.405V758.537ZM292.614 832.589L41.1103 977.746L41.0275 977.794V934.472L41.1103 934.424L292.614 789.267V832.589Z" fill="#FFF9F3"/>
<path fill-rule="evenodd" clip-rule="evenodd" d="M38.4586 787.445C38.4851 787.445 38.5115 787.445 38.5378 787.444C38.5457 787.443 38.5537 787.443 38.5617 787.443L38.5828 787.442C38.6287 787.439 38.6743 787.436 38.7196 787.431L38.7549 787.427C38.7708 787.425 38.7868 787.422 38.8026 787.42C38.8396 787.415 38.8764 787.409 38.9129 787.401C38.9953 787.386 39.0763 787.365 39.1559 787.341C39.5624 787.218 39.9291 786.99 40.228 786.692L41.1103 786.183V786.238L41.0275 786.285V829.607L41.1103 829.559V829.63L38.3865 831.202L35.8068 829.714V829.607L-170.368 710.66L-132.912 688.958L-98.6045 708.754C-98.5124 708.81 -98.4182 708.859 -98.3224 708.902C-97.788 709.141 -97.2042 709.19 -96.6498 709.047C-96.473 709.014 -96.2984 708.965 -96.1284 708.902C-96.0878 708.887 -96.0475 708.872 -96.0075 708.855C-95.98 708.844 -95.9525 708.832 -95.9253 708.82C-95.8961 708.807 -95.8672 708.793 -95.8384 708.78L-95.8182 708.77L-95.787 708.754C-95.5591 708.64 -95.3563 708.489 -95.182 708.31L-86.9098 703.544L-53.1102 684.07C-52.2815 683.656 -51.7843 682.745 -51.7843 681.834V680.833V643.897H-1.15219V763.507C-1.15219 764.206 -0.859117 764.857 -0.347946 765.346C-0.173704 765.528 0.0288678 765.689 0.256622 765.826L35.8068 786.348L37.1327 787.114C37.5471 787.362 38.0442 787.445 38.4586 787.445ZM-178.24 758.768V710.742C-178.24 711.654 -177.743 712.482 -176.914 712.979L-175.589 713.744V710.66L35.8068 832.632V829.714L-174.263 708.506C-175.064 708.025 -176.02 708.01 -176.832 708.458L-135.481 684.634V101.428C-135.481 100.517 -134.983 99.6058 -134.155 99.1917C-133.913 99.0466 -133.657 98.9439 -133.395 98.8835C-133.195 98.8373 -132.991 98.8159 -132.787 98.8193C-133.015 98.823 -133.243 98.8578 -133.465 98.9236L-134.072 99.2745C-134.901 99.6887 -135.398 100.6 -135.398 101.511C-135.398 102.422 -134.901 103.25 -134.072 103.747L35.8068 201.801V201.821L-130.177 106.067V684.539L-99.7647 702.089V274.63C-99.7647 261.874 -93.2181 250.526 -82.1967 244.148C-71.1753 237.77 -57.9993 237.77 -46.9779 244.148L-44.0776 245.805C-14.3281 262.951 4.15135 294.924 4.15135 329.3V641.246V762.016L35.8068 780.265L38.5304 781.835L41.0275 780.395V784.159C41.0819 784.364 41.1103 784.577 41.1103 784.794V786.183L76.6606 765.66C76.8617 765.56 77.0433 765.43 77.203 765.278C77.0242 765.466 76.8145 765.625 76.5777 765.743L41.1103 786.238V829.559L247.202 710.66L209.679 688.967L175.356 708.754C175.241 708.823 175.123 708.882 175.003 708.932C174.736 709.117 174.357 709.169 174.03 709.169C173.616 709.169 173.118 709.086 172.704 708.837L129.862 684.153C129.033 683.656 128.536 682.828 128.536 681.917L128.536 681.834V643.897H77.9864V763.424C77.9864 764.114 77.7013 764.804 77.203 765.278C77.6499 764.808 77.9036 764.157 77.9036 763.507V643.897H75.3347C74.1408 643.897 73.0659 643.064 72.7658 641.902V762.098L41.0275 780.395V780.322L72.6829 762.016V329.3C72.6829 295.007 91.1624 263.034 120.912 245.805L123.812 244.148C134.834 237.77 148.01 237.77 159.031 244.148C170.052 250.526 176.599 261.874 176.599 274.63V701.962L207.011 684.402V105.984L41.0275 201.821V201.766L39.7845 202.484C39.3701 202.732 38.8729 202.898 38.4586 202.898C38.0442 202.898 37.5471 202.815 37.1327 202.566L35.8068 201.801V200.247C35.8068 199.336 36.304 198.425 37.1327 198.011L38.4174 197.269L208.337 99.1917C209.14 98.7105 210.098 98.6955 210.91 99.146C210.927 99.1554 210.944 99.1649 210.96 99.1747L210.989 99.1917C211.818 99.6887 212.315 100.517 212.315 101.428V684.669L253.023 708.123C252.378 707.965 251.694 708.065 251.097 708.423L41.1103 829.63V832.633L209.663 735.426L252.423 710.66V713.875L253.832 713.062C254.462 712.746 254.901 712.143 255.075 711.471V758.555L253.749 757.791C253.334 757.543 252.879 757.418 252.423 757.418V760.11L41.1103 882.083V883.061C41.1648 883.266 41.1931 883.479 41.1931 883.696V884.906L253.749 762.264C254.577 761.85 255.075 760.939 255.075 760.028V758.555L296.591 782.475C297.092 782.776 297.472 783.197 297.694 783.685C297.893 784.048 298 784.454 298 784.877V834.245C298 835.156 297.503 836.068 296.674 836.482L39.8673 984.669C39.5099 984.847 39.1526 984.94 38.826 984.978C38.6982 984.993 38.5751 985 38.4586 985C38.0442 985 37.5471 984.917 37.1327 984.669L-219.674 836.482C-220.503 835.985 -221 835.156 -221 834.245V784.877C-221 783.966 -220.503 783.055 -219.674 782.641C-219.647 782.624 -219.619 782.609 -219.591 782.593L-178.24 758.768ZM-178.24 758.768V760.11C-178.24 761.022 -177.743 761.85 -176.914 762.347L35.8068 885.085V883.696C35.8068 883.682 35.8069 883.669 35.8071 883.655C35.8069 883.641 35.8068 883.627 35.8068 883.613V882.086L-4.38405 858.929L-47.1437 834.162L-175.589 760.11V757.585C-176.017 757.6 -176.442 757.723 -176.832 757.957L-178.24 758.768ZM254.851 709.633C254.629 709.145 254.25 708.724 253.749 708.423C253.517 708.284 253.273 708.184 253.023 708.123L253.832 708.589C254.275 708.855 254.623 709.215 254.851 709.633ZM254.851 709.633C254.997 709.952 255.075 710.299 255.075 710.66V711.471C255.129 711.261 255.157 711.043 255.157 710.825C255.157 710.401 255.05 709.996 254.851 709.633ZM38.4174 197.269L-131.42 99.1917C-131.847 98.9356 -132.318 98.8115 -132.787 98.8193C-132.345 98.8266 -131.905 98.9507 -131.503 99.1917L38.4174 197.269ZM-56.9221 641.902V680.361V680.426L-89.3715 699.152L-94.4611 702.089V701.997V274.63C-94.4611 264.008 -89.0608 254.496 -80.0481 249.049C-79.9662 249 -79.884 248.951 -79.8015 248.902L-79.6958 248.84L-79.6317 248.802C-79.6099 248.789 -79.5881 248.777 -79.5662 248.764L-79.4621 248.704C-72.4857 244.693 -64.4974 243.67 -57.005 245.636V245.657V249.946V641.246C-57.005 641.474 -56.9761 641.693 -56.9221 641.902ZM128.536 638.761H77.9864V329.3C77.9864 296.829 95.4715 266.596 123.564 250.361L126.464 248.704C127.117 248.328 127.779 247.979 128.449 247.656C128.507 248.423 128.536 249.185 128.536 249.946V638.761ZM171.313 272.61C170.724 263.558 166.19 255.44 158.782 250.195C155.322 247.746 151.441 246.1 147.415 245.282C143.132 244.393 138.722 244.466 134.46 245.5C134.197 245.563 133.935 245.629 133.674 245.7V243.734C133.674 242.823 133.259 242.077 132.596 241.58C132.056 241.175 131.405 241.045 130.734 241.146C141.153 237.799 152.621 239.558 161.683 245.97C171.13 252.597 176.516 263.117 176.516 274.63V702.267L174.03 703.702L171.378 702.171L171.378 702.045L133.839 680.343L133.839 641.412L133.839 641.4V249.946C133.839 248.797 133.784 247.648 133.674 246.498C133.649 246.24 133.621 245.982 133.591 245.724L133.674 245.702C133.935 245.631 134.197 245.564 134.46 245.5C138.725 244.478 143.152 244.416 147.415 245.282C150.504 245.923 153.526 247.063 156.379 248.704C165.158 253.752 170.659 262.585 171.313 272.61ZM-1.06935 329.3V638.596H-51.7015V249.946V247.627C-51.2746 247.817 -50.8476 248.006 -50.4363 248.212C-50.1381 248.37 -49.8416 248.534 -49.5469 248.704L-46.6466 250.361C-18.5544 266.596 -1.06935 296.829 -1.06935 329.3ZM1.49963 329.3V638.678H1.58247C2.24541 638.678 2.90833 638.927 3.40553 639.424C3.66839 639.687 3.86176 639.996 3.98566 640.326V329.3C3.98566 294.924 -14.4939 262.951 -44.2434 245.805L-47.1437 244.148C-49.1326 242.988 -51.3699 241.995 -53.6074 241.249C-53.7024 241.217 -53.8001 241.191 -53.8997 241.17C-53.5801 241.275 -53.2617 241.384 -52.9445 241.498C-51.7015 241.912 -51.0385 243.154 -51.2871 244.397C-51.3154 244.559 -51.3425 244.721 -51.3683 244.882C-50.3395 245.346 -49.3217 245.874 -48.3039 246.467L-45.4035 248.124C-16.3999 264.856 1.49963 295.835 1.49963 329.3ZM-173.02 715.298L35.8068 835.736V879.057L-172.937 758.537H-173.02V715.298ZM-175.589 763.175L35.8068 885.187V928.508L-213.128 784.794L-175.589 763.175ZM-218.348 834.162V787.879L-215.779 789.361V832.672L35.8068 977.876V980.902L-175.589 858.929L-218.348 834.162ZM38.4586 982.432V935.632C38.8726 935.632 39.3692 935.466 39.866 935.301L39.8673 935.301C40.1891 935.14 40.461 934.904 40.6731 934.622L41.1103 934.37V933.71C41.1648 933.5 41.1931 933.282 41.1931 933.064V931.404L295.265 784.794V787.713V834.162L81.2183 957.665L41.1103 980.896L38.4586 982.432ZM290.045 784.794L41.1931 928.33V885.009L252.506 763.092L290.045 784.794ZM249.771 758.537L41.1103 879.01V835.8L249.771 715.405V758.537ZM292.614 832.589L41.1103 977.746L41.0275 977.794V934.472L41.1103 934.424L292.614 789.267V832.589Z" fill="#FFF9F3"/>
<path d="M77.9036 763.507V643.897H75.3347C74.1408 643.897 73.0659 643.064 72.7658 641.902V762.098L41.0275 780.395V784.159C41.0819 784.364 41.1103 784.577 41.1103 784.794V786.183L76.6606 765.66C76.8617 765.56 77.0433 765.43 77.203 765.278C77.6499 764.808 77.9036 764.157 77.9036 763.507Z" fill="#FFF9F3"/>
<path d="M77.9036 763.507V643.897H75.3347C74.1408 643.897 73.0659 643.064 72.7658 641.902V762.098L41.0275 780.395V784.159C41.0819 784.364 41.1103 784.577 41.1103 784.794V786.183L76.6606 765.66C76.8617 765.56 77.0433 765.43 77.203 765.278C77.6499 764.808 77.9036 764.157 77.9036 763.507Z" fill="#FFF9F3"/>
<path d="M253.749 762.264C254.577 761.85 255.075 760.939 255.075 760.028V758.555L253.749 757.791C253.334 757.543 252.879 757.418 252.423 757.418V760.11L41.1103 882.083V883.061C41.1648 883.266 41.1931 883.479 41.1931 883.696V884.906L253.749 762.264Z" fill="#FFF9F3"/>
<path d="M253.749 762.264C254.577 761.85 255.075 760.939 255.075 760.028V758.555L253.749 757.791C253.334 757.543 252.879 757.418 252.423 757.418V760.11L41.1103 882.083V883.061C41.1648 883.266 41.1931 883.479 41.1931 883.696V884.906L253.749 762.264Z" fill="#FFF9F3"/>
</g>
<defs>
<clipPath id="clip0_340_195">
<rect width="77" height="985" fill="white"/>
</clipPath>
</defs>
</svg>
