<svg width="519" height="985" viewBox="0 0 519 985" fill="none" xmlns="http://www.w3.org/2000/svg">
<path d="M45.4114 710.66V713.744V757.585V760.11L173.856 834.162L216.616 858.929L256.807 882.086L259.459 883.613V834.162L256.807 832.632L45.4114 710.66Z" fill="#FFF9F3"/>
<path d="M45.4114 710.66V713.744V757.585V760.11L173.856 834.162L216.616 858.929L256.807 882.086L259.459 883.613V834.162L256.807 832.632L45.4114 710.66Z" fill="#FFF9F3"/>
<path d="M430.663 735.426L473.423 710.66V713.875V757.418V760.11L262.11 882.083L259.459 883.613V834.162L262.11 832.633L430.663 735.426Z" fill="#FFF9F3"/>
<path d="M430.663 735.426L473.423 710.66V713.875V757.418V760.11L262.11 882.083L259.459 883.613V834.162L262.11 832.633L430.663 735.426Z" fill="#FFF9F3"/>
<path d="M123.887 709.169C123.511 709.169 123.066 709.1 122.678 708.902C122.638 708.882 122.599 708.86 122.561 708.837C121.732 708.34 121.235 707.512 121.235 706.601V702.089V274.63C121.235 263.034 126.622 252.597 136.069 245.97C145.153 239.542 156.732 237.791 167.1 241.17C167.42 241.275 167.738 241.384 168.056 241.498C169.299 241.912 169.961 243.154 169.713 244.397C169.685 244.559 169.658 244.721 169.632 244.882C169.354 246.613 169.216 248.28 169.216 249.946V680.833V681.834C169.216 682.745 168.719 683.656 167.89 684.07L134.09 703.544L125.818 708.31L125.047 708.754C124.991 708.811 124.932 708.86 124.872 708.902C124.575 709.111 124.231 709.169 123.887 709.169ZM156.454 244.728C151.052 244.728 145.715 246.206 140.952 249.049C140.308 249.434 139.674 249.844 139.052 250.278C131.014 255.91 126.456 264.856 126.456 274.713V702.045L126.539 701.997L132.04 698.817L135.495 696.82L163.995 680.343V249.946C163.995 248.538 164.078 247.13 164.244 245.722C164.161 245.7 164.078 245.678 163.995 245.657C161.581 245.038 159.018 244.728 156.454 244.728Z" fill="#FFF9F3"/>
<path d="M123.887 709.169C123.511 709.169 123.066 709.1 122.678 708.902C122.638 708.882 122.599 708.86 122.561 708.837C121.732 708.34 121.235 707.512 121.235 706.601V702.089V274.63C121.235 263.034 126.622 252.597 136.069 245.97C145.153 239.542 156.732 237.791 167.1 241.17C167.42 241.275 167.738 241.384 168.056 241.498C169.299 241.912 169.961 243.154 169.713 244.397C169.685 244.559 169.658 244.721 169.632 244.882C169.354 246.613 169.216 248.28 169.216 249.946V680.833V681.834C169.216 682.745 168.719 683.656 167.89 684.07L134.09 703.544L125.818 708.31L125.047 708.754C124.991 708.811 124.932 708.86 124.872 708.902C124.575 709.111 124.231 709.169 123.887 709.169ZM156.454 244.728C151.052 244.728 145.715 246.206 140.952 249.049C140.308 249.434 139.674 249.844 139.052 250.278C131.014 255.91 126.456 264.856 126.456 274.713V702.045L126.539 701.997L132.04 698.817L135.495 696.82L163.995 680.343V249.946C163.995 248.538 164.078 247.13 164.244 245.722C164.161 245.7 164.078 245.678 163.995 245.657C161.581 245.038 159.018 244.728 156.454 244.728Z" fill="#FFF9F3"/>
<path d="M222.5 641.246V638.678V329.3C222.5 295.835 204.6 264.856 175.596 248.124L172.696 246.467C171.678 245.874 170.661 245.346 169.632 244.882C168.65 244.44 167.658 244.058 166.647 243.734C166.647 247.213 166.647 249.532 166.647 249.946V641.246H222.5Z" fill="#FFF9F3"/>
<path d="M222.5 641.246V638.678V329.3C222.5 295.835 204.6 264.856 175.596 248.124L172.696 246.467C171.678 245.874 170.661 245.346 169.632 244.882C168.65 244.44 167.658 244.058 166.647 243.734C166.647 247.213 166.647 249.532 166.647 249.946V641.246H222.5Z" fill="#FFF9F3"/>
<path d="M133.417 703.619C132.505 703.619 131.594 703.122 131.179 702.294C130.931 701.879 130.848 701.382 130.848 700.968C130.848 700.28 131.132 699.638 131.628 699.152C131.753 699.03 131.89 698.917 132.04 698.817C132.084 698.787 132.128 698.759 132.174 698.732L135.495 696.82L164.078 680.361L165.404 679.597L165.405 679.597C165.57 679.514 165.736 679.431 165.984 679.349C166.15 679.266 166.398 679.266 166.647 679.266C166.813 679.266 167.061 679.266 167.227 679.266C167.973 679.432 168.636 679.846 169.05 680.509C169.114 680.615 169.169 680.723 169.216 680.833C169.718 682.014 169.268 683.388 168.056 684.07L134.826 703.205C134.566 703.378 134.328 703.483 134.09 703.544C133.873 703.6 133.654 703.619 133.417 703.619Z" fill="#FFF9F3"/>
<path d="M133.417 703.619C132.505 703.619 131.594 703.122 131.179 702.294C130.931 701.879 130.848 701.382 130.848 700.968C130.848 700.28 131.132 699.638 131.628 699.152C131.753 699.03 131.89 698.917 132.04 698.817C132.084 698.787 132.128 698.759 132.174 698.732L135.495 696.82L164.078 680.361L165.404 679.597L165.405 679.597C165.57 679.514 165.736 679.431 165.984 679.349C166.15 679.266 166.398 679.266 166.647 679.266C166.813 679.266 167.061 679.266 167.227 679.266C167.973 679.432 168.636 679.846 169.05 680.509C169.114 680.615 169.169 680.723 169.216 680.833C169.718 682.014 169.268 683.388 168.056 684.07L134.826 703.205C134.566 703.378 134.328 703.483 134.09 703.544C133.873 703.6 133.654 703.619 133.417 703.619Z" fill="#FFF9F3"/>
<path d="M296.335 641.246V329.3C296.335 295.835 314.234 264.856 343.238 248.124L346.138 246.467C348.127 245.308 350.116 244.397 352.188 243.734C352.188 247.213 352.188 249.532 352.188 249.946V641.246H296.335Z" fill="#FFF9F3"/>
<path d="M296.335 641.246V329.3C296.335 295.835 314.234 264.856 343.238 248.124L346.138 246.467C348.127 245.308 350.116 244.397 352.188 243.734C352.188 247.213 352.188 249.532 352.188 249.946V641.246H296.335Z" fill="#FFF9F3"/>
<path d="M352.188 643.897H298.986H296.335C295.141 643.897 294.066 643.064 293.766 641.902C293.712 641.693 293.683 641.474 293.683 641.246V329.3C293.683 295.007 312.162 263.034 341.912 245.805L344.812 244.148C346.884 242.988 349.038 241.995 351.276 241.249C351.429 241.203 351.582 241.168 351.734 241.146C352.405 241.045 353.056 241.175 353.596 241.58C354.259 242.077 354.674 242.823 354.674 243.734C354.674 244.439 354.674 245.096 354.674 245.7V245.702C354.674 245.979 354.674 246.244 354.674 246.498C354.674 248.419 354.674 249.655 354.674 249.946V641.246C354.839 642.654 353.679 643.897 352.188 643.897ZM298.986 638.596H349.619V249.946C349.619 249.698 349.619 248.87 349.619 247.627C348.873 247.958 348.21 248.373 347.464 248.704L344.564 250.361C316.471 266.596 298.986 296.829 298.986 329.3V638.596Z" fill="#FFF9F3"/>
<path d="M352.188 643.897H298.986H296.335C295.141 643.897 294.066 643.064 293.766 641.902C293.712 641.693 293.683 641.474 293.683 641.246V329.3C293.683 295.007 312.162 263.034 341.912 245.805L344.812 244.148C346.884 242.988 349.038 241.995 351.276 241.249C351.429 241.203 351.582 241.168 351.734 241.146C352.405 241.045 353.056 241.175 353.596 241.58C354.259 242.077 354.674 242.823 354.674 243.734C354.674 244.439 354.674 245.096 354.674 245.7V245.702C354.674 245.979 354.674 246.244 354.674 246.498C354.674 248.419 354.674 249.655 354.674 249.946V641.246C354.839 642.654 353.679 643.897 352.188 643.897ZM298.986 638.596H349.619V249.946C349.619 249.698 349.619 248.87 349.619 247.627C348.873 247.958 348.21 248.373 347.464 248.704L344.564 250.361C316.471 266.596 298.986 296.829 298.986 329.3V638.596Z" fill="#FFF9F3"/>
<path d="M385.417 703.619C385.003 703.619 384.506 703.536 384.091 703.287L350.862 684.153C349.618 683.408 349.204 681.834 349.867 680.591C350.281 679.929 350.944 679.432 351.69 679.349C351.856 679.349 352.105 679.266 352.27 679.349C352.436 679.349 352.685 679.432 352.85 679.432C353.016 679.515 353.182 679.597 353.348 679.68L386.578 698.815C387.406 699.312 387.903 700.14 387.903 701.051C387.903 701.465 387.821 701.962 387.572 702.376C387.24 703.122 386.329 703.619 385.417 703.619Z" fill="#FFF9F3"/>
<path d="M385.417 703.619C385.003 703.619 384.506 703.536 384.091 703.287L350.862 684.153C349.618 683.408 349.204 681.834 349.867 680.591C350.281 679.929 350.944 679.432 351.69 679.349C351.856 679.349 352.105 679.266 352.27 679.349C352.436 679.349 352.685 679.432 352.85 679.432C353.016 679.515 353.182 679.597 353.348 679.68L386.578 698.815C387.406 699.312 387.903 700.14 387.903 701.051C387.903 701.465 387.821 701.962 387.572 702.376C387.24 703.122 386.329 703.619 385.417 703.619Z" fill="#FFF9F3"/>
<path fill-rule="evenodd" clip-rule="evenodd" d="M93.4746 101.428L259.459 197.182L425.442 101.428L259.459 5.67401L93.4746 101.428ZM258.133 153.695C258.547 153.944 259.044 154.027 259.459 154.027C259.873 154.027 260.37 153.944 260.784 153.695L347.298 103.747C348.127 103.333 348.624 102.422 348.624 101.511C348.624 100.6 348.127 99.7715 347.298 99.2745L260.784 49.3266C259.956 48.8296 258.961 48.8296 258.133 49.3266L171.619 99.2745C170.79 99.6887 170.293 100.6 170.293 101.511C170.293 102.422 170.79 103.25 171.619 103.747L258.133 153.695Z" fill="#FFF9F3"/>
<path fill-rule="evenodd" clip-rule="evenodd" d="M93.4746 101.428L259.459 197.182L425.442 101.428L259.459 5.67401L93.4746 101.428ZM258.133 153.695C258.547 153.944 259.044 154.027 259.459 154.027C259.873 154.027 260.37 153.944 260.784 153.695L347.298 103.747C348.127 103.333 348.624 102.422 348.624 101.511C348.624 100.6 348.127 99.7715 347.298 99.2745L260.784 49.3266C259.956 48.8296 258.961 48.8296 258.133 49.3266L171.619 99.2745C170.79 99.6887 170.293 100.6 170.293 101.511C170.293 102.422 170.79 103.25 171.619 103.747L258.133 153.695Z" fill="#2F1664"/>
<path d="M90.8229 684.539L121.235 702.089V274.63C121.235 261.874 127.782 250.526 138.803 244.148C149.825 237.77 163.001 237.77 174.022 244.148L176.922 245.805C206.672 262.951 225.151 294.924 225.151 329.3V641.246V762.016L256.807 780.265V201.821L90.8229 106.067V684.539Z" fill="#FFF9F3"/>
<path d="M90.8229 684.539L121.235 702.089V274.63C121.235 261.874 127.782 250.526 138.803 244.148C149.825 237.77 163.001 237.77 174.022 244.148L176.922 245.805C206.672 262.951 225.151 294.924 225.151 329.3V641.246V762.016L256.807 780.265V201.821L90.8229 106.067V684.539Z" fill="#2F1664"/>
<path d="M262.027 201.821V780.322L293.683 762.016V641.246V329.3C293.683 295.007 312.162 263.034 341.912 245.805L344.812 244.148C355.834 237.77 369.01 237.77 380.031 244.148C391.052 250.526 397.599 261.874 397.599 274.63V701.962L428.011 684.402V105.984L262.027 201.821Z" fill="#FFF9F3"/>
<path d="M262.027 201.821V780.322L293.683 762.016V641.246V329.3C293.683 295.007 312.162 263.034 341.912 245.805L344.812 244.148C355.834 237.77 369.01 237.77 380.031 244.148C391.052 250.526 397.599 261.874 397.599 274.63V701.962L428.011 684.402V105.984L262.027 201.821Z" fill="#2F1664"/>
<path d="M140.952 249.049C131.939 254.496 126.539 264.008 126.539 274.63V701.997L132.04 698.817C132.084 698.787 132.128 698.759 132.174 698.732L135.495 696.82L163.995 680.343V641.246V249.946V245.657C161.581 245.038 159.018 244.728 156.454 244.728C151.052 244.728 145.715 246.206 140.952 249.049Z" fill="#FFF9F3"/>
<path d="M140.952 249.049C131.939 254.496 126.539 264.008 126.539 274.63V701.997L132.04 698.817C132.084 698.787 132.128 698.759 132.174 698.732L135.495 696.82L163.995 680.343V641.246V249.946V245.657C161.581 245.038 159.018 244.728 156.454 244.728C151.052 244.728 145.715 246.206 140.952 249.049Z" fill="#2F1664"/>
<path d="M354.839 641.4C354.839 641.404 354.839 641.408 354.839 641.412L354.839 680.343L392.378 702.045L392.378 274.63C392.378 273.952 392.356 273.279 392.313 272.61C391.659 262.585 386.158 253.752 377.379 248.704C374.526 247.063 371.504 245.923 368.415 245.282C364.152 244.416 359.725 244.478 355.46 245.5C355.197 245.564 354.935 245.631 354.674 245.702V246.498C354.784 247.648 354.839 248.797 354.839 249.946V641.4Z" fill="#FFF9F3"/>
<path d="M354.839 641.4C354.839 641.404 354.839 641.408 354.839 641.412L354.839 680.343L392.378 702.045L392.378 274.63C392.378 273.952 392.356 273.279 392.313 272.61C391.659 262.585 386.158 253.752 377.379 248.704C374.526 247.063 371.504 245.923 368.415 245.282C364.152 244.416 359.725 244.478 355.46 245.5C355.197 245.564 354.935 245.631 354.674 245.702V246.498C354.784 247.648 354.839 248.797 354.839 249.946V641.4Z" fill="#2F1664"/>
<path d="M262.11 786.238V829.559L468.202 710.66L430.679 688.967L396.356 708.754C396.241 708.823 396.123 708.882 396.003 708.932C395.736 709.117 395.357 709.169 395.03 709.169C394.616 709.169 394.118 709.086 393.704 708.837L350.862 684.153C350.033 683.656 349.536 682.828 349.536 681.917L349.536 681.834V643.897H298.986V763.424C298.986 764.114 298.701 764.804 298.203 765.278C298.024 765.466 297.814 765.625 297.578 765.743L262.11 786.238Z" fill="#FFF9F3"/>
<path d="M262.11 786.238V829.559L468.202 710.66L430.679 688.967L396.356 708.754C396.241 708.823 396.123 708.882 396.003 708.932C395.736 709.117 395.357 709.169 395.03 709.169C394.616 709.169 394.118 709.086 393.704 708.837L350.862 684.153C350.033 683.656 349.536 682.828 349.536 681.917L349.536 681.834V643.897H298.986V763.424C298.986 764.114 298.701 764.804 298.203 765.278C298.024 765.466 297.814 765.625 297.578 765.743L262.11 786.238Z" fill="#2F1664"/>
<path d="M164.078 680.426L131.628 699.152C131.132 699.638 130.848 700.28 130.848 700.968C130.848 701.382 130.931 701.879 131.179 702.294C131.594 703.122 132.505 703.619 133.417 703.619C133.654 703.619 133.873 703.6 134.09 703.544L167.89 684.07C168.719 683.656 169.216 682.745 169.216 681.834V680.833C169.718 682.014 169.268 683.388 168.056 684.07L134.826 703.205C134.566 703.378 134.328 703.483 134.09 703.544L125.818 708.31C125.644 708.489 125.441 708.64 125.213 708.754C125.203 708.76 125.192 708.765 125.182 708.77C125.175 708.773 125.168 708.776 125.162 708.78C125.133 708.793 125.104 708.807 125.075 708.82C125.047 708.832 125.02 708.844 124.992 708.855C124.952 708.872 124.912 708.887 124.872 708.902C124.575 709.111 124.231 709.169 123.887 709.169C123.511 709.169 123.066 709.1 122.678 708.902C122.582 708.859 122.488 708.81 122.395 708.754L88.0882 688.958L50.6321 710.66L256.807 829.607V786.348L221.257 765.826C221.029 765.689 220.826 765.528 220.652 765.346C220.141 764.857 219.848 764.206 219.848 763.507V643.897H169.216V680.833V681.834C169.216 682.745 168.719 683.656 167.89 684.07L134.09 703.544C134.328 703.483 134.566 703.378 134.826 703.205L168.056 684.07C169.268 683.388 169.718 682.014 169.216 680.833C169.169 680.723 169.114 680.615 169.05 680.509C168.636 679.846 167.973 679.432 167.227 679.266H166.647C166.398 679.266 166.15 679.266 165.984 679.349C165.736 679.431 165.57 679.514 165.405 679.597L165.404 679.597L164.078 680.361V680.426Z" fill="#FFF9F3"/>
<path d="M164.078 680.426L131.628 699.152C131.132 699.638 130.848 700.28 130.848 700.968C130.848 701.382 130.931 701.879 131.179 702.294C131.594 703.122 132.505 703.619 133.417 703.619C133.654 703.619 133.873 703.6 134.09 703.544L167.89 684.07C168.719 683.656 169.216 682.745 169.216 681.834V680.833C169.718 682.014 169.268 683.388 168.056 684.07L134.826 703.205C134.566 703.378 134.328 703.483 134.09 703.544L125.818 708.31C125.644 708.489 125.441 708.64 125.213 708.754C125.203 708.76 125.192 708.765 125.182 708.77C125.175 708.773 125.168 708.776 125.162 708.78C125.133 708.793 125.104 708.807 125.075 708.82C125.047 708.832 125.02 708.844 124.992 708.855C124.952 708.872 124.912 708.887 124.872 708.902C124.575 709.111 124.231 709.169 123.887 709.169C123.511 709.169 123.066 709.1 122.678 708.902C122.582 708.859 122.488 708.81 122.395 708.754L88.0882 688.958L50.6321 710.66L256.807 829.607V786.348L221.257 765.826C221.029 765.689 220.826 765.528 220.652 765.346C220.141 764.857 219.848 764.206 219.848 763.507V643.897H169.216V680.833V681.834C169.216 682.745 168.719 683.656 167.89 684.07L134.09 703.544C134.328 703.483 134.566 703.378 134.826 703.205L168.056 684.07C169.268 683.388 169.718 682.014 169.216 680.833C169.169 680.723 169.114 680.615 169.05 680.509C168.636 679.846 167.973 679.432 167.227 679.266H166.647C166.398 679.266 166.15 679.266 165.984 679.349C165.736 679.431 165.57 679.514 165.405 679.597L165.404 679.597L164.078 680.361V680.426Z" fill="#2F1664"/>
<path d="M7.87243 784.794L256.807 928.508V885.187L45.4114 763.175L7.87243 784.794Z" fill="#FFF9F3"/>
<path d="M7.87243 784.794L256.807 928.508V885.187L45.4114 763.175L7.87243 784.794Z" fill="#2F1664"/>
<path d="M262.193 885.009V928.33L511.045 784.794L473.506 763.092L262.193 885.009Z" fill="#FFF9F3"/>
<path d="M262.193 885.009V928.33L511.045 784.794L473.506 763.092L262.193 885.009Z" fill="#2F1664"/>
<path d="M513.614 789.267V832.589L262.11 977.746V980.896L302.218 957.665L516.265 834.162V787.713L262.11 934.37V934.424L513.614 789.267Z" fill="#FFF9F3"/>
<path d="M513.614 789.267V832.589L262.11 977.746V980.896L302.218 957.665L516.265 834.162V787.713L262.11 934.37V934.424L513.614 789.267Z" fill="#FFF9F3"/>
<path d="M262.11 934.37L516.265 787.713V784.794L262.193 931.404V933.064C262.193 933.282 262.165 933.5 262.11 933.71V934.37Z" fill="#FFF9F3"/>
<path d="M262.11 934.37L516.265 787.713V784.794L262.193 931.404V933.064C262.193 933.282 262.165 933.5 262.11 933.71V934.37Z" fill="#FFF9F3"/>
<path d="M259.459 935.632V982.432L262.11 980.896V977.746L262.027 977.794V934.472L262.11 934.424V934.37L261.673 934.622C261.461 934.904 261.189 935.14 260.867 935.301L260.866 935.301C260.369 935.466 259.873 935.632 259.459 935.632Z" fill="#FFF9F3"/>
<path d="M259.459 935.632V982.432L262.11 980.896V977.746L262.027 977.794V934.472L262.11 934.424V934.37L261.673 934.622C261.461 934.904 261.189 935.14 260.867 935.301L260.866 935.301C260.369 935.466 259.873 935.632 259.459 935.632Z" fill="#FFF9F3"/>
<path d="M2.65172 834.162L45.4114 858.929L256.807 980.902V977.876L5.2206 832.672V789.361L2.65172 787.879V834.162Z" fill="#FFF9F3"/>
<path d="M2.65172 834.162L45.4114 858.929L256.807 980.902V977.876L5.2206 832.672V789.361L2.65172 787.879V834.162Z" fill="#FFF9F3"/>
<path d="M216.616 858.929L173.856 834.162L45.4114 760.11V757.585C44.9834 757.6 44.5576 757.723 44.1684 757.957L42.7597 758.768V760.11C42.7597 761.022 43.2569 761.85 44.0855 762.347L256.807 885.085V883.696C256.807 883.682 256.807 883.669 256.807 883.655C256.807 883.641 256.807 883.627 256.807 883.613V882.086L216.616 858.929Z" fill="#FFF9F3"/>
<path d="M216.616 858.929L173.856 834.162L45.4114 760.11V757.585C44.9834 757.6 44.5576 757.723 44.1684 757.957L42.7597 758.768V760.11C42.7597 761.022 43.2569 761.85 44.0855 762.347L256.807 885.085V883.696C256.807 883.682 256.807 883.669 256.807 883.655C256.807 883.641 256.807 883.627 256.807 883.613V882.086L216.616 858.929Z" fill="#FFF9F3"/>
<path d="M259.459 787.445C259.044 787.445 258.547 787.362 258.133 787.114L256.807 786.348V829.607V829.714L259.387 831.202L262.11 829.63V829.559L262.027 829.607V786.285L262.11 786.238V786.183L261.228 786.692C260.929 786.99 260.562 787.218 260.156 787.341C260.076 787.365 259.995 787.386 259.913 787.401C259.876 787.409 259.84 787.415 259.803 787.42C259.787 787.422 259.771 787.425 259.755 787.427C259.743 787.428 259.731 787.429 259.72 787.431C259.674 787.436 259.629 787.439 259.583 787.442C259.576 787.442 259.569 787.443 259.562 787.443C259.554 787.443 259.546 787.443 259.538 787.444C259.511 787.445 259.485 787.445 259.459 787.445Z" fill="#FFF9F3"/>
<path d="M259.459 787.445C259.044 787.445 258.547 787.362 258.133 787.114L256.807 786.348V829.607V829.714L259.387 831.202L262.11 829.63V829.559L262.027 829.607V786.285L262.11 786.238V786.183L261.228 786.692C260.929 786.99 260.562 787.218 260.156 787.341C260.076 787.365 259.995 787.386 259.913 787.401C259.876 787.409 259.84 787.415 259.803 787.42C259.787 787.422 259.771 787.425 259.755 787.427C259.743 787.428 259.731 787.429 259.72 787.431C259.674 787.436 259.629 787.439 259.583 787.442C259.576 787.442 259.569 787.443 259.562 787.443C259.554 787.443 259.546 787.443 259.538 787.444C259.511 787.445 259.485 787.445 259.459 787.445Z" fill="#FFF9F3"/>
<path d="M430.663 735.426L473.423 710.66V713.875L474.832 713.062C475.462 712.746 475.901 712.143 476.075 711.471V710.66C476.075 710.299 475.997 709.952 475.851 709.633C475.623 709.215 475.275 708.855 474.832 708.589L474.023 708.123C473.378 707.965 472.694 708.065 472.097 708.423L262.11 829.63V832.633L430.663 735.426Z" fill="#FFF9F3"/>
<path d="M430.663 735.426L473.423 710.66V713.875L474.832 713.062C475.462 712.746 475.901 712.143 476.075 711.471V710.66C476.075 710.299 475.997 709.952 475.851 709.633C475.623 709.215 475.275 708.855 474.832 708.589L474.023 708.123C473.378 707.965 472.694 708.065 472.097 708.423L262.11 829.63V832.633L430.663 735.426Z" fill="#FFF9F3"/>
<path d="M44.0855 708.506C43.2569 708.92 42.7597 709.831 42.7597 710.742C42.7597 711.654 43.2569 712.482 44.0855 712.979L45.4114 713.744V710.66L256.807 832.632V829.714L46.7373 708.506C45.936 708.025 44.9798 708.01 44.1683 708.458L44.0855 708.506Z" fill="#FFF9F3"/>
<path d="M44.0855 708.506C43.2569 708.92 42.7597 709.831 42.7597 710.742C42.7597 711.654 43.2569 712.482 44.0855 712.979L45.4114 713.744V710.66L256.807 832.632V829.714L46.7373 708.506C45.936 708.025 44.9798 708.01 44.1683 708.458L44.0855 708.506Z" fill="#FFF9F3"/>
<path d="M397.516 274.63C397.516 263.117 392.13 252.597 382.683 245.97C373.621 239.558 362.153 237.799 351.734 241.146C352.405 241.045 353.056 241.175 353.596 241.58C354.259 242.077 354.674 242.823 354.674 243.734V245.7C354.935 245.629 355.197 245.563 355.46 245.5C359.722 244.466 364.132 244.393 368.415 245.282C372.441 246.1 376.322 247.746 379.782 250.195C387.19 255.44 391.724 263.558 392.313 272.61C392.356 273.279 392.378 273.952 392.378 274.63L392.378 702.045L392.378 702.171L395.03 703.702L397.516 702.267V274.63Z" fill="#FFF9F3"/>
<path d="M397.516 274.63C397.516 263.117 392.13 252.597 382.683 245.97C373.621 239.558 362.153 237.799 351.734 241.146C352.405 241.045 353.056 241.175 353.596 241.58C354.259 242.077 354.674 242.823 354.674 243.734V245.7C354.935 245.629 355.197 245.563 355.46 245.5C359.722 244.466 364.132 244.393 368.415 245.282C372.441 246.1 376.322 247.746 379.782 250.195C387.19 255.44 391.724 263.558 392.313 272.61C392.356 273.279 392.378 273.952 392.378 274.63L392.378 702.045L392.378 702.171L395.03 703.702L397.516 702.267V274.63Z" fill="#FFF9F3"/>
<path d="M222.582 638.678C223.245 638.678 223.908 638.927 224.406 639.424C224.668 639.687 224.862 639.996 224.986 640.326V329.3C224.986 294.924 206.506 262.951 176.757 245.805L173.856 244.148C171.867 242.988 169.63 241.995 167.393 241.249C167.298 241.217 167.2 241.191 167.1 241.17C167.42 241.275 167.738 241.384 168.056 241.498C169.299 241.912 169.961 243.154 169.713 244.397C169.685 244.559 169.658 244.721 169.632 244.882C170.661 245.346 171.678 245.874 172.696 246.467L175.596 248.124C204.6 264.856 222.5 295.835 222.5 329.3V638.678H222.582Z" fill="#FFF9F3"/>
<path d="M222.582 638.678C223.245 638.678 223.908 638.927 224.406 639.424C224.668 639.687 224.862 639.996 224.986 640.326V329.3C224.986 294.924 206.506 262.951 176.757 245.805L173.856 244.148C171.867 242.988 169.63 241.995 167.393 241.249C167.298 241.217 167.2 241.191 167.1 241.17C167.42 241.275 167.738 241.384 168.056 241.498C169.299 241.912 169.961 243.154 169.713 244.397C169.685 244.559 169.658 244.721 169.632 244.882C170.661 245.346 171.678 245.874 172.696 246.467L175.596 248.124C204.6 264.856 222.5 295.835 222.5 329.3V638.678H222.582Z" fill="#FFF9F3"/>
<path fill-rule="evenodd" clip-rule="evenodd" d="M260.784 0.372745C259.956 -0.124248 258.961 -0.124248 258.133 0.372745L87.6049 98.8835C87.8052 98.8373 88.009 98.8159 88.2126 98.8193C88.6821 98.8115 89.153 98.9356 89.5799 99.1917L259.417 197.269L429.337 99.1917C430.14 98.7105 431.098 98.6955 431.91 99.146L260.784 0.372745ZM259.459 197.182L93.4746 101.428L259.459 5.67401L425.442 101.428L259.459 197.182Z" fill="#FFF9F3"/>
<path fill-rule="evenodd" clip-rule="evenodd" d="M260.784 0.372745C259.956 -0.124248 258.961 -0.124248 258.133 0.372745L87.6049 98.8835C87.8052 98.8373 88.009 98.8159 88.2126 98.8193C88.6821 98.8115 89.153 98.9356 89.5799 99.1917L259.417 197.269L429.337 99.1917C430.14 98.7105 431.098 98.6955 431.91 99.146L260.784 0.372745ZM259.459 197.182L93.4746 101.428L259.459 5.67401L425.442 101.428L259.459 197.182Z" fill="#FFF9F3"/>
<path d="M259.459 202.898C259.044 202.898 258.547 202.815 258.133 202.566L256.807 201.801V201.821V780.265L259.53 781.835L262.027 780.395V780.322V201.821V201.766L260.784 202.484C260.37 202.732 259.873 202.898 259.459 202.898Z" fill="#FFF9F3"/>
<path d="M259.459 202.898C259.044 202.898 258.547 202.815 258.133 202.566L256.807 201.801V201.821V780.265L259.53 781.835L262.027 780.395V780.322V201.821V201.766L260.784 202.484C260.37 202.732 259.873 202.898 259.459 202.898Z" fill="#FFF9F3"/>
<path fill-rule="evenodd" clip-rule="evenodd" d="M258.133 153.695C258.547 153.944 259.044 154.027 259.459 154.027C259.873 154.027 260.37 153.944 260.784 153.695L347.298 103.747C348.127 103.333 348.624 102.422 348.624 101.511C348.624 100.6 348.127 99.7715 347.298 99.2745L260.784 49.3266C259.956 48.8296 258.961 48.8296 258.133 49.3266L171.619 99.2745C170.79 99.6887 170.293 100.6 170.293 101.511C170.293 102.422 170.79 103.25 171.619 103.747L258.133 153.695ZM259.459 151.376L172.862 101.428L259.459 51.5631L345.972 101.428L259.459 151.376ZM178.165 101.428L259.459 148.311L340.752 101.428L259.459 54.5451L178.165 101.428Z" fill="#FFF9F3"/>
<path fill-rule="evenodd" clip-rule="evenodd" d="M258.133 153.695C258.547 153.944 259.044 154.027 259.459 154.027C259.873 154.027 260.37 153.944 260.784 153.695L347.298 103.747C348.127 103.333 348.624 102.422 348.624 101.511C348.624 100.6 348.127 99.7715 347.298 99.2745L260.784 49.3266C259.956 48.8296 258.961 48.8296 258.133 49.3266L171.619 99.2745C170.79 99.6887 170.293 100.6 170.293 101.511C170.293 102.422 170.79 103.25 171.619 103.747L258.133 153.695ZM259.459 151.376L172.862 101.428L259.459 51.5631L345.972 101.428L259.459 151.376ZM178.165 101.428L259.459 148.311L340.752 101.428L259.459 54.5451L178.165 101.428Z" fill="#FFF9F3"/>
<path fill-rule="evenodd" clip-rule="evenodd" d="M172.862 101.428L259.459 151.376L345.972 101.428L259.459 51.5631L172.862 101.428ZM259.459 148.311L178.165 101.428L259.459 54.5451L340.752 101.428L259.459 148.311Z" fill="#FFF9F3"/>
<path fill-rule="evenodd" clip-rule="evenodd" d="M172.862 101.428L259.459 151.376L345.972 101.428L259.459 51.5631L172.862 101.428ZM259.459 148.311L178.165 101.428L259.459 54.5451L340.752 101.428L259.459 148.311Z" fill="#FFF9F3"/>
<path d="M85.6022 101.511C85.6022 102.422 86.0994 103.25 86.9281 103.747L256.807 201.801V200.247C256.807 199.336 257.304 198.425 258.133 198.011L259.417 197.269L89.4971 99.1917C89.0953 98.9507 88.6545 98.8266 88.2126 98.8193C87.9848 98.823 87.7574 98.8578 87.5355 98.9236L86.9281 99.2745C86.0994 99.6887 85.6022 100.6 85.6022 101.511Z" fill="#FFF9F3"/>
<path d="M85.6022 101.511C85.6022 102.422 86.0994 103.25 86.9281 103.747L256.807 201.801V200.247C256.807 199.336 257.304 198.425 258.133 198.011L259.417 197.269L89.4971 99.1917C89.0953 98.9507 88.6545 98.8266 88.2126 98.8193C87.9848 98.823 87.7574 98.8578 87.5355 98.9236L86.9281 99.2745C86.0994 99.6887 85.6022 100.6 85.6022 101.511Z" fill="#FFF9F3"/>
<path fill-rule="evenodd" clip-rule="evenodd" d="M259.459 787.445C259.485 787.445 259.511 787.445 259.538 787.444C259.546 787.443 259.554 787.443 259.562 787.443L259.583 787.442C259.629 787.439 259.674 787.436 259.72 787.431L259.755 787.427C259.771 787.425 259.787 787.422 259.803 787.42C259.84 787.415 259.876 787.409 259.913 787.401C259.995 787.386 260.076 787.365 260.156 787.341C260.562 787.218 260.929 786.99 261.228 786.692L262.11 786.183V786.238L262.027 786.285V829.607L262.11 829.559V829.63L259.387 831.202L256.807 829.714V829.607L50.6321 710.66L88.0882 688.958L122.395 708.754C122.488 708.81 122.582 708.859 122.678 708.902C123.212 709.141 123.796 709.19 124.35 709.047C124.527 709.014 124.702 708.965 124.872 708.902C124.912 708.887 124.952 708.872 124.992 708.855C125.02 708.844 125.047 708.832 125.075 708.82C125.104 708.807 125.133 708.793 125.162 708.78L125.182 708.77L125.213 708.754C125.441 708.64 125.644 708.489 125.818 708.31L134.09 703.544L167.89 684.07C168.719 683.656 169.216 682.745 169.216 681.834V680.833V643.897H219.848V763.507C219.848 764.206 220.141 764.857 220.652 765.346C220.826 765.528 221.029 765.689 221.257 765.826L256.807 786.348L258.133 787.114C258.547 787.362 259.044 787.445 259.459 787.445ZM42.7597 758.768V710.742C42.7597 711.654 43.2569 712.482 44.0855 712.979L45.4114 713.744V710.66L256.807 832.632V829.714L46.7373 708.506C45.936 708.025 44.9798 708.01 44.1683 708.458L85.5194 684.634V101.428C85.5194 100.517 86.0166 99.6058 86.8452 99.1917C87.0871 99.0466 87.343 98.9439 87.6049 98.8835C87.8052 98.8373 88.009 98.8159 88.2126 98.8193C87.9848 98.823 87.7574 98.8578 87.5355 98.9236L86.9281 99.2745C86.0994 99.6887 85.6022 100.6 85.6022 101.511C85.6022 102.422 86.0994 103.25 86.9281 103.747L256.807 201.801V201.821L90.8229 106.067V684.539L121.235 702.089V274.63C121.235 261.874 127.782 250.526 138.803 244.148C149.825 237.77 163.001 237.77 174.022 244.148L176.922 245.805C206.672 262.951 225.151 294.924 225.151 329.3V641.246V762.016L256.807 780.265L259.53 781.835L262.027 780.395V784.159C262.082 784.364 262.11 784.577 262.11 784.794V786.183L297.661 765.66C297.862 765.56 298.043 765.43 298.203 765.278C298.024 765.466 297.814 765.625 297.578 765.743L262.11 786.238V829.559L468.202 710.66L430.679 688.967L396.356 708.754C396.241 708.823 396.123 708.882 396.003 708.932C395.736 709.117 395.357 709.169 395.03 709.169C394.616 709.169 394.118 709.086 393.704 708.837L350.862 684.153C350.033 683.656 349.536 682.828 349.536 681.917L349.536 681.834V643.897H298.986V763.424C298.986 764.114 298.701 764.804 298.203 765.278C298.65 764.808 298.904 764.157 298.904 763.507V643.897H296.335C295.141 643.897 294.066 643.064 293.766 641.902V762.098L262.027 780.395V780.322L293.683 762.016V329.3C293.683 295.007 312.162 263.034 341.912 245.805L344.812 244.148C355.834 237.77 369.01 237.77 380.031 244.148C391.052 250.526 397.599 261.874 397.599 274.63V701.962L428.011 684.402V105.984L262.027 201.821V201.766L260.784 202.484C260.37 202.732 259.873 202.898 259.459 202.898C259.044 202.898 258.547 202.815 258.133 202.566L256.807 201.801V200.247C256.807 199.336 257.304 198.425 258.133 198.011L259.417 197.269L429.337 99.1917C430.14 98.7105 431.098 98.6955 431.91 99.146C431.927 99.1554 431.944 99.1649 431.96 99.1747L431.989 99.1917C432.818 99.6887 433.315 100.517 433.315 101.428V684.669L474.023 708.123C473.378 707.965 472.694 708.065 472.097 708.423L262.11 829.63V832.633L430.663 735.426L473.423 710.66V713.875L474.832 713.062C475.462 712.746 475.901 712.143 476.075 711.471V758.555L474.749 757.791C474.334 757.543 473.879 757.418 473.423 757.418V760.11L262.11 882.083V883.061C262.165 883.266 262.193 883.479 262.193 883.696V884.906L474.749 762.264C475.577 761.85 476.075 760.939 476.075 760.028V758.555L517.591 782.475C518.092 782.776 518.472 783.197 518.694 783.685C518.893 784.048 519 784.454 519 784.877V834.245C519 835.156 518.503 836.068 517.674 836.482L260.867 984.669C260.51 984.847 260.153 984.94 259.826 984.978C259.698 984.993 259.575 985 259.459 985C259.044 985 258.547 984.917 258.133 984.669L1.32586 836.482C0.497186 835.985 0 835.156 0 834.245V784.877C0 783.966 0.497186 783.055 1.32586 782.641C1.35327 782.624 1.38086 782.609 1.40862 782.593L42.7597 758.768ZM42.7597 758.768V760.11C42.7597 761.022 43.2569 761.85 44.0855 762.347L256.807 885.085V883.696C256.807 883.682 256.807 883.669 256.807 883.655C256.807 883.641 256.807 883.627 256.807 883.613V882.086L216.616 858.929L173.856 834.162L45.4114 760.11V757.585C44.9834 757.6 44.5576 757.723 44.1684 757.957L42.7597 758.768ZM475.851 709.633C475.629 709.145 475.25 708.724 474.749 708.423C474.517 708.284 474.273 708.184 474.023 708.123L474.832 708.589C475.275 708.855 475.623 709.215 475.851 709.633ZM475.851 709.633C475.997 709.952 476.075 710.299 476.075 710.66V711.471C476.129 711.261 476.157 711.043 476.157 710.825C476.157 710.401 476.05 709.996 475.851 709.633ZM259.417 197.269L89.5799 99.1917C89.153 98.9356 88.6821 98.8115 88.2126 98.8193C88.6545 98.8266 89.0953 98.9507 89.4971 99.1917L259.417 197.269ZM164.078 641.902V680.361V680.426L131.628 699.152L126.539 702.089V701.997V274.63C126.539 264.008 131.939 254.496 140.952 249.049C141.034 249 141.116 248.951 141.198 248.902L141.304 248.84L141.368 248.802C141.39 248.789 141.412 248.777 141.434 248.764L141.538 248.704C148.514 244.693 156.503 243.67 163.995 245.636V245.657V249.946V641.246C163.995 641.474 164.024 641.693 164.078 641.902ZM349.536 638.761H298.986V329.3C298.986 296.829 316.471 266.596 344.564 250.361L347.464 248.704C348.117 248.328 348.779 247.979 349.449 247.656C349.507 248.423 349.536 249.185 349.536 249.946V638.761ZM392.313 272.61C391.724 263.558 387.19 255.44 379.782 250.195C376.322 247.746 372.441 246.1 368.415 245.282C364.132 244.393 359.722 244.466 355.46 245.5C355.197 245.563 354.935 245.629 354.674 245.7V243.734C354.674 242.823 354.259 242.077 353.596 241.58C353.056 241.175 352.405 241.045 351.734 241.146C362.153 237.799 373.621 239.558 382.683 245.97C392.13 252.597 397.516 263.117 397.516 274.63V702.267L395.03 703.702L392.378 702.171L392.378 702.045L354.839 680.343L354.839 641.412L354.839 641.4V249.946C354.839 248.797 354.784 247.648 354.674 246.498C354.649 246.24 354.621 245.982 354.591 245.724L354.674 245.702C354.935 245.631 355.197 245.564 355.46 245.5C359.725 244.478 364.152 244.416 368.415 245.282C371.504 245.923 374.526 247.063 377.379 248.704C386.158 253.752 391.659 262.585 392.313 272.61ZM219.931 329.3V638.596H169.299V249.946V247.627C169.725 247.817 170.152 248.006 170.564 248.212C170.862 248.37 171.158 248.534 171.453 248.704L174.353 250.361C202.446 266.596 219.931 296.829 219.931 329.3ZM222.5 329.3V638.678H222.582C223.245 638.678 223.908 638.927 224.406 639.424C224.668 639.687 224.862 639.996 224.986 640.326V329.3C224.986 294.924 206.506 262.951 176.757 245.805L173.856 244.148C171.867 242.988 169.63 241.995 167.393 241.249C167.298 241.217 167.2 241.191 167.1 241.17C167.42 241.275 167.738 241.384 168.056 241.498C169.299 241.912 169.961 243.154 169.713 244.397C169.685 244.559 169.658 244.721 169.632 244.882C170.661 245.346 171.678 245.874 172.696 246.467L175.596 248.124C204.6 264.856 222.5 295.835 222.5 329.3ZM47.9803 715.298L256.807 835.736V879.057L48.0632 758.537H47.9803V715.298ZM45.4114 763.175L256.807 885.187V928.508L7.87243 784.794L45.4114 763.175ZM2.65172 834.162V787.879L5.2206 789.361V832.672L256.807 977.876V980.902L45.4114 858.929L2.65172 834.162ZM259.459 982.432V935.632C259.873 935.632 260.369 935.466 260.866 935.301L260.867 935.301C261.189 935.14 261.461 934.904 261.673 934.622L262.11 934.37V933.71C262.165 933.5 262.193 933.282 262.193 933.064V931.404L516.265 784.794V787.713V834.162L302.218 957.665L262.11 980.896L259.459 982.432ZM511.045 784.794L262.193 928.33V885.009L473.506 763.092L511.045 784.794ZM470.771 758.537L262.11 879.01V835.8L470.771 715.405V758.537ZM513.614 832.589L262.11 977.746L262.027 977.794V934.472L262.11 934.424L513.614 789.267V832.589Z" fill="#FFF9F3"/>
<path fill-rule="evenodd" clip-rule="evenodd" d="M259.459 787.445C259.485 787.445 259.511 787.445 259.538 787.444C259.546 787.443 259.554 787.443 259.562 787.443L259.583 787.442C259.629 787.439 259.674 787.436 259.72 787.431L259.755 787.427C259.771 787.425 259.787 787.422 259.803 787.42C259.84 787.415 259.876 787.409 259.913 787.401C259.995 787.386 260.076 787.365 260.156 787.341C260.562 787.218 260.929 786.99 261.228 786.692L262.11 786.183V786.238L262.027 786.285V829.607L262.11 829.559V829.63L259.387 831.202L256.807 829.714V829.607L50.6321 710.66L88.0882 688.958L122.395 708.754C122.488 708.81 122.582 708.859 122.678 708.902C123.212 709.141 123.796 709.19 124.35 709.047C124.527 709.014 124.702 708.965 124.872 708.902C124.912 708.887 124.952 708.872 124.992 708.855C125.02 708.844 125.047 708.832 125.075 708.82C125.104 708.807 125.133 708.793 125.162 708.78L125.182 708.77L125.213 708.754C125.441 708.64 125.644 708.489 125.818 708.31L134.09 703.544L167.89 684.07C168.719 683.656 169.216 682.745 169.216 681.834V680.833V643.897H219.848V763.507C219.848 764.206 220.141 764.857 220.652 765.346C220.826 765.528 221.029 765.689 221.257 765.826L256.807 786.348L258.133 787.114C258.547 787.362 259.044 787.445 259.459 787.445ZM42.7597 758.768V710.742C42.7597 711.654 43.2569 712.482 44.0855 712.979L45.4114 713.744V710.66L256.807 832.632V829.714L46.7373 708.506C45.936 708.025 44.9798 708.01 44.1683 708.458L85.5194 684.634V101.428C85.5194 100.517 86.0166 99.6058 86.8452 99.1917C87.0871 99.0466 87.343 98.9439 87.6049 98.8835C87.8052 98.8373 88.009 98.8159 88.2126 98.8193C87.9848 98.823 87.7574 98.8578 87.5355 98.9236L86.9281 99.2745C86.0994 99.6887 85.6022 100.6 85.6022 101.511C85.6022 102.422 86.0994 103.25 86.9281 103.747L256.807 201.801V201.821L90.8229 106.067V684.539L121.235 702.089V274.63C121.235 261.874 127.782 250.526 138.803 244.148C149.825 237.77 163.001 237.77 174.022 244.148L176.922 245.805C206.672 262.951 225.151 294.924 225.151 329.3V641.246V762.016L256.807 780.265L259.53 781.835L262.027 780.395V784.159C262.082 784.364 262.11 784.577 262.11 784.794V786.183L297.661 765.66C297.862 765.56 298.043 765.43 298.203 765.278C298.024 765.466 297.814 765.625 297.578 765.743L262.11 786.238V829.559L468.202 710.66L430.679 688.967L396.356 708.754C396.241 708.823 396.123 708.882 396.003 708.932C395.736 709.117 395.357 709.169 395.03 709.169C394.616 709.169 394.118 709.086 393.704 708.837L350.862 684.153C350.033 683.656 349.536 682.828 349.536 681.917L349.536 681.834V643.897H298.986V763.424C298.986 764.114 298.701 764.804 298.203 765.278C298.65 764.808 298.904 764.157 298.904 763.507V643.897H296.335C295.141 643.897 294.066 643.064 293.766 641.902V762.098L262.027 780.395V780.322L293.683 762.016V329.3C293.683 295.007 312.162 263.034 341.912 245.805L344.812 244.148C355.834 237.77 369.01 237.77 380.031 244.148C391.052 250.526 397.599 261.874 397.599 274.63V701.962L428.011 684.402V105.984L262.027 201.821V201.766L260.784 202.484C260.37 202.732 259.873 202.898 259.459 202.898C259.044 202.898 258.547 202.815 258.133 202.566L256.807 201.801V200.247C256.807 199.336 257.304 198.425 258.133 198.011L259.417 197.269L429.337 99.1917C430.14 98.7105 431.098 98.6955 431.91 99.146C431.927 99.1554 431.944 99.1649 431.96 99.1747L431.989 99.1917C432.818 99.6887 433.315 100.517 433.315 101.428V684.669L474.023 708.123C473.378 707.965 472.694 708.065 472.097 708.423L262.11 829.63V832.633L430.663 735.426L473.423 710.66V713.875L474.832 713.062C475.462 712.746 475.901 712.143 476.075 711.471V758.555L474.749 757.791C474.334 757.543 473.879 757.418 473.423 757.418V760.11L262.11 882.083V883.061C262.165 883.266 262.193 883.479 262.193 883.696V884.906L474.749 762.264C475.577 761.85 476.075 760.939 476.075 760.028V758.555L517.591 782.475C518.092 782.776 518.472 783.197 518.694 783.685C518.893 784.048 519 784.454 519 784.877V834.245C519 835.156 518.503 836.068 517.674 836.482L260.867 984.669C260.51 984.847 260.153 984.94 259.826 984.978C259.698 984.993 259.575 985 259.459 985C259.044 985 258.547 984.917 258.133 984.669L1.32586 836.482C0.497186 835.985 0 835.156 0 834.245V784.877C0 783.966 0.497186 783.055 1.32586 782.641C1.35327 782.624 1.38086 782.609 1.40862 782.593L42.7597 758.768ZM42.7597 758.768V760.11C42.7597 761.022 43.2569 761.85 44.0855 762.347L256.807 885.085V883.696C256.807 883.682 256.807 883.669 256.807 883.655C256.807 883.641 256.807 883.627 256.807 883.613V882.086L216.616 858.929L173.856 834.162L45.4114 760.11V757.585C44.9834 757.6 44.5576 757.723 44.1684 757.957L42.7597 758.768ZM475.851 709.633C475.629 709.145 475.25 708.724 474.749 708.423C474.517 708.284 474.273 708.184 474.023 708.123L474.832 708.589C475.275 708.855 475.623 709.215 475.851 709.633ZM475.851 709.633C475.997 709.952 476.075 710.299 476.075 710.66V711.471C476.129 711.261 476.157 711.043 476.157 710.825C476.157 710.401 476.05 709.996 475.851 709.633ZM259.417 197.269L89.5799 99.1917C89.153 98.9356 88.6821 98.8115 88.2126 98.8193C88.6545 98.8266 89.0953 98.9507 89.4971 99.1917L259.417 197.269ZM164.078 641.902V680.361V680.426L131.628 699.152L126.539 702.089V701.997V274.63C126.539 264.008 131.939 254.496 140.952 249.049C141.034 249 141.116 248.951 141.198 248.902L141.304 248.84L141.368 248.802C141.39 248.789 141.412 248.777 141.434 248.764L141.538 248.704C148.514 244.693 156.503 243.67 163.995 245.636V245.657V249.946V641.246C163.995 641.474 164.024 641.693 164.078 641.902ZM349.536 638.761H298.986V329.3C298.986 296.829 316.471 266.596 344.564 250.361L347.464 248.704C348.117 248.328 348.779 247.979 349.449 247.656C349.507 248.423 349.536 249.185 349.536 249.946V638.761ZM392.313 272.61C391.724 263.558 387.19 255.44 379.782 250.195C376.322 247.746 372.441 246.1 368.415 245.282C364.132 244.393 359.722 244.466 355.46 245.5C355.197 245.563 354.935 245.629 354.674 245.7V243.734C354.674 242.823 354.259 242.077 353.596 241.58C353.056 241.175 352.405 241.045 351.734 241.146C362.153 237.799 373.621 239.558 382.683 245.97C392.13 252.597 397.516 263.117 397.516 274.63V702.267L395.03 703.702L392.378 702.171L392.378 702.045L354.839 680.343L354.839 641.412L354.839 641.4V249.946C354.839 248.797 354.784 247.648 354.674 246.498C354.649 246.24 354.621 245.982 354.591 245.724L354.674 245.702C354.935 245.631 355.197 245.564 355.46 245.5C359.725 244.478 364.152 244.416 368.415 245.282C371.504 245.923 374.526 247.063 377.379 248.704C386.158 253.752 391.659 262.585 392.313 272.61ZM219.931 329.3V638.596H169.299V249.946V247.627C169.725 247.817 170.152 248.006 170.564 248.212C170.862 248.37 171.158 248.534 171.453 248.704L174.353 250.361C202.446 266.596 219.931 296.829 219.931 329.3ZM222.5 329.3V638.678H222.582C223.245 638.678 223.908 638.927 224.406 639.424C224.668 639.687 224.862 639.996 224.986 640.326V329.3C224.986 294.924 206.506 262.951 176.757 245.805L173.856 244.148C171.867 242.988 169.63 241.995 167.393 241.249C167.298 241.217 167.2 241.191 167.1 241.17C167.42 241.275 167.738 241.384 168.056 241.498C169.299 241.912 169.961 243.154 169.713 244.397C169.685 244.559 169.658 244.721 169.632 244.882C170.661 245.346 171.678 245.874 172.696 246.467L175.596 248.124C204.6 264.856 222.5 295.835 222.5 329.3ZM47.9803 715.298L256.807 835.736V879.057L48.0632 758.537H47.9803V715.298ZM45.4114 763.175L256.807 885.187V928.508L7.87243 784.794L45.4114 763.175ZM2.65172 834.162V787.879L5.2206 789.361V832.672L256.807 977.876V980.902L45.4114 858.929L2.65172 834.162ZM259.459 982.432V935.632C259.873 935.632 260.369 935.466 260.866 935.301L260.867 935.301C261.189 935.14 261.461 934.904 261.673 934.622L262.11 934.37V933.71C262.165 933.5 262.193 933.282 262.193 933.064V931.404L516.265 784.794V787.713V834.162L302.218 957.665L262.11 980.896L259.459 982.432ZM511.045 784.794L262.193 928.33V885.009L473.506 763.092L511.045 784.794ZM470.771 758.537L262.11 879.01V835.8L470.771 715.405V758.537ZM513.614 832.589L262.11 977.746L262.027 977.794V934.472L262.11 934.424L513.614 789.267V832.589Z" fill="#FFF9F3"/>
<path d="M298.904 763.507V643.897H296.335C295.141 643.897 294.066 643.064 293.766 641.902V762.098L262.027 780.395V784.159C262.082 784.364 262.11 784.577 262.11 784.794V786.183L297.661 765.66C297.862 765.56 298.043 765.43 298.203 765.278C298.65 764.808 298.904 764.157 298.904 763.507Z" fill="#FFF9F3"/>
<path d="M298.904 763.507V643.897H296.335C295.141 643.897 294.066 643.064 293.766 641.902V762.098L262.027 780.395V784.159C262.082 784.364 262.11 784.577 262.11 784.794V786.183L297.661 765.66C297.862 765.56 298.043 765.43 298.203 765.278C298.65 764.808 298.904 764.157 298.904 763.507Z" fill="#FFF9F3"/>
<path d="M474.749 762.264C475.577 761.85 476.075 760.939 476.075 760.028V758.555L474.749 757.791C474.334 757.543 473.879 757.418 473.423 757.418V760.11L262.11 882.083V883.061C262.165 883.266 262.193 883.479 262.193 883.696V884.906L474.749 762.264Z" fill="#FFF9F3"/>
<path d="M474.749 762.264C475.577 761.85 476.075 760.939 476.075 760.028V758.555L474.749 757.791C474.334 757.543 473.879 757.418 473.423 757.418V760.11L262.11 882.083V883.061C262.165 883.266 262.193 883.479 262.193 883.696V884.906L474.749 762.264Z" fill="#FFF9F3"/>
</svg>
